<svg width="70" height="70" viewBox="0 0 70 70" fill="none" xmlns="http://www.w3.org/2000/svg">
<path fill-rule="evenodd" clip-rule="evenodd" d="M45.3997 0H7.58337V70H62.4167V17.017L45.3997 0ZM46.0834 3.983L58.4337 16.3333H46.0834V3.983ZM9.91671 67.6667V2.33333H43.75V18.6667H60.0834V67.6667H9.91671ZM19.25 19.8333H29.75C30.3952 19.8333 30.9167 19.3118 30.9167 18.6667C30.9167 18.0215 30.3952 17.5 29.75 17.5H19.25C18.6049 17.5 18.0834 18.0215 18.0834 18.6667C18.0834 19.3118 18.6049 19.8333 19.25 19.8333ZM25.0834 29.1667H19.25C18.6049 29.1667 18.0834 28.6452 18.0834 28C18.0834 27.3548 18.6049 26.8333 19.25 26.8333H25.0834C25.7285 26.8333 26.25 27.3548 26.25 28C26.25 28.6452 25.7285 29.1667 25.0834 29.1667ZM36.75 29.1667H44.9167C45.5619 29.1667 46.0834 28.6452 46.0834 28C46.0834 27.3548 45.5619 26.8333 44.9167 26.8333H36.75C36.1049 26.8333 35.5834 27.3548 35.5834 28C35.5834 28.6452 36.1049 29.1667 36.75 29.1667ZM29.75 27.9999C29.75 27.6954 29.8667 27.3933 30.0884 27.1833C30.52 26.7399 31.3017 26.7399 31.745 27.1716C31.955 27.3921 32.0834 27.6954 32.0834 27.9999C32.0834 28.3033 31.955 28.6054 31.745 28.8166C31.5234 29.0488 31.22 29.1666 30.9167 29.1666C30.6134 29.1666 30.3089 29.0383 30.0884 28.8283C29.8667 28.6066 29.75 28.3033 29.75 27.9999ZM50.75 29.1669C51.0534 29.1669 51.3567 29.0386 51.5784 28.8286C51.7884 28.6069 51.9167 28.3036 51.9167 28.0002C51.9167 27.6957 51.7884 27.3924 51.5784 27.1719C51.135 26.7402 50.365 26.7402 49.9217 27.1719C49.7105 27.3924 49.5834 27.6957 49.5834 28.0002C49.5834 28.3036 49.7105 28.6069 49.9217 28.8286C50.1422 29.0386 50.4467 29.1669 50.75 29.1669ZM25.0834 36.1667H33.25C33.8952 36.1667 34.4167 36.6882 34.4167 37.3333C34.4167 37.9785 33.8952 38.5 33.25 38.5H25.0834C24.4382 38.5 23.9167 37.9785 23.9167 37.3333C23.9167 36.6882 24.4382 36.1667 25.0834 36.1667ZM19.25 38.5002C19.5534 38.5002 19.8567 38.3719 20.0784 38.1619C20.2989 37.9402 20.4167 37.6369 20.4167 37.3336C20.4167 37.0291 20.2989 36.7257 20.0784 36.5052C19.635 36.0736 18.865 36.0736 18.4217 36.5052C18.2 36.7257 18.0834 37.0174 18.0834 37.3336C18.0834 37.6369 18.2105 37.9402 18.4217 38.1619C18.6422 38.3719 18.9467 38.5002 19.25 38.5002ZM19.1905 53.3727C19.5043 50.7348 20.3642 48.1903 22.9192 46.8603C24.2503 46.1673 25.4287 48.1822 24.0963 48.8763C21.5612 50.1958 21.4422 53.2012 21.357 55.7282C21.322 56.7898 20.1332 57.1958 19.3655 56.553C18.2747 55.6383 17.1827 54.7237 16.0918 53.8102C14.9392 52.843 16.5982 51.2015 17.7415 52.1593C17.983 52.3617 18.2245 52.5639 18.466 52.766C18.7075 52.9681 18.949 53.1702 19.1905 53.3727ZM30.6775 51.5143C30.223 51.6196 29.7509 51.858 29.2816 52.0949C28.0828 52.7001 26.903 53.2957 26.0855 51.638C25.4217 50.2916 23.408 51.4723 24.0707 52.8151C24.6738 54.039 25.8207 54.8965 27.1845 55.0691C27.8775 55.1566 28.504 55.0586 29.1538 54.8055C29.2699 54.7604 29.4632 54.6469 29.6948 54.511C30.4155 54.088 31.5073 53.4472 31.7987 53.969C32.5313 55.2803 34.5473 54.1043 33.8135 52.7918C33.187 51.6695 31.9188 51.2261 30.6775 51.5143ZM54.096 39.8487C54.1439 39.963 54.264 40.1683 54.5359 40.2652C55.7807 40.7073 56.5834 41.846 56.5834 43.1667C56.5834 44.4873 55.7807 45.626 54.5359 46.0682C54.264 46.165 54.1439 46.3692 54.096 46.4847C54.0494 46.599 53.9887 46.83 54.1124 47.0925C54.6782 48.2837 54.4414 49.6568 53.508 50.5913C53.0577 51.0428 52.5024 51.3263 51.9167 51.4395V65.8163L46.0834 59.983L40.25 65.8163V51.4407C39.6644 51.3263 39.1102 51.0417 38.6587 50.5913C37.7254 49.6568 37.4885 48.2837 38.0544 47.0913C38.1792 46.83 38.1174 46.599 38.0707 46.4847C38.0229 46.3703 37.9027 46.165 37.6309 46.0682C36.386 45.626 35.5834 44.4873 35.5834 43.1667C35.5834 41.846 36.386 40.7073 37.6309 40.2652C37.9027 40.1683 38.0229 39.9642 38.0707 39.8487C38.1174 39.7343 38.178 39.5033 38.0544 39.2408C37.4885 38.0497 37.7254 36.6765 38.6587 35.742C39.5944 34.8087 40.9675 34.5742 42.1587 35.1377C42.42 35.2637 42.6522 35.2007 42.7654 35.154C42.8797 35.1062 43.085 34.986 43.1819 34.7142C43.624 33.4693 44.7627 32.6667 46.0834 32.6667C47.404 32.6667 48.5427 33.4693 48.9849 34.7142C49.0817 34.986 49.2859 35.1062 49.4014 35.154C49.5145 35.2007 49.7455 35.2625 50.0092 35.1377C51.1992 34.5718 52.5735 34.8098 53.508 35.742C54.4414 36.6765 54.6782 38.0497 54.1124 39.242C53.9875 39.5033 54.0494 39.7343 54.096 39.8487ZM42.5834 60.1837L46.0834 56.6837L49.5822 60.1825V51.1327C49.5765 51.1333 49.5707 51.1343 49.5652 51.1353C49.5606 51.136 49.5561 51.1368 49.5519 51.1373C49.4935 51.149 49.4387 51.1642 49.4014 51.1793C49.3442 51.2027 49.2649 51.2447 49.1867 51.3147C49.1085 51.3847 49.0327 51.4827 48.9849 51.6192C48.5427 52.864 47.404 53.6667 46.0834 53.6667C44.7627 53.6667 43.624 52.864 43.1819 51.6192C43.134 51.4827 43.0582 51.3847 42.98 51.3147C42.903 51.2458 42.8225 51.2038 42.7654 51.1793C42.728 51.163 42.672 51.149 42.6137 51.1373C42.6076 51.1358 42.601 51.1348 42.5943 51.1339C42.5907 51.1335 42.587 51.1331 42.5834 51.1327V60.1837ZM51.9412 45.5922C52.2737 44.7883 52.9352 44.1607 53.7542 43.8702C54.2022 43.7115 54.25 43.3253 54.25 43.1667C54.25 43.008 54.2022 42.6218 53.7565 42.4655C52.9375 42.175 52.276 41.5462 51.9435 40.7435C51.6099 39.9385 51.6332 39.0273 52.0065 38.241C52.2107 37.8105 51.9727 37.5048 51.8595 37.3928C51.7487 37.2797 51.4395 37.0393 51.0125 37.2458C50.225 37.6203 49.3115 37.6448 48.5089 37.3088C47.705 36.9763 47.0785 36.3148 46.7869 35.4958C46.6282 35.0478 46.242 35 46.0834 35C45.9247 35 45.5385 35.0478 45.3822 35.4935C45.0917 36.3125 44.4629 36.974 43.6602 37.3065C42.8552 37.6425 41.9429 37.6168 41.1577 37.2435C40.726 37.0417 40.4215 37.2773 40.3095 37.3905C40.1964 37.5025 39.9584 37.8093 40.1625 38.2375C40.537 39.025 40.5592 39.9373 40.2255 40.7412C39.893 41.545 39.2315 42.1727 38.4125 42.4632C37.9645 42.6218 37.9167 43.008 37.9167 43.1667C37.9167 43.3253 37.9645 43.7115 38.4114 43.8678C39.2304 44.1583 39.8919 44.7872 40.2244 45.5898C40.558 46.3948 40.5347 47.306 40.1614 48.0923C39.9572 48.5228 40.1952 48.8285 40.3084 48.9405C40.404 49.0373 40.6479 49.21 40.9827 49.1342L41.2475 49.0513C41.6092 48.8752 42.0327 48.79 42.469 48.7912C42.4725 48.7912 42.4749 48.79 42.4784 48.79C42.5072 48.79 42.5361 48.7939 42.565 48.7978C42.5886 48.8009 42.6122 48.8041 42.6359 48.8052C42.6491 48.8059 42.6624 48.8067 42.6756 48.8074C42.8045 48.8146 42.9326 48.8218 43.0617 48.8472C43.2379 48.881 43.4105 48.9358 43.5809 49.0012C43.5922 49.0055 43.6038 49.0083 43.6154 49.0111C43.6289 49.0144 43.6424 49.0177 43.6555 49.0233C43.6555 49.0233 43.6555 49.0237 43.6558 49.0241C43.6559 49.0243 43.6562 49.0245 43.6567 49.0245C43.6895 49.0379 43.7197 49.0559 43.7498 49.0739C43.7721 49.0873 43.7944 49.1006 43.8177 49.112C43.8323 49.1191 43.8469 49.1262 43.8615 49.1333C43.986 49.1936 44.1109 49.2542 44.2237 49.3325C44.3859 49.4445 44.5329 49.574 44.6705 49.714C44.6765 49.72 44.6831 49.725 44.6895 49.7299C44.6968 49.7355 44.704 49.741 44.7102 49.7478C45.0042 50.057 45.234 50.4268 45.3799 50.8375C45.5385 51.2855 45.9247 51.3333 46.0834 51.3333C46.242 51.3333 46.6282 51.2855 46.7845 50.8398C46.9304 50.4303 47.1602 50.0593 47.4542 49.7502C47.4624 49.7414 47.4719 49.734 47.4813 49.7266C47.4894 49.7203 47.4974 49.714 47.5044 49.707C47.6385 49.5717 47.782 49.4433 47.9395 49.3348C48.0639 49.249 48.2008 49.1828 48.3374 49.1169L48.3619 49.105C48.3846 49.0944 48.4059 49.0817 48.4272 49.069C48.4528 49.0536 48.4785 49.0383 48.5065 49.0268C48.5077 49.0257 48.5089 49.0257 48.5089 49.0257C48.706 48.944 48.909 48.8845 49.1155 48.846C49.1777 48.834 49.2404 48.8307 49.3029 48.8274C49.3378 48.8255 49.3726 48.8237 49.4072 48.8203C49.4415 48.8175 49.4759 48.8137 49.5102 48.81C49.588 48.8015 49.6659 48.7931 49.7444 48.7947C49.8056 48.7962 49.8659 48.8051 49.9265 48.814C49.9594 48.8188 49.9923 48.8236 50.0255 48.8273C50.0534 48.8304 50.0813 48.8331 50.1091 48.8359C50.1982 48.8446 50.2873 48.8533 50.3744 48.8728C50.4255 48.8851 50.4753 48.9031 50.5252 48.9212C50.5561 48.9323 50.587 48.9435 50.6182 48.9533C50.6479 48.9625 50.6777 48.971 50.7075 48.9796C50.788 49.0027 50.8686 49.0258 50.946 49.0607L51.2027 49.1412C51.5294 49.2042 51.765 49.0373 51.8572 48.9428C51.9704 48.8308 52.2084 48.524 52.0042 48.0958C51.6297 47.3083 51.6075 46.396 51.9412 45.5922Z" fill="url(#paint0_linear)"/>
<defs>
<linearGradient id="paint0_linear" x1="-5.5" y1="35" x2="111.5" y2="35" gradientUnits="userSpaceOnUse">
<stop stop-color="#53E4F4"/>
<stop offset="1" stop-color="#8CF7DB"/>
</linearGradient>
</defs>
</svg>
