<svg width="70" height="70" viewBox="0 0 70 70" fill="none" xmlns="http://www.w3.org/2000/svg">
<path fill-rule="evenodd" clip-rule="evenodd" d="M65.625 39.4049H55.7129V35.3073C55.7129 34.5789 55.3483 34.0211 54.6191 33.6341C53.89 33.2472 53.0469 33.0537 52.0899 33.0537C50.1758 33.0537 47.6921 33.065 44.6387 33.0878C41.5853 33.1106 39.1243 33.122 37.2559 33.122V30.5951H45.3223C46.5072 30.5951 47.5326 30.1626 48.3984 29.2976C49.2643 28.4325 49.6973 27.4081 49.6973 26.2244V4.37073C49.6973 3.18699 49.2643 2.1626 48.3984 1.29756C47.5326 0.432521 46.5072 0 45.3223 0H23.4473C22.2624 0 21.237 0.432521 20.3711 1.29756C19.5052 2.1626 19.0723 3.18699 19.0723 4.37073V26.2244C19.0723 27.4081 19.5052 28.4325 20.3711 29.2976C21.237 30.1626 22.2624 30.5951 23.4473 30.5951H32.8809V33.0537H17.8418C16.8848 33.0537 16.0417 33.2585 15.3125 33.6683C14.5833 34.078 14.2188 34.6244 14.2188 35.3073V39.4049H4.375C3.19011 39.4049 2.16472 39.8374 1.29883 40.7024C0.43295 41.5675 0 42.5919 0 43.7756V65.6293C0 66.813 0.43295 67.8374 1.29883 68.7024C2.16472 69.5675 3.19011 70 4.375 70H26.25C27.4349 70 28.4603 69.5675 29.3262 68.7024C30.1921 67.8374 30.625 66.813 30.625 65.6293V43.7756C30.625 42.5919 30.1921 41.5675 29.3262 40.7024C28.4603 39.8374 27.4349 39.4049 26.25 39.4049H18.457V36.8098H51.4746V39.4049H43.75C42.5651 39.4049 41.5397 39.8374 40.6738 40.7024C39.8079 41.5675 39.375 42.5919 39.375 43.7756V65.6293C39.375 66.813 39.8079 67.8374 40.6738 68.7024C41.5397 69.5675 42.5651 70 43.75 70H65.625C66.8099 70 67.8353 69.5675 68.7012 68.7024C69.567 67.8374 70 66.813 70 65.6293V43.7756C70 42.5919 69.567 41.5675 68.7012 40.7024C67.8353 39.8374 66.8099 39.4049 65.625 39.4049ZM43.2727 44H64.9091V66H43.2727V44ZM45.8181 4H24.1818V26H45.8181V4ZM5.09082 44H26.7272V66H5.09082V44Z" fill="url(#paint0_linear)"/>
<defs>
<linearGradient id="paint0_linear" x1="34.0598" y1="-30.0361" x2="-31.9165" y2="35.9402" gradientUnits="userSpaceOnUse">
<stop stop-color="#9EFBD3"/>
<stop offset="0.478729" stop-color="#57E9F2"/>
<stop offset="1" stop-color="#45D4FB"/>
</linearGradient>
</defs>
</svg>
