<svg width="70" height="70" viewBox="0 0 70 70" fill="none" xmlns="http://www.w3.org/2000/svg">
<path fill-rule="evenodd" clip-rule="evenodd" d="M33.796 38.7924L1.16775 20.8669C0.389251 20.4516 0 19.7826 0 18.8598C0 18.4445 0.114485 18.0639 0.343457 17.7178C0.572426 17.3718 0.870088 17.1065 1.23644 16.9219L34.2081 0.242235C34.8493 -0.080745 35.5133 -0.080745 36.2002 0.242235L68.8284 16.9219C69.1948 17.1065 69.481 17.3718 69.6871 17.7178C69.8931 18.0639 69.9962 18.4445 69.9962 18.8598C70.042 19.7826 69.6756 20.4516 68.8971 20.8669L35.8567 38.7924C35.7193 38.8385 35.5591 38.8847 35.3759 38.9308C35.1927 38.9769 35.0095 39 34.8264 39C34.46 39 34.1166 38.9308 33.796 38.7924ZM63.75 19.0257L35.7971 5L7.5 19.0257L35.4529 34L63.75 19.0257ZM68.7641 33.3784L62.2414 30.1351L57.5725 32.6351L63.0653 35.4054L34.846 50.3378L6.96999 35.4054L12.8061 32.5L8.13721 30L1.20253 33.3784C0.424384 33.7838 0.0238682 34.4257 0.000980774 35.3041C-0.0219049 36.1824 0.355725 36.8243 1.13387 37.2297L33.7474 54.7297C34.1136 54.9099 34.4798 55 34.846 55C35.0291 55 35.2008 54.9775 35.361 54.9324C35.5212 54.8874 35.6928 54.8198 35.8759 54.7297L68.8328 37.2297C69.6109 36.8243 70 36.1824 70 35.3041C70 34.4257 69.588 33.7838 68.7641 33.3784ZM62.5847 45L68.7641 48.022C69.588 48.4341 70 49.0865 70 49.9794C70 50.8723 69.6109 51.5247 68.8328 51.9368L35.8759 69.7253C35.6928 69.8168 35.5212 69.8855 35.361 69.9313C35.2008 69.9771 35.0291 70 34.846 70C34.7087 70 34.5828 69.9885 34.4684 69.9657C34.3539 69.9428 34.2395 69.9084 34.1251 69.8626C34.0106 69.8168 33.8848 69.7711 33.7474 69.7253L1.13387 51.9368C0.355725 51.5247 -0.0219049 50.8723 0.000980774 49.9794C0.0238682 49.0865 0.424384 48.4341 1.20253 48.022L7.72525 45.0687L12.3941 47.6099L6.96999 50.0824L34.846 65.261L63.0653 50.0824L57.9158 47.5412L62.5847 45Z" fill="url(#paint0_linear)"/>
<defs>
<linearGradient id="paint0_linear" x1="34.0598" y1="-30.0361" x2="-31.9165" y2="35.9402" gradientUnits="userSpaceOnUse">
<stop stop-color="#9EFBD3"/>
<stop offset="0.478729" stop-color="#57E9F2"/>
<stop offset="1" stop-color="#45D4FB"/>
</linearGradient>
</defs>
</svg>
