<svg width="78" height="70" viewBox="0 0 78 70" fill="none" xmlns="http://www.w3.org/2000/svg">
<path fill-rule="evenodd" clip-rule="evenodd" d="M13.5694 1.43939C16.0963 0.479798 18.8506 0 21.8324 0C26.8356 0 32.5211 3.13131 38.8889 9.39394C41.5674 6.66667 44.3849 4.41919 47.3413 2.65152C50.2978 0.883839 53.1153 0 55.7938 0C58.7755 0 61.5172 0.54293 64.0188 1.62879C66.5205 2.71465 68.8831 4.36869 71.1068 6.59091C75.5541 10.9848 77.7778 16.3131 77.7778 22.5758C77.7778 28.8384 75.5541 34.1919 71.1068 38.6364C70.9046 38.7879 61.8583 48.5353 43.9679 67.8788C42.5529 69.2929 40.8472 70 38.851 70C36.8547 70 35.1744 69.2929 33.8098 67.8788L31.2324 65.0758C29.5141 63.2071 27.4042 60.8838 24.9025 58.1061C22.4009 55.3283 19.874 52.5253 17.3219 49.697C14.7697 46.8687 12.4702 44.3308 10.4234 42.0833C8.37665 39.8359 7.12584 38.4848 6.671 38.0303C4.49787 35.8586 2.84276 33.3586 1.70565 30.5303C0.56855 27.702 0 24.8611 0 22.0076C0 19.154 0.56855 16.3131 1.70565 13.4848C2.84276 10.6566 4.49787 8.15657 6.671 5.98485C8.74305 3.91414 11.0425 2.39899 13.5694 1.43939ZM35.4776 12.8789C30.0701 7.5254 25.5217 4.84863 21.8324 4.84863C19.4571 4.84863 17.3093 5.2148 15.3888 5.94712C13.4684 6.67944 11.6996 7.82843 10.0824 9.39409C6.59524 12.8789 4.85168 17.0961 4.85168 22.0456C4.85168 22.6012 4.87695 23.182 4.92749 23.788C4.97803 24.3941 5.06647 24.9749 5.19281 25.5305C5.31916 26.086 5.45814 26.6416 5.60975 27.1971C5.76136 27.7527 5.95088 28.2956 6.1783 28.8259C6.40572 29.3562 6.65841 29.8739 6.93637 30.3789C7.21433 30.884 7.51755 31.3764 7.84605 31.8562C8.17455 32.336 8.52831 32.8158 8.90735 33.2956C9.28638 33.7754 9.67805 34.2173 10.0824 34.6214C11.8512 36.389 20.9227 46.3638 37.297 64.5456C37.7518 64.9496 38.2825 65.1517 38.8889 65.1517C39.0911 65.1517 39.3438 65.1138 39.647 65.038C39.9502 64.9623 40.2282 64.7981 40.4809 64.5456C58.3713 45.2022 67.4428 35.4294 67.6955 35.2274C71.1826 31.6921 72.9262 27.4749 72.9262 22.5759C72.9262 17.6769 71.1826 13.485 67.6955 10.0002C64.2589 6.56581 60.2917 4.84863 55.7939 4.84863C55.2379 4.84863 54.6188 4.92439 53.9366 5.07591C53.2543 5.22742 52.5594 5.46732 51.8519 5.7956C51.1444 6.12389 50.3989 6.5153 49.6156 6.96985C48.8323 7.42439 48.0363 7.95469 47.2277 8.56075C46.4191 9.16682 45.5978 9.82338 44.764 10.5305C43.9301 11.2375 43.1341 11.9951 42.376 12.8032L38.9647 16.288L35.4776 12.8789Z" fill="url(#paint0_linear)"/>
<defs>
<linearGradient id="paint0_linear" x1="29.2465" y1="-37.5536" x2="-34.9656" y2="50.5289" gradientUnits="userSpaceOnUse">
<stop stop-color="#9EFBD3"/>
<stop offset="0.478729" stop-color="#57E9F2"/>
<stop offset="1" stop-color="#45D4FB"/>
</linearGradient>
</defs>
</svg>
