<svg width="66" height="70" viewBox="0 0 66 70" fill="none" xmlns="http://www.w3.org/2000/svg">
<path d="M31.703 1.29703C31.703 0.58075 32.2838 0 33.0001 0C33.7163 0 34.2971 0.58075 34.2971 1.29703V10.7133C34.2971 11.4296 33.7163 12.0104 33.0001 12.0104C32.9878 12.0104 32.9756 12.0101 32.9635 12.0098L32.9606 12.0097C32.2446 11.9883 31.6815 11.3904 31.703 10.6744V1.29703Z" fill="url(#paint0_linear)"/>
<path d="M18.4994 15.7069L11.8716 9.07919C11.3275 8.61322 10.5088 8.67661 10.0428 9.22073C9.62695 9.7063 9.62695 10.4224 10.0428 10.908L16.6707 17.5357C17.2147 18.0017 18.0334 17.9383 18.4994 17.3942C18.9153 16.9086 18.9153 16.1925 18.4994 15.7069Z" fill="url(#paint1_linear)"/>
<path d="M55.8157 9.07919C55.3301 8.66333 54.614 8.66333 54.1284 9.07919L47.5007 15.7069C46.9921 16.2113 46.9886 17.0327 47.493 17.5413C47.7384 17.7887 48.073 17.9269 48.4216 17.9248L48.4086 17.9119C48.7533 17.9138 49.0847 17.7784 49.3295 17.5357L55.9573 10.908C56.4232 10.3639 56.3599 9.54514 55.8157 9.07919Z" fill="url(#paint2_linear)"/>
<path d="M33.5188 19.6759C32.8025 19.6759 32.2217 20.2566 32.2217 20.9729C32.2217 21.6891 32.8025 22.2699 33.5188 22.2699C38.9097 22.277 43.2781 26.6455 43.2853 32.0364C43.2853 32.7527 43.866 33.3334 44.5823 33.3334C45.2986 33.3334 45.8793 32.7527 45.8793 32.0364C45.8722 25.2128 40.3423 19.683 33.5188 19.6759Z" fill="url(#paint3_linear)"/>
<path fill-rule="evenodd" clip-rule="evenodd" d="M33 13.8002C22.8956 13.8073 14.7062 21.9967 14.6991 32.1011C14.7894 38.6967 17.9985 44.8598 23.3502 48.7159V61.9325C23.3546 62.0836 23.3853 62.2329 23.441 62.3735V62.4772C23.4492 62.4969 23.458 62.5165 23.4673 62.5358C23.4832 62.5688 23.5004 62.6013 23.5188 62.6329L28.0844 69.4292C28.3259 69.7867 28.7294 70.0006 29.1609 69.9999H36.7095C37.1409 70.0006 37.5444 69.7867 37.786 69.4292L42.3514 62.6329C42.3809 62.5828 42.407 62.5307 42.4293 62.4772V62.3735C42.4851 62.2329 42.5157 62.0836 42.5201 61.9325V48.7159C47.8719 44.8598 51.0809 38.6967 51.1711 32.1011C51.1644 22.0471 43.0537 13.8785 33 13.8002ZM29.9131 67.4448L27.0856 63.2425H38.9014L36.0869 67.4448H29.9131ZM25.9572 60.6484V57.2113H40.0428L40.0558 60.6484H25.9572ZM40.6394 46.939V46.9779C40.2732 47.219 40.0537 47.6288 40.0558 48.0674V54.6562H25.9572V47.9895C25.9594 47.551 25.7397 47.1411 25.3735 46.9001C20.408 43.5818 17.3915 38.0338 17.3062 32.0622C17.5553 23.3911 24.7866 16.5638 33.4576 16.813C41.7786 17.0521 48.4678 23.7413 48.7069 32.0622C48.6343 38.0477 45.6162 43.6129 40.6394 46.939Z" fill="url(#paint4_linear)"/>
<path d="M1.8717 30.7392H11.2102C11.9265 30.7392 12.5072 31.32 12.5072 32.0363C12.5072 32.7525 11.9265 33.3333 11.2102 33.3333H1.8717C1.1554 33.3333 0.574707 32.7525 0.574707 32.0363C0.574707 31.32 1.1554 30.7392 1.8717 30.7392Z" fill="url(#paint5_linear)"/>
<path d="M64.1284 30.7392H54.7899C54.0736 30.7392 53.4928 31.32 53.4928 32.0363C53.4928 32.7525 54.0736 33.3333 54.7899 33.3333H64.1284C64.8446 33.3333 65.4254 32.7525 65.4254 32.0363C65.4254 31.32 64.8446 30.7392 64.1284 30.7392Z" fill="url(#paint6_linear)"/>
<path d="M16.8121 46.4084C17.3563 45.9424 18.175 46.0058 18.641 46.5499C19.1069 47.094 19.0436 47.9128 18.4994 48.3787L11.8717 55.0065C11.8282 55.0572 11.7809 55.1046 11.7301 55.148C11.186 55.614 10.3673 55.5506 9.90137 55.0065C9.43542 54.4624 9.49878 53.6436 10.0428 53.1777L16.6707 46.524V46.5499C16.7141 46.4992 16.7615 46.4518 16.8121 46.4084Z" fill="url(#paint7_linear)"/>
<path d="M55.9573 53.1778C56.0551 53.2521 56.1416 53.3399 56.2146 53.4387C56.6403 54.0147 56.5186 54.827 55.9425 55.2527C55.3665 55.6785 54.5542 55.5567 54.1284 54.9807L47.5007 48.3529C47.4725 48.3288 47.4454 48.3035 47.4194 48.277C47.4092 48.2667 47.3992 48.2561 47.3893 48.2454C47.379 48.2342 47.369 48.2229 47.3591 48.2114C46.8932 47.6673 46.9567 46.8485 47.5007 46.3826C48.0448 45.9166 48.8635 45.98 49.3295 46.5241L55.9573 53.1778Z" fill="url(#paint8_linear)"/>
<defs>
<linearGradient id="paint0_linear" x1="-14.8988" y1="35" x2="123.476" y2="35" gradientUnits="userSpaceOnUse">
<stop stop-color="#53E4F4"/>
<stop offset="1" stop-color="#8CF7DB"/>
</linearGradient>
<linearGradient id="paint1_linear" x1="-14.8988" y1="35" x2="123.476" y2="35" gradientUnits="userSpaceOnUse">
<stop stop-color="#53E4F4"/>
<stop offset="1" stop-color="#8CF7DB"/>
</linearGradient>
<linearGradient id="paint2_linear" x1="-14.8988" y1="35" x2="123.476" y2="35" gradientUnits="userSpaceOnUse">
<stop stop-color="#53E4F4"/>
<stop offset="1" stop-color="#8CF7DB"/>
</linearGradient>
<linearGradient id="paint3_linear" x1="-14.8988" y1="35" x2="123.476" y2="35" gradientUnits="userSpaceOnUse">
<stop stop-color="#53E4F4"/>
<stop offset="1" stop-color="#8CF7DB"/>
</linearGradient>
<linearGradient id="paint4_linear" x1="-14.8988" y1="35" x2="123.476" y2="35" gradientUnits="userSpaceOnUse">
<stop stop-color="#53E4F4"/>
<stop offset="1" stop-color="#8CF7DB"/>
</linearGradient>
<linearGradient id="paint5_linear" x1="-14.8988" y1="35" x2="123.476" y2="35" gradientUnits="userSpaceOnUse">
<stop stop-color="#53E4F4"/>
<stop offset="1" stop-color="#8CF7DB"/>
</linearGradient>
<linearGradient id="paint6_linear" x1="-14.8988" y1="35" x2="123.476" y2="35" gradientUnits="userSpaceOnUse">
<stop stop-color="#53E4F4"/>
<stop offset="1" stop-color="#8CF7DB"/>
</linearGradient>
<linearGradient id="paint7_linear" x1="-14.8988" y1="35" x2="123.476" y2="35" gradientUnits="userSpaceOnUse">
<stop stop-color="#53E4F4"/>
<stop offset="1" stop-color="#8CF7DB"/>
</linearGradient>
<linearGradient id="paint8_linear" x1="-14.8988" y1="35" x2="123.476" y2="35" gradientUnits="userSpaceOnUse">
<stop stop-color="#53E4F4"/>
<stop offset="1" stop-color="#8CF7DB"/>
</linearGradient>
</defs>
</svg>
