<svg width="70" height="70" viewBox="0 0 70 70" fill="none" xmlns="http://www.w3.org/2000/svg">
<path fill-rule="evenodd" clip-rule="evenodd" d="M60.0195 27.1387L65.625 28.3691C66.1719 28.4603 66.696 28.6426 67.1973 28.916C69.0658 29.873 70 31.2402 70 33.0176V37.3926C70 38.4863 69.5671 39.4206 68.7012 40.1953C67.8353 40.9701 66.8099 41.4941 65.625 41.7676L59.9512 43.1348C59.541 44.4108 59.0169 45.6641 58.3789 46.8945L61.3867 51.9531C62.0247 53.0013 62.3779 54.0495 62.4463 55.0977C62.5146 56.1458 62.1615 57.1712 61.3867 58.1738L58.3105 61.25C57.3991 62.0703 56.3509 62.4691 55.166 62.4463C53.9811 62.4235 52.9102 62.0931 51.9531 61.4551L47.0312 58.3105C45.7552 58.9941 44.4336 59.541 43.0664 59.9512L41.8359 65.625C41.6992 66.3542 41.4258 67.0492 41.0156 67.71C40.6055 68.3708 40.0586 68.9176 39.375 69.3506C38.6914 69.7835 37.9622 70 37.1875 70H32.8125C31.7188 70 30.7845 69.5671 30.0098 68.7012C29.235 67.8353 28.7109 66.8099 28.4375 65.625L27.0703 60.0195C26.7969 59.9284 26.512 59.8258 26.2158 59.7119L25.3271 59.3701L24.4385 59.0283C24.1423 58.9144 23.8574 58.7891 23.584 58.6523L22.7637 58.2422L17.7051 61.4551C16.7936 62.0931 15.7454 62.4235 14.5605 62.4463C13.3757 62.4691 12.3275 62.0703 11.416 61.25L8.27148 58.1738C7.49675 57.1712 7.14355 56.1458 7.21191 55.0977C7.28027 54.0495 7.63346 53.0013 8.27148 51.9531L11.4844 46.6211C10.8919 45.4362 10.4134 44.2741 10.0488 43.1348L4.375 41.7676C3.1901 41.4941 2.16471 40.9701 1.29883 40.1953C0.432944 39.4206 0 38.4863 0 37.3926V33.0176C0 31.8327 0.444336 30.8187 1.33301 29.9756C2.22168 29.1325 3.23568 28.597 4.375 28.3691L9.98047 27.1387C10.3451 25.9538 10.8464 24.7005 11.4844 23.3789L8.27148 18.0469C7.63346 16.9987 7.28027 15.9505 7.21191 14.9023C7.14355 13.8542 7.49675 12.8288 8.27148 11.8262L11.416 8.75C11.9629 8.20312 12.6237 7.84994 13.3984 7.69043C14.1732 7.53092 14.9365 7.53092 15.6885 7.69043C16.4404 7.84994 17.1126 8.13477 17.7051 8.54492L22.7637 11.7578C23.4473 11.3932 24.1423 11.0628 24.8486 10.7666C25.555 10.4704 26.2728 10.2083 27.002 9.98047L28.4375 4.375C28.7109 3.19011 29.2236 2.16471 29.9756 1.29883C30.7275 0.432944 31.6732 0 32.8125 0H37.1875C38.3268 0 39.3294 0.444336 40.1953 1.33301C41.0612 2.22168 41.6081 3.21289 41.8359 4.30664L43.0664 10.0488C43.2487 10.0944 43.4424 10.1514 43.6475 10.2197C43.8525 10.2881 44.0462 10.3564 44.2285 10.4248C44.4108 10.4932 44.6045 10.5729 44.8096 10.6641C45.0146 10.7552 45.2083 10.835 45.3906 10.9033C45.5729 10.9717 45.7552 11.0514 45.9375 11.1426L46.4844 11.416L47.0312 11.6895L51.9531 8.54492C52.4089 8.27149 52.9102 8.04362 53.457 7.86133C54.0039 7.67904 54.5622 7.5765 55.1318 7.55371C55.7015 7.53092 56.2712 7.62207 56.8408 7.82715C57.4105 8.03223 57.9004 8.33984 58.3105 8.75L61.3867 11.8262C61.9336 12.373 62.2754 13.0339 62.4121 13.8086C62.5488 14.5833 62.5146 15.3239 62.3096 16.0303C62.1045 16.7367 61.7969 17.4089 61.3867 18.0469L58.3789 23.1055C59.0625 24.4727 59.6094 25.8171 60.0195 27.1387ZM65.4199 37.1875C65.5111 37.1419 65.5794 37.0964 65.625 37.0508L65.6934 33.1543C65.5566 32.9264 65.2376 32.7669 64.7363 32.6758L56.6016 30.8301L55.8496 28.4375C55.7129 27.8906 55.5306 27.3438 55.3027 26.7969C55.0749 26.25 54.8014 25.6803 54.4824 25.0879L53.3887 22.9004L57.6953 15.7227C57.832 15.5404 57.9232 15.3581 57.9688 15.1758C58.0143 14.9935 58.0599 14.8568 58.1055 14.7656L55.2344 11.9629C54.9609 11.9629 54.6647 12.054 54.3457 12.2363L47.3047 16.748L45.0488 15.5859C43.9551 15.0391 42.8385 14.5833 41.6992 14.2188L39.3066 13.3984L37.5293 5.12695C37.4837 5.08138 37.4495 5.01302 37.4268 4.92188C37.404 4.83073 37.3812 4.76237 37.3584 4.7168C37.3356 4.67122 37.3014 4.62565 37.2559 4.58008L37.1875 4.375H33.1543C32.9264 4.64844 32.7669 5.01302 32.6758 5.46875L30.6934 13.3984L28.3691 14.1504C27.1387 14.5605 25.9538 15.0618 24.8145 15.6543L22.5586 16.8164L15.2441 12.168L14.4922 11.8262L11.6211 14.6973C11.6211 14.834 11.6667 15.0049 11.7578 15.21C11.849 15.415 11.9401 15.6087 12.0312 15.791L16.4746 23.1738L15.3809 25.293C14.834 26.4323 14.4238 27.4805 14.1504 28.4375L13.3984 30.8301L5.12695 32.6758C5.03581 32.6758 4.93327 32.71 4.81934 32.7783C4.7054 32.8467 4.61426 32.9036 4.5459 32.9492C4.47754 32.9948 4.42057 33.0176 4.375 33.0176V37.0508C4.64844 37.2331 5.01302 37.3698 5.46875 37.4609L13.4668 39.5117L14.2188 41.8359C14.5378 42.7474 14.9479 43.7044 15.4492 44.707L16.4746 46.8262L12.0312 54.2773C11.8034 54.6419 11.6667 54.9837 11.6211 55.3027L14.4922 58.1055C14.7656 58.1055 15.0618 57.9915 15.3809 57.7637L22.5586 53.1836L24.8145 54.3457C24.9512 54.4368 25.0879 54.5166 25.2246 54.585C25.3613 54.6533 25.4867 54.7103 25.6006 54.7559C25.7145 54.8014 25.8398 54.8584 25.9766 54.9268C26.1133 54.9951 26.25 55.0521 26.3867 55.0977C26.5234 55.1432 26.6602 55.2002 26.7969 55.2686C26.9336 55.3369 27.0703 55.3939 27.207 55.4395L27.6172 55.5762C27.7539 55.6217 27.8792 55.6673 27.9932 55.7129C28.1071 55.7585 28.2324 55.804 28.3691 55.8496L30.6934 56.6016L32.7441 64.668C32.8353 65.0326 32.972 65.3516 33.1543 65.625H37.1191C37.2103 65.5339 37.3014 65.4085 37.3926 65.249C37.4837 65.0895 37.5521 64.9186 37.5977 64.7363L39.375 56.6016L41.7676 55.7812C42.1322 55.6901 42.4967 55.5648 42.8613 55.4053L43.9551 54.9268C44.3197 54.7673 44.6842 54.5964 45.0488 54.4141L47.3047 53.252L54.4824 57.832C54.528 57.8776 54.6191 57.9346 54.7559 58.0029C54.8926 58.0713 55.0521 58.1283 55.2344 58.1738L58.1055 55.3027C58.0599 54.9837 57.9232 54.6191 57.6953 54.209L53.3887 47.0996L54.4824 44.9121C54.7559 44.4108 54.9951 43.8981 55.2002 43.374C55.4053 42.8499 55.599 42.3145 55.7812 41.7676L56.5332 39.5117L64.668 37.4609L65.0781 37.3242C65.2148 37.2786 65.3288 37.2331 65.4199 37.1875ZM44.3311 25.7031C41.7562 23.151 38.6572 21.875 35.0342 21.875C31.4111 21.875 28.3122 23.151 25.7373 25.7031C23.1624 28.2552 21.875 31.3542 21.875 35C21.875 38.6458 23.1624 41.7448 25.7373 44.2969C28.3122 46.849 31.3997 48.125 35 48.125C36.8229 48.125 38.5433 47.7832 40.1611 47.0996C41.779 46.416 43.1803 45.4818 44.3652 44.2969C45.5501 43.112 46.4844 41.7106 47.168 40.0928C47.8516 38.4749 48.1934 36.7773 48.1934 35C48.1934 31.3542 46.9059 28.2552 44.3311 25.7031ZM35 43.75C37.4154 43.75 39.4775 42.8955 41.1865 41.1865C42.8955 39.4775 43.75 37.4154 43.75 35C43.75 32.5846 42.8955 30.5225 41.1865 28.8135C39.4775 27.1045 37.4154 26.25 35 26.25C32.5846 26.25 30.5225 27.1045 28.8135 28.8135C27.1045 30.5225 26.25 32.5846 26.25 35C26.25 37.4154 27.1045 39.4775 28.8135 41.1865C30.5225 42.8955 32.5846 43.75 35 43.75Z" fill="url(#paint0_linear)"/>
<defs>
<linearGradient id="paint0_linear" x1="34.0598" y1="-30.0361" x2="-31.9165" y2="35.9402" gradientUnits="userSpaceOnUse">
<stop stop-color="#9EFBD3"/>
<stop offset="0.478729" stop-color="#57E9F2"/>
<stop offset="1" stop-color="#45D4FB"/>
</linearGradient>
</defs>
</svg>
