<svg width="25" height="25" viewBox="0 0 25 25" fill="none" xmlns="http://www.w3.org/2000/svg">
<path fill-rule="evenodd" clip-rule="evenodd" d="M24.9996 12.5003C24.9996 19.4037 19.4032 25 12.4998 25C5.59634 25 0 19.4037 0 12.5003C0 5.59683 5.59634 0.000488281 12.4998 0.000488281C19.4032 0.000488281 24.9996 5.59683 24.9996 12.5003ZM11.9292 16.0805C12.3985 16.406 12.7992 16.6839 13.5087 16.7387C16.9954 17.0079 18.9428 13.2587 18.4676 9.79678C18.0451 6.72943 14.9844 5.16702 11.7235 5.532C9.14499 5.82077 6.57431 7.90748 6.46713 10.8877C6.40073 12.7084 6.91723 14.074 8.64877 14.4575C9.14145 13.5879 8.8838 13.1632 8.60446 12.7028C8.45793 12.4612 8.30543 12.2099 8.25215 11.8793C7.61644 7.94915 12.7861 5.26617 15.4916 8.01154C17.3642 9.91309 16.1315 15.7592 13.1121 15.1523C11.605 14.8493 12.053 13.4405 12.5011 12.0313C12.913 10.7361 13.3249 9.44063 12.219 9.00331C10.3429 8.26065 9.34642 11.2745 10.2359 12.7719C10.0985 13.4501 9.91928 14.118 9.73819 14.793C9.23172 16.6808 8.71041 18.6238 9.04606 21.0031C10.5205 19.9329 11.0182 17.8843 11.4256 15.7472C11.6102 15.8593 11.7735 15.9725 11.9292 16.0805Z" fill="white"/>
</svg>
