<svg width="25" height="25" viewBox="0 0 25 25" fill="none" xmlns="http://www.w3.org/2000/svg">
<path fill-rule="evenodd" clip-rule="evenodd" d="M0 12.5C0 5.59672 5.59672 0 12.5 0C19.4033 0 25 5.59672 25 12.5C25 19.4033 19.4033 25 12.5 25C5.59672 25 0 19.4033 0 12.5ZM16.2256 20.0528C18.3176 20.0528 20.0191 18.3513 20.0191 16.2593V8.80813C20.0191 6.71639 18.3176 5.01459 16.2256 5.01459H8.77443C6.68269 5.01459 4.98089 6.71639 4.98089 8.80813V16.2593C4.98089 18.3513 6.68269 20.0528 8.77443 20.0528H16.2256ZM16.2255 6.65125H8.77434C7.58503 6.65125 6.61743 7.61885 6.61743 8.80816V16.2593C6.61743 17.4486 7.58503 18.4165 8.77434 18.4165H16.2255C17.4148 18.4165 18.3827 17.4489 18.3827 16.2593V8.80816C18.3827 7.61885 17.4151 6.65125 16.2255 6.65125ZM12.4999 16.4069C10.3645 16.4069 8.627 14.6695 8.627 12.5337C8.627 10.3983 10.3645 8.66082 12.4999 8.66082C14.6357 8.66082 16.3731 10.3983 16.3731 12.5337C16.3731 14.6692 14.6354 16.4069 12.4999 16.4069ZM16.4976 9.46158C15.9921 9.46158 15.581 9.05047 15.581 8.54523C15.581 8.03998 15.9921 7.62887 16.4976 7.62887C17.0029 7.62887 17.414 8.03998 17.414 8.54523C17.414 9.05047 17.0029 9.46158 16.4976 9.46158ZM12.5 10.2975C11.2672 10.2975 10.2634 11.3007 10.2634 12.5335C10.2634 13.7668 11.2672 14.7703 12.5 14.7703C13.7333 14.7703 14.7363 13.7668 14.7363 12.5335C14.7363 11.301 13.733 10.2975 12.5 10.2975Z" fill="white"/>
</svg>
