<svg width="25" height="25" viewBox="0 0 25 25" fill="none" xmlns="http://www.w3.org/2000/svg">
<path fill-rule="evenodd" clip-rule="evenodd" d="M12.5 25C19.4036 25 25 19.4036 25 12.5C25 5.59644 19.4036 0 12.5 0C5.59644 0 0 5.59644 0 12.5C0 19.4036 5.59644 25 12.5 25ZM6.58963 8.95414C6.72714 9.07903 6.79733 9.26242 6.77872 9.44797V16.1287C6.81952 16.3697 6.74411 16.6159 6.57562 16.7919L5 18.7178V18.9718H9.46777V18.7178L7.89215 16.7919C7.72244 16.6162 7.64236 16.3717 7.67508 16.1287V10.351L11.5966 18.9718H12.0518L15.4202 10.351V17.2222C15.4202 17.4056 15.4202 17.4409 15.3011 17.5608L14.0896 18.746V19H19.972V18.746L18.8025 17.5891C18.6993 17.5098 18.6481 17.3794 18.6695 17.2504V8.74956C18.6481 8.62056 18.6993 8.49023 18.8025 8.41093L20 7.25397V7H15.8543L12.8992 14.4286L9.53781 7H5.18909V7.25397L6.58963 8.95414Z" fill="white"/>
</svg>
