<svg width="25" height="25" viewBox="0 0 25 25" fill="none" xmlns="http://www.w3.org/2000/svg">
<path fill-rule="evenodd" clip-rule="evenodd" d="M25 12.5C25 19.4036 19.4036 25 12.5 25C5.59644 25 1.1381e-07 19.4036 1.13809e-07 12.5C1.13811e-07 5.59644 5.59644 -1.21838e-07 12.5 -1.21837e-07C19.4036 -1.21838e-07 25 5.59644 25 12.5ZM11.4074 16.2422C11.5599 16.0891 11.7128 15.9357 11.8661 15.7814C11.8843 15.7946 11.9019 15.8072 11.919 15.8194C11.9473 15.8397 11.9744 15.859 12.0007 15.8788C12.2816 16.0931 12.5623 16.3076 12.8431 16.522C13.4491 16.9848 14.0551 17.4477 14.6615 17.9095C15.1914 18.3132 15.6435 18.1395 15.7806 17.4743C16.358 14.6727 16.9329 11.8703 17.5073 9.06824C17.5243 8.98529 17.5422 8.90241 17.5602 8.8195C17.6191 8.54769 17.678 8.27562 17.7036 8.00019C17.7559 7.43817 17.3693 7.1553 16.8663 7.35617C15.6349 7.84734 14.4037 8.33833 13.1724 8.82931C11.7586 9.39309 10.3448 9.95686 8.93096 10.5209C8.70629 10.6104 8.48154 10.6997 8.25678 10.789C7.43891 11.1141 6.62098 11.4391 5.80644 11.7726C5.6278 11.8458 5.4558 11.9606 5.31173 12.0924C5.15576 12.2352 5.1812 12.4338 5.35514 12.5555C5.46769 12.6347 5.59904 12.6907 5.72929 12.7335C6.57575 13.0115 7.42359 13.2858 8.2731 13.5538C8.38316 13.589 8.43459 13.6436 8.46943 13.7559C8.67696 14.4256 8.8869 15.094 9.09683 15.7624C9.24971 16.2491 9.40259 16.7359 9.55454 17.2231C9.60404 17.3811 9.69419 17.4543 9.85541 17.4631C10.0916 17.476 10.2766 17.3834 10.4411 17.216C10.7612 16.8909 11.0833 16.5675 11.4074 16.2422ZM9.89199 16.6272C9.88606 16.6289 9.88014 16.6306 9.87421 16.6323L9.32087 14.8808C9.28411 14.7643 9.2477 14.6478 9.2113 14.5313C9.11051 14.2088 9.0098 13.8865 8.90193 13.5664C8.85907 13.4387 8.88008 13.3767 8.99263 13.3036C10.3272 12.4373 11.6605 11.5689 12.9937 10.7005C13.6501 10.273 14.3064 9.84551 14.9629 9.41825C15.0564 9.35739 15.1557 9.29453 15.2605 9.26653C15.313 9.25247 15.3721 9.26444 15.4312 9.27644C15.4585 9.28199 15.4859 9.28755 15.5127 9.29053C15.5007 9.31318 15.4902 9.33746 15.4796 9.36173C15.4567 9.41463 15.4338 9.46746 15.3957 9.50311C14.6117 10.2394 13.8249 10.9724 13.038 11.7056C12.9231 11.8126 12.8083 11.9196 12.6934 12.0266C12.4851 12.2207 12.2769 12.4148 12.0688 12.609C11.4627 13.1742 10.8566 13.7394 10.2478 14.3019C10.1447 14.3973 10.0976 14.4979 10.0866 14.6396C10.0487 15.1267 10.0045 15.613 9.96028 16.0991C9.94674 16.2481 9.9332 16.397 9.91984 16.546C9.91831 16.5639 9.91401 16.5818 9.90967 16.5998C9.90773 16.6078 9.90579 16.6159 9.90408 16.624C9.90005 16.625 9.89602 16.6261 9.89199 16.6272Z" fill="white"/>
</svg>
