<svg width="25" height="25" viewBox="0 0 25 25" fill="none" xmlns="http://www.w3.org/2000/svg">
<path fill-rule="evenodd" clip-rule="evenodd" d="M25 12.5C25 19.4036 19.4036 25 12.5 25C5.59644 25 0 19.4036 0 12.5C0 5.59644 5.59644 0 12.5 0C19.4036 0 25 5.59644 25 12.5ZM18.4405 9.45331C19.0448 9.38156 19.621 9.22091 20.1567 8.98338C19.7563 9.58255 19.2498 10.1086 18.6656 10.5298C18.6714 10.6577 18.6742 10.7867 18.6742 10.9162C18.6742 14.8648 15.6688 19.4176 10.1731 19.4176C8.48583 19.4176 6.91492 18.9231 5.59335 18.0751C5.82664 18.1029 6.06507 18.1169 6.30572 18.1169C7.70595 18.1169 8.99409 17.6394 10.0169 16.8379C8.7091 16.8136 7.6059 15.9498 7.22576 14.763C7.40803 14.7978 7.59498 14.8162 7.78794 14.8162C8.06001 14.8162 8.32451 14.7799 8.57496 14.7113C7.20838 14.437 6.17804 13.2295 6.17804 11.7818C6.17804 11.7693 6.17804 11.7566 6.17826 11.7439C6.58091 11.9683 7.04193 12.1027 7.53147 12.1181C6.7302 11.5824 6.20233 10.6675 6.20233 9.63113C6.20233 9.08365 6.34984 8.57004 6.60698 8.12884C8.08074 9.93706 10.2825 11.1265 12.7656 11.2511C12.7144 11.0322 12.6879 10.8043 12.6879 10.5701C12.6879 8.92032 14.0259 7.58226 15.6757 7.58226C16.5356 7.58226 17.3121 7.94502 17.8572 8.52547C18.5374 8.39155 19.1772 8.14311 19.7545 7.80062C19.531 8.49873 19.0575 9.08365 18.4405 9.45331Z" fill="white"/>
</svg>
