<svg width="25" height="25" viewBox="0 0 25 25" fill="none" xmlns="http://www.w3.org/2000/svg">
<path d="M8.85078 9.63592C8.86308 9.30793 8.58657 9.01245 8.25813 9.00258C7.92186 8.99243 7.64529 9.25655 7.63547 9.59713C7.62554 9.9423 7.8824 10.2189 8.22111 10.2277C8.55688 10.2365 8.83836 9.97201 8.85078 9.63592Z" fill="white"/>
<path d="M12.0591 9.00235C11.7294 9.00859 11.4509 9.29716 11.4567 9.62645C11.4627 9.96776 11.736 10.2348 12.075 10.2306C12.4148 10.2264 12.6726 9.95653 12.6694 9.60802C12.6666 9.26591 12.3945 8.99606 12.0591 9.00235Z" fill="white"/>
<path d="M14.0122 13.7531C14.0015 14.0247 13.7688 14.2399 13.4862 14.2396C13.2056 14.2393 12.9712 14.0203 12.9616 13.7497C12.9514 13.4664 13.1969 13.2219 13.4899 13.2232C13.7858 13.2244 14.0235 13.4655 14.0122 13.7531Z" fill="white"/>
<path d="M16.2255 13.7104C16.2367 13.4409 16.4697 13.2224 16.7439 13.2243C17.0358 13.2263 17.2662 13.4649 17.2552 13.7538C17.2449 14.0284 17.0208 14.2371 16.7372 14.2362C16.4439 14.2354 16.2136 13.9987 16.2255 13.7104Z" fill="white"/>
<path fill-rule="evenodd" clip-rule="evenodd" d="M25 12.5C25 19.4036 19.4036 25 12.5 25C5.59644 25 0 19.4036 0 12.5C0 5.59644 5.59644 0 12.5 0C19.4036 0 25 5.59644 25 12.5ZM15 10.1947C13.6639 10.2664 12.5021 10.6827 11.5588 11.6232C10.6058 12.5734 10.1707 13.7378 10.2896 15.1812C10.1396 15.1621 9.99335 15.1424 9.84981 15.1232C9.49382 15.0753 9.15427 15.0297 8.81337 15.0002C8.64815 14.9859 8.4521 15.0062 8.31216 15.0873C7.9803 15.2798 7.65825 15.49 7.30892 15.718C7.16932 15.8091 7.02521 15.9032 6.87452 16C6.90451 15.8606 6.93122 15.7265 6.95711 15.5967C7.01482 15.3071 7.06841 15.0381 7.14502 14.7764C7.22663 14.4977 7.18883 14.3426 6.93903 14.1611C5.33513 12.9972 4.65905 11.2554 5.16501 9.4622C5.63311 7.80328 6.78264 6.7972 8.3446 6.27276C10.4765 5.55701 12.8724 6.28711 14.1688 8.02679C14.637 8.6552 14.9241 9.36051 15 10.1947ZM18.1376 18.8046C18.2694 18.8722 18.4028 18.9407 18.5397 19C18.5301 18.9629 18.523 18.9257 18.516 18.8894C18.5015 18.8134 18.4876 18.7409 18.453 18.6795C18.1757 18.1876 18.3312 17.8806 18.7634 17.5075C20.257 16.2183 20.4008 14.1811 19.1773 12.6465C17.7753 10.8878 14.8591 10.4653 12.8706 11.7328C10.6332 13.1589 10.3569 15.8272 12.2907 17.5675C13.3075 18.4823 14.5407 18.8556 15.9171 18.7185C16.1036 18.7 16.2905 18.6478 16.476 18.596C16.74 18.5223 17.0013 18.4493 17.2549 18.4751C17.5548 18.5055 17.8421 18.6529 18.1376 18.8046Z" fill="white"/>
</svg>
