<svg width="25" height="25" viewBox="0 0 25 25" fill="none" xmlns="http://www.w3.org/2000/svg">
<path fill-rule="evenodd" clip-rule="evenodd" d="M12.5 25C19.4036 25 25 19.4036 25 12.5C25 5.59644 19.4036 0 12.5 0C5.59644 0 0 5.59644 0 12.5C0 19.4036 5.59644 25 12.5 25ZM19.749 8.09124C19.3192 7.32461 18.8526 7.18376 17.9031 7.13007C16.9543 7.06549 14.5686 7.0387 12.5021 7.0387C10.4313 7.0387 8.04464 7.06549 7.09682 7.12898C6.14927 7.18376 5.68174 7.32368 5.24814 8.09124C4.80534 8.8569 4.57764 10.1756 4.57764 12.4972V12.5052C4.57764 14.8166 4.80534 16.1452 5.24814 16.9028C5.68174 17.6695 6.14818 17.8085 7.09603 17.8729C8.04464 17.9287 10.4313 17.9615 12.5021 17.9615C14.5686 17.9615 16.9543 17.9287 17.904 17.874C18.8537 17.8096 19.32 17.6704 19.7499 16.9039C20.1964 16.1462 20.4224 14.8177 20.4224 12.506V12.4981C20.4224 10.1756 20.1965 8.8569 19.749 8.09124ZM10.5193 15.479V9.52112L15.4706 12.5L10.5193 15.479Z" fill="white"/>
</svg>
