<svg width="100" height="100" viewBox="0 0 100 100" fill="none" xmlns="http://www.w3.org/2000/svg">
<path fill-rule="evenodd" clip-rule="evenodd" d="M33.3332 61.6667C33.3332 66.2617 29.5948 70 24.9998 70C20.4048 70 16.6665 66.2617 16.6665 61.6667C16.6665 57.6417 19.5348 54.2767 23.3332 53.5017V46.6667H48.3332V38.3333H43.3332V25H56.6665V38.3333H51.6665V46.6667H76.6665V53.5017C80.4648 54.2767 83.3332 57.6433 83.3332 61.6667C83.3332 66.2617 79.5948 70 74.9998 70C70.4048 70 66.6665 66.2617 66.6665 61.6667C66.6665 57.6417 69.5348 54.2767 73.3332 53.5017V50H51.6665V53.5017C55.4648 54.2767 58.3332 57.6433 58.3332 61.6667C58.3332 66.2617 54.5948 70 49.9998 70C45.4048 70 41.6665 66.2617 41.6665 61.6667C41.6665 57.6417 44.5348 54.2767 48.3332 53.5017V50H26.6665V53.5017C30.4648 54.2767 33.3332 57.6433 33.3332 61.6667ZM49.9998 66.6667C52.7565 66.6667 54.9998 64.4233 54.9998 61.6667C54.9998 58.91 52.7565 56.6667 49.9998 56.6667C47.2432 56.6667 44.9998 58.91 44.9998 61.6667C44.9998 64.4233 47.2432 66.6667 49.9998 66.6667ZM74.9998 66.6667C77.7565 66.6667 79.9998 64.4233 79.9998 61.6667C79.9998 58.91 77.7565 56.6667 74.9998 56.6667C72.2432 56.6667 69.9998 58.91 69.9998 61.6667C69.9998 64.4233 72.2432 66.6667 74.9998 66.6667ZM53.3332 28.3333H46.6665V35H53.3332V28.3333ZM29.9998 61.6667C29.9998 58.91 27.7565 56.6667 24.9998 56.6667C22.2432 56.6667 19.9998 58.91 19.9998 61.6667C19.9998 64.4233 22.2432 66.6667 24.9998 66.6667C27.7565 66.6667 29.9998 64.4233 29.9998 61.6667Z" fill="url(#paint0_linear)"/>
<path fill-rule="evenodd" clip-rule="evenodd" d="M100 0V13.3333H96.6667V80H98.3333C99.255 80 100 80.745 100 81.6667C100 82.5883 99.255 83.3333 98.3333 83.3333H51.6667V86.6667C51.6667 86.7121 51.6549 86.7542 51.643 86.7965C51.6345 86.8271 51.6259 86.8578 51.6217 86.89C54.5133 87.6183 56.6667 90.2183 56.6667 93.3333C56.6667 97.01 53.6767 100 50 100C46.3233 100 43.3333 97.01 43.3333 93.3333C43.3333 90.2183 45.4867 87.6183 48.3783 86.89C48.3741 86.8578 48.3655 86.8271 48.357 86.7965C48.3451 86.7542 48.3333 86.7121 48.3333 86.6667V83.3333H1.66667C0.745 83.3333 0 82.5883 0 81.6667C0 80.745 0.745 80 1.66667 80H3.33333V13.3333H0V0H100ZM50 96.6667C51.8383 96.6667 53.3333 95.1717 53.3333 93.3333C53.3333 91.495 51.8383 90 50 90C48.1617 90 46.6667 91.495 46.6667 93.3333C46.6667 95.1717 48.1617 96.6667 50 96.6667ZM96.6667 3.33333H3.33333V10H96.6667V3.33333ZM6.66667 80H93.3333V13.3333H6.66667V80Z" fill="url(#paint1_linear)"/>
<defs>
<linearGradient id="paint0_linear" x1="-23.8603" y1="50" x2="189.514" y2="50" gradientUnits="userSpaceOnUse">
<stop stop-color="#53E4F4"/>
<stop offset="1" stop-color="#8CF7DB"/>
</linearGradient>
<linearGradient id="paint1_linear" x1="-23.8603" y1="50" x2="189.514" y2="50" gradientUnits="userSpaceOnUse">
<stop stop-color="#53E4F4"/>
<stop offset="1" stop-color="#8CF7DB"/>
</linearGradient>
</defs>
</svg>
