<svg width="100" height="100" viewBox="0 0 100 100" fill="none" xmlns="http://www.w3.org/2000/svg">
<path fill-rule="evenodd" clip-rule="evenodd" d="M48.277 0L46.4991 0.11986C20.4245 1.89945 0 23.7773 0 49.9317C0 61.9827 4.36324 73.6258 12.2857 82.7185L13.4576 84.0636L48.277 49.2426V0ZM44.9476 47.8642L13.6491 79.1627C6.98186 70.8923 3.32945 60.5827 3.32945 49.9317C3.32945 26.1212 21.4683 6.10454 44.9476 3.59747V47.8642Z" fill="url(#paint0_linear)"/>
<path d="M60.0565 6.64886C60.0565 7.56826 59.3112 8.31358 58.3918 8.31358C57.4724 8.31358 56.7271 7.56826 56.7271 6.64886C56.7271 5.72945 57.4724 4.98413 58.3918 4.98413C59.3112 4.98413 60.0565 5.72945 60.0565 6.64886Z" fill="url(#paint1_linear)"/>
<path d="M58.3918 18.3019C59.3112 18.3019 60.0565 17.5565 60.0565 16.6371C60.0565 15.7177 59.3112 14.9724 58.3918 14.9724C57.4724 14.9724 56.7271 15.7177 56.7271 16.6371C56.7271 17.5565 57.4724 18.3019 58.3918 18.3019Z" fill="url(#paint2_linear)"/>
<path d="M65.0511 11.643C65.0511 12.5624 64.3058 13.3077 63.3864 13.3077C62.467 13.3077 61.7217 12.5624 61.7217 11.643C61.7217 10.7236 62.467 9.97827 63.3864 9.97827C64.3058 9.97827 65.0511 10.7236 65.0511 11.643Z" fill="url(#paint3_linear)"/>
<path d="M70.0453 16.6371C70.0453 17.5565 69.2999 18.3019 68.3805 18.3019C67.4611 18.3019 66.7158 17.5565 66.7158 16.6371C66.7158 15.7177 67.4611 14.9724 68.3805 14.9724C69.2999 14.9724 70.0453 15.7177 70.0453 16.6371Z" fill="url(#paint4_linear)"/>
<path d="M78.3688 18.3019C79.2882 18.3019 80.0336 17.5565 80.0336 16.6371C80.0336 15.7177 79.2882 14.9724 78.3688 14.9724C77.4494 14.9724 76.7041 15.7177 76.7041 16.6371C76.7041 17.5565 77.4494 18.3019 78.3688 18.3019Z" fill="url(#paint5_linear)"/>
<path d="M85.0277 21.6313C85.0277 22.5507 84.2824 23.296 83.363 23.296C82.4436 23.296 81.6982 22.5507 81.6982 21.6313C81.6982 20.7119 82.4436 19.9666 83.363 19.9666C84.2824 19.9666 85.0277 20.7119 85.0277 21.6313Z" fill="url(#paint6_linear)"/>
<path d="M63.3864 23.296C64.3058 23.296 65.0511 22.5507 65.0511 21.6313C65.0511 20.7119 64.3058 19.9666 63.3864 19.9666C62.467 19.9666 61.7217 20.7119 61.7217 21.6313C61.7217 22.5507 62.467 23.296 63.3864 23.296Z" fill="url(#paint7_linear)"/>
<path d="M75.0394 21.6313C75.0394 22.5507 74.2941 23.296 73.3747 23.296C72.4553 23.296 71.71 22.5507 71.71 21.6313C71.71 20.7119 72.4553 19.9666 73.3747 19.9666C74.2941 19.9666 75.0394 20.7119 75.0394 21.6313Z" fill="url(#paint8_linear)"/>
<path d="M83.363 33.2845C84.2824 33.2845 85.0277 32.5392 85.0277 31.6198C85.0277 30.7004 84.2824 29.9551 83.363 29.9551C82.4436 29.9551 81.6982 30.7004 81.6982 31.6198C81.6982 32.5392 82.4436 33.2845 83.363 33.2845Z" fill="url(#paint9_linear)"/>
<path d="M90.0218 36.6139C90.0218 37.5333 89.2765 38.2787 88.3571 38.2787C87.4377 38.2787 86.6924 37.5333 86.6924 36.6139C86.6924 35.6945 87.4377 34.9492 88.3571 34.9492C89.2765 34.9492 90.0218 35.6945 90.0218 36.6139Z" fill="url(#paint10_linear)"/>
<path d="M58.3918 28.2901C59.3112 28.2901 60.0565 27.5448 60.0565 26.6254C60.0565 25.706 59.3112 24.9607 58.3918 24.9607C57.4724 24.9607 56.7271 25.706 56.7271 26.6254C56.7271 27.5448 57.4724 28.2901 58.3918 28.2901Z" fill="url(#paint11_linear)"/>
<path d="M60.0565 36.6139C60.0565 37.5333 59.3112 38.2787 58.3918 38.2787C57.4724 38.2787 56.7271 37.5333 56.7271 36.6139C56.7271 35.6945 57.4724 34.9492 58.3918 34.9492C59.3112 34.9492 60.0565 35.6945 60.0565 36.6139Z" fill="url(#paint12_linear)"/>
<path d="M63.3864 33.2845C64.3058 33.2845 65.0511 32.5392 65.0511 31.6198C65.0511 30.7004 64.3058 29.9551 63.3864 29.9551C62.467 29.9551 61.7217 30.7004 61.7217 31.6198C61.7217 32.5392 62.467 33.2845 63.3864 33.2845Z" fill="url(#paint13_linear)"/>
<path d="M75.0394 31.6198C75.0394 32.5392 74.2941 33.2845 73.3747 33.2845C72.4553 33.2845 71.71 32.5392 71.71 31.6198C71.71 30.7004 72.4553 29.9551 73.3747 29.9551C74.2941 29.9551 75.0394 30.7004 75.0394 31.6198Z" fill="url(#paint14_linear)"/>
<path d="M68.3805 28.2901C69.2999 28.2901 70.0453 27.5448 70.0453 26.6254C70.0453 25.706 69.2999 24.9607 68.3805 24.9607C67.4611 24.9607 66.7158 25.706 66.7158 26.6254C66.7158 27.5448 67.4611 28.2901 68.3805 28.2901Z" fill="url(#paint15_linear)"/>
<path d="M80.0336 26.6254C80.0336 27.5448 79.2882 28.2901 78.3688 28.2901C77.4494 28.2901 76.7041 27.5448 76.7041 26.6254C76.7041 25.706 77.4494 24.9607 78.3688 24.9607C79.2882 24.9607 80.0336 25.706 80.0336 26.6254Z" fill="url(#paint16_linear)"/>
<path d="M68.3805 38.2787C69.2999 38.2787 70.0453 37.5333 70.0453 36.6139C70.0453 35.6945 69.2999 34.9492 68.3805 34.9492C67.4611 34.9492 66.7158 35.6945 66.7158 36.6139C66.7158 37.5333 67.4611 38.2787 68.3805 38.2787Z" fill="url(#paint17_linear)"/>
<path d="M80.0336 36.6139C80.0336 37.5333 79.2882 38.2787 78.3688 38.2787C77.4494 38.2787 76.7041 37.5333 76.7041 36.6139C76.7041 35.6945 77.4494 34.9492 78.3688 34.9492C79.2882 34.9492 80.0336 35.6945 80.0336 36.6139Z" fill="url(#paint18_linear)"/>
<path d="M93.3512 43.2728C94.2707 43.2728 95.016 42.5275 95.016 41.6081C95.016 40.6887 94.2707 39.9434 93.3512 39.9434C92.4318 39.9434 91.6865 40.6887 91.6865 41.6081C91.6865 42.5275 92.4318 43.2728 93.3512 43.2728Z" fill="url(#paint19_linear)"/>
<path d="M85.0277 41.6081C85.0277 42.5275 84.2824 43.2728 83.363 43.2728C82.4436 43.2728 81.6982 42.5275 81.6982 41.6081C81.6982 40.6887 82.4436 39.9434 83.363 39.9434C84.2824 39.9434 85.0277 40.6887 85.0277 41.6081Z" fill="url(#paint20_linear)"/>
<path d="M63.3864 43.2728C64.3058 43.2728 65.0511 42.5275 65.0511 41.6081C65.0511 40.6887 64.3058 39.9434 63.3864 39.9434C62.467 39.9434 61.7217 40.6887 61.7217 41.6081C61.7217 42.5275 62.467 43.2728 63.3864 43.2728Z" fill="url(#paint21_linear)"/>
<path d="M75.0394 41.6081C75.0394 42.5275 74.2941 43.2728 73.3747 43.2728C72.4553 43.2728 71.71 42.5275 71.71 41.6081C71.71 40.6887 72.4553 39.9434 73.3747 39.9434C74.2941 39.9434 75.0394 40.6887 75.0394 41.6081Z" fill="url(#paint22_linear)"/>
<path fill-rule="evenodd" clip-rule="evenodd" d="M99.7519 46.4891C98.0656 21.743 78.1322 1.80789 53.3844 0.11986L51.6064 0V48.267H99.8735L99.7519 46.4891ZM54.9359 44.9376V3.59747C59.0561 4.03862 63.0165 5.02747 66.7504 6.48077C66.7476 6.5059 66.741 6.52947 66.7344 6.55297C66.7258 6.58397 66.7171 6.61482 66.7171 6.64891C66.7171 7.56784 67.4629 8.31363 68.3819 8.31363C68.883 8.31363 69.3175 8.08057 69.6238 7.73098C71.1816 8.46208 72.6924 9.27698 74.1507 10.1698C73.919 10.0475 73.6549 9.97827 73.3747 9.97827C72.4553 9.97827 71.71 10.7236 71.71 11.643C71.71 12.5624 72.4553 13.3077 73.3747 13.3077C74.2941 13.3077 75.0394 12.5624 75.0394 11.643C75.0394 11.0825 74.7623 10.5866 74.3377 10.285C80.4911 14.0925 85.6965 19.2919 89.5206 25.4387C89.2209 25.144 88.8114 24.9609 88.3586 24.9609C87.4396 24.9609 86.6938 25.7067 86.6938 26.6256C86.6938 27.5445 87.4396 28.2903 88.3586 28.2903C89.2775 28.2903 90.0233 27.5445 90.0233 26.6256C90.0233 26.4109 89.975 26.2094 89.9018 26.0213C90.7541 27.4363 91.5149 28.9096 92.2157 30.4162C91.8944 30.7192 91.688 31.1437 91.688 31.6198C91.688 32.5387 92.4338 33.2845 93.3527 33.2845C93.3708 33.2845 93.3875 33.2796 93.4044 33.2747C93.4204 33.27 93.4365 33.2653 93.4543 33.2645C94.8776 36.9569 95.8415 40.8706 96.2777 44.9376H54.9359Z" fill="url(#paint23_linear)"/>
<path fill-rule="evenodd" clip-rule="evenodd" d="M52.1357 51.5964L85.5917 85.0524L86.767 83.7772C94.4547 75.4403 99.1109 64.6429 99.8784 53.3744L99.9999 51.5964H52.1357ZM85.4718 80.2247L60.173 54.9259H96.4008C95.4019 64.2217 91.5714 73.088 85.4718 80.2247Z" fill="url(#paint24_linear)"/>
<path fill-rule="evenodd" clip-rule="evenodd" d="M17.1566 87.5878L15.8115 86.4159L48.9662 53.2612L83.0497 87.3448L81.6331 88.5101C72.7268 95.8366 61.4732 99.8735 49.9417 99.8735C37.8924 99.8735 26.2477 95.5103 17.1566 87.5878ZM50.799 59.8019L48.9662 57.9691L20.7108 86.2261C21.2637 86.6711 21.8384 87.0811 22.4137 87.4916C22.5487 87.5879 22.6836 87.6842 22.8183 87.781L50.799 59.8019ZM31.8711 92.855C32.9931 93.3295 34.1318 93.7623 35.2888 94.1469L60.2164 69.2176L57.8625 66.8637L31.8711 92.855ZM64.9242 73.9271L62.5703 71.5732L38.9445 95.199C40.2414 95.5153 41.5532 95.7733 42.8766 95.9764L64.9242 73.9271ZM25.6517 89.6571C26.6372 90.2597 27.6394 90.8274 28.6649 91.3535L55.5085 64.5114L53.153 62.1558L25.6517 89.6571ZM67.2781 76.281L47.1366 96.4242C47.2263 96.4296 47.316 96.4351 47.4056 96.4406C48.2496 96.4924 49.0929 96.5441 49.9417 96.5441C50.3526 96.5441 50.7613 96.5216 51.1698 96.4991C51.3802 96.4875 51.5906 96.476 51.8012 96.4675L69.6321 78.635L67.2781 76.281ZM74.3416 83.3461L71.986 80.9905L56.9918 95.9864C59.0561 95.6684 61.0854 95.194 63.083 94.6047L74.3416 83.3461ZM76.6972 85.6984L70.8506 91.5449C73.376 90.2747 75.8049 88.7998 78.0755 87.0768L76.6972 85.6984Z" fill="url(#paint25_linear)"/>
<defs>
<linearGradient id="paint0_linear" x1="-23.8602" y1="49.9368" x2="189.513" y2="49.9368" gradientUnits="userSpaceOnUse">
<stop stop-color="#53E4F4"/>
<stop offset="1" stop-color="#8CF7DB"/>
</linearGradient>
<linearGradient id="paint1_linear" x1="-23.8602" y1="49.9368" x2="189.513" y2="49.9368" gradientUnits="userSpaceOnUse">
<stop stop-color="#53E4F4"/>
<stop offset="1" stop-color="#8CF7DB"/>
</linearGradient>
<linearGradient id="paint2_linear" x1="-23.8602" y1="49.9368" x2="189.513" y2="49.9368" gradientUnits="userSpaceOnUse">
<stop stop-color="#53E4F4"/>
<stop offset="1" stop-color="#8CF7DB"/>
</linearGradient>
<linearGradient id="paint3_linear" x1="-23.8602" y1="49.9368" x2="189.513" y2="49.9368" gradientUnits="userSpaceOnUse">
<stop stop-color="#53E4F4"/>
<stop offset="1" stop-color="#8CF7DB"/>
</linearGradient>
<linearGradient id="paint4_linear" x1="-23.8602" y1="49.9368" x2="189.513" y2="49.9368" gradientUnits="userSpaceOnUse">
<stop stop-color="#53E4F4"/>
<stop offset="1" stop-color="#8CF7DB"/>
</linearGradient>
<linearGradient id="paint5_linear" x1="-23.8602" y1="49.9368" x2="189.513" y2="49.9368" gradientUnits="userSpaceOnUse">
<stop stop-color="#53E4F4"/>
<stop offset="1" stop-color="#8CF7DB"/>
</linearGradient>
<linearGradient id="paint6_linear" x1="-23.8602" y1="49.9368" x2="189.513" y2="49.9368" gradientUnits="userSpaceOnUse">
<stop stop-color="#53E4F4"/>
<stop offset="1" stop-color="#8CF7DB"/>
</linearGradient>
<linearGradient id="paint7_linear" x1="-23.8602" y1="49.9368" x2="189.513" y2="49.9368" gradientUnits="userSpaceOnUse">
<stop stop-color="#53E4F4"/>
<stop offset="1" stop-color="#8CF7DB"/>
</linearGradient>
<linearGradient id="paint8_linear" x1="-23.8602" y1="49.9368" x2="189.513" y2="49.9368" gradientUnits="userSpaceOnUse">
<stop stop-color="#53E4F4"/>
<stop offset="1" stop-color="#8CF7DB"/>
</linearGradient>
<linearGradient id="paint9_linear" x1="-23.8602" y1="49.9368" x2="189.513" y2="49.9368" gradientUnits="userSpaceOnUse">
<stop stop-color="#53E4F4"/>
<stop offset="1" stop-color="#8CF7DB"/>
</linearGradient>
<linearGradient id="paint10_linear" x1="-23.8602" y1="49.9368" x2="189.513" y2="49.9368" gradientUnits="userSpaceOnUse">
<stop stop-color="#53E4F4"/>
<stop offset="1" stop-color="#8CF7DB"/>
</linearGradient>
<linearGradient id="paint11_linear" x1="-23.8602" y1="49.9368" x2="189.513" y2="49.9368" gradientUnits="userSpaceOnUse">
<stop stop-color="#53E4F4"/>
<stop offset="1" stop-color="#8CF7DB"/>
</linearGradient>
<linearGradient id="paint12_linear" x1="-23.8602" y1="49.9368" x2="189.513" y2="49.9368" gradientUnits="userSpaceOnUse">
<stop stop-color="#53E4F4"/>
<stop offset="1" stop-color="#8CF7DB"/>
</linearGradient>
<linearGradient id="paint13_linear" x1="-23.8602" y1="49.9368" x2="189.513" y2="49.9368" gradientUnits="userSpaceOnUse">
<stop stop-color="#53E4F4"/>
<stop offset="1" stop-color="#8CF7DB"/>
</linearGradient>
<linearGradient id="paint14_linear" x1="-23.8602" y1="49.9368" x2="189.513" y2="49.9368" gradientUnits="userSpaceOnUse">
<stop stop-color="#53E4F4"/>
<stop offset="1" stop-color="#8CF7DB"/>
</linearGradient>
<linearGradient id="paint15_linear" x1="-23.8602" y1="49.9368" x2="189.513" y2="49.9368" gradientUnits="userSpaceOnUse">
<stop stop-color="#53E4F4"/>
<stop offset="1" stop-color="#8CF7DB"/>
</linearGradient>
<linearGradient id="paint16_linear" x1="-23.8602" y1="49.9368" x2="189.513" y2="49.9368" gradientUnits="userSpaceOnUse">
<stop stop-color="#53E4F4"/>
<stop offset="1" stop-color="#8CF7DB"/>
</linearGradient>
<linearGradient id="paint17_linear" x1="-23.8602" y1="49.9368" x2="189.513" y2="49.9368" gradientUnits="userSpaceOnUse">
<stop stop-color="#53E4F4"/>
<stop offset="1" stop-color="#8CF7DB"/>
</linearGradient>
<linearGradient id="paint18_linear" x1="-23.8602" y1="49.9368" x2="189.513" y2="49.9368" gradientUnits="userSpaceOnUse">
<stop stop-color="#53E4F4"/>
<stop offset="1" stop-color="#8CF7DB"/>
</linearGradient>
<linearGradient id="paint19_linear" x1="-23.8602" y1="49.9368" x2="189.513" y2="49.9368" gradientUnits="userSpaceOnUse">
<stop stop-color="#53E4F4"/>
<stop offset="1" stop-color="#8CF7DB"/>
</linearGradient>
<linearGradient id="paint20_linear" x1="-23.8602" y1="49.9368" x2="189.513" y2="49.9368" gradientUnits="userSpaceOnUse">
<stop stop-color="#53E4F4"/>
<stop offset="1" stop-color="#8CF7DB"/>
</linearGradient>
<linearGradient id="paint21_linear" x1="-23.8602" y1="49.9368" x2="189.513" y2="49.9368" gradientUnits="userSpaceOnUse">
<stop stop-color="#53E4F4"/>
<stop offset="1" stop-color="#8CF7DB"/>
</linearGradient>
<linearGradient id="paint22_linear" x1="-23.8602" y1="49.9368" x2="189.513" y2="49.9368" gradientUnits="userSpaceOnUse">
<stop stop-color="#53E4F4"/>
<stop offset="1" stop-color="#8CF7DB"/>
</linearGradient>
<linearGradient id="paint23_linear" x1="-23.8602" y1="49.9368" x2="189.513" y2="49.9368" gradientUnits="userSpaceOnUse">
<stop stop-color="#53E4F4"/>
<stop offset="1" stop-color="#8CF7DB"/>
</linearGradient>
<linearGradient id="paint24_linear" x1="-23.8602" y1="49.9368" x2="189.513" y2="49.9368" gradientUnits="userSpaceOnUse">
<stop stop-color="#53E4F4"/>
<stop offset="1" stop-color="#8CF7DB"/>
</linearGradient>
<linearGradient id="paint25_linear" x1="-23.8602" y1="49.9368" x2="189.513" y2="49.9368" gradientUnits="userSpaceOnUse">
<stop stop-color="#53E4F4"/>
<stop offset="1" stop-color="#8CF7DB"/>
</linearGradient>
</defs>
</svg>
