<svg width="18" height="19" viewBox="0 0 18 19" fill="none" xmlns="http://www.w3.org/2000/svg">
<path fill-rule="evenodd" clip-rule="evenodd" d="M17 9.93677C17 14.355 13.4183 17.9368 9 17.9368C4.58172 17.9368 1 14.355 1 9.93677C1 5.51849 4.58172 1.93677 9 1.93677C13.4183 1.93677 17 5.51849 17 9.93677ZM18 9.93677C18 14.9073 13.9706 18.9368 9 18.9368C4.02944 18.9368 0 14.9073 0 9.93677C0 4.9662 4.02944 0.936768 9 0.936768C13.9706 0.936768 18 4.9662 18 9.93677ZM14.4962 7.71879C14.6915 7.52353 14.6915 7.20694 14.4962 7.01168C14.3009 6.81642 13.9844 6.81642 13.7891 7.01168L7.71408 13.0867L4.21049 9.58311C4.01522 9.38785 3.69864 9.38785 3.50338 9.58311C3.30812 9.77837 3.30812 10.095 3.50338 10.2902L7.36052 14.1474C7.55579 14.3426 7.87237 14.3426 8.06763 14.1474L14.4962 7.71879Z" fill="#33C4E2"/>
</svg>
