<svg id="Layer_1" data-name="Layer 1" xmlns="http://www.w3.org/2000/svg" viewBox="0 0 524.41 354.33"><defs><style>.cls-1{fill:#ebf2f2;}.cls-10,.cls-11,.cls-2{fill:none;stroke:#000;stroke-miterlimit:10;stroke-width:0.5px;}.cls-3,.cls-4{fill:#00bae6;}.cls-4{opacity:0.4;}.cls-5,.cls-7,.cls-8{font-size:14px;}.cls-5,.cls-6,.cls-7{font-family:OpenSans-Regular, Open Sans;}.cls-6{font-size:10px;}.cls-7{fill:#fff;}.cls-8{font-family:OpenSans-Bold, Open Sans;font-weight:700;}.cls-9{fill:#dde6e6;}.cls-10{stroke-dasharray:12.24 12.24;}.cls-11{stroke-dasharray:12.29 12.29;}</style></defs><title>Artboard 2 copy 21</title><circle class="cls-1" cx="467.97" cy="205.18" r="36.87"/><polygon class="cls-1" points="244.11 248.81 138.94 248.81 106.37 265.82 138.94 282.82 244.11 282.82 276.68 265.82 244.11 248.81"/><line class="cls-2" x1="436.64" y1="101.24" x2="436.64" y2="91.58"/><rect class="cls-1" x="38.36" y="13.38" width="325.98" height="34.02" rx="17.01" ry="17.01"/><rect class="cls-3" x="38.36" y="61.97" width="325.98" height="34.02"/><rect class="cls-4" x="432.38" y="101.24" width="71.18" height="56.03"/><rect class="cls-3" x="432.38" y="101.24" width="8.59" height="56.03"/><rect class="cls-3" x="38.36" y="199.78" width="283.46" height="34.02"/><rect class="cls-3" x="38.36" y="140.26" width="283.46" height="34.02"/><rect class="cls-3" x="38.36" y="101.24" width="138.9" height="34.02"/><rect class="cls-3" x="182.92" y="101.24" width="138.9" height="34.02"/><rect class="cls-3" x="281.05" y="150.51" width="132.56" height="34.02" transform="translate(179.82 514.85) rotate(-90)"/><text class="cls-5" transform="translate(152.65 34.49)">Platform Users</text><line class="cls-2" x1="55.46" y1="198.09" x2="55.46" y2="175.96"/><polygon points="57.51 196.44 57.14 196.1 55.46 197.9 53.79 196.1 53.42 196.44 55.46 198.64 57.51 196.44"/><text class="cls-6" transform="translate(61.06 185.26)">Financial<tspan x="0" y="10">transactions</tspan></text><text class="cls-6" transform="translate(370.78 118.24)">Connectivity</text><text class="cls-6" transform="translate(436.64 70.54)">Embedded<tspan x="0" y="10">MDaasS</tspan><tspan x="0" y="20">Components</tspan></text><line class="cls-2" x1="146.73" y1="198.09" x2="146.73" y2="175.96"/><polygon points="148.77 196.44 148.41 196.1 146.73 197.9 145.05 196.1 144.68 196.44 146.73 198.64 148.77 196.44"/><text class="cls-6" transform="translate(153.09 185.25)">Compliance<tspan x="0" y="10">transactions</tspan></text><line class="cls-2" x1="238.37" y1="198.09" x2="238.37" y2="175.96"/><polygon points="240.41 196.44 240.05 196.1 238.37 197.9 236.69 196.1 236.32 196.44 238.37 198.64 240.41 196.44"/><text class="cls-6" transform="translate(244.74 185.25)">IoT<tspan x="0" y="10">transactions</tspan></text><text class="cls-7" transform="translate(140.44 83.33)">Business Solutions</text><text class="cls-7" transform="translate(54.32 161.36)">Documents &amp; Transaction Managment</text><text class="cls-7" transform="translate(131.72 220.89)">MD Blockchain</text><text class="cls-5" transform="translate(160.38 269.92)">Exchange</text><rect class="cls-1" x="122.08" y="312.84" width="138.9" height="34.02" rx="17.01" ry="17.01"/><text class="cls-5" transform="translate(144.13 333.95)">Token Holders</text><text class="cls-8" transform="translate(11.85 214.82) rotate(-90)">MDignum Platform</text><text class="cls-7" transform="translate(51.14 122.35)">B2B Marketplace</text><text class="cls-7" transform="translate(191.91 122.35)">MDaaS Framework</text><text class="cls-5" transform="translate(442.66 124.95)">Medical<tspan x="4.55" y="16.8">device</tspan></text><text class="cls-5" transform="translate(439.9 194.48)">MIS/EHR<tspan x="-1.15" y="16.8">ERP,CRM</tspan><tspan x="16.47" y="33.6">etc.</tspan></text><text class="cls-7" transform="translate(351.43 215.93) rotate(-90)">Integration API</text><rect class="cls-3" x="382.37" y="125" width="34.92" height="8.5"/><polygon class="cls-3" points="371.03 129.25 382.37 136.88 382.37 121.62 371.03 129.25"/><polygon class="cls-3" points="428.63 129.25 417.3 121.62 417.3 136.88 428.63 129.25"/><rect class="cls-9" x="382.37" y="200.93" width="34.92" height="8.5"/><polygon class="cls-9" points="371.03 205.18 382.37 212.81 382.37 197.55 371.03 205.18"/><polygon class="cls-9" points="428.63 205.18 417.3 197.55 417.3 212.81 428.63 205.18"/><rect class="cls-9" x="187.27" y="295.37" width="8.5" height="8.5" transform="translate(491.15 108.1) rotate(90)"/><polygon class="cls-9" points="191.53 284.03 183.89 295.37 199.16 295.37 191.53 284.03"/><polygon class="cls-9" points="191.53 310.96 199.16 299.62 183.89 299.62 191.53 310.96"/><text class="cls-6" transform="translate(388.39 181.73)">Data<tspan x="1.1" y="10">flow</tspan></text><polyline class="cls-2" points="364.34 227.8 364.34 233.8 358.34 233.8"/><line class="cls-10" x1="346.1" y1="233.8" x2="33.98" y2="233.8"/><polyline class="cls-2" points="27.86 233.8 21.86 233.8 21.86 227.8"/><line class="cls-11" x1="21.86" y1="215.5" x2="21.86" y2="74.12"/><polyline class="cls-2" points="21.86 67.97 21.86 61.97 27.86 61.97"/><line class="cls-10" x1="40.1" y1="61.97" x2="352.22" y2="61.97"/><polyline class="cls-2" points="358.34 61.97 364.34 61.97 364.34 67.97"/><line class="cls-11" x1="364.34" y1="80.27" x2="364.34" y2="221.65"/></svg>