<svg id="Layer_1" data-name="Layer 1" xmlns="http://www.w3.org/2000/svg" viewBox="0 0 524.41 283.46"><defs><style>.cls-1,.cls-3,.cls-5{fill:#fff;}.cls-1{stroke:#231f20;stroke-miterlimit:10;stroke-width:0.5px;}.cls-2{fill:#00bae6;}.cls-3,.cls-4{font-size:14px;}.cls-3{font-family:OpenSans-Bold, Open Sans;font-weight:700;}.cls-4{font-family:OpenSans-Regular, Open Sans;}</style></defs><title>Artboard 2 copy 31</title><line class="cls-1" x1="115.85" y1="195" x2="408.56" y2="88.46"/><line class="cls-1" x1="106.39" y1="141.73" x2="415.02" y2="141.73"/><line class="cls-1" x1="121.22" y1="90.42" x2="404.6" y2="193.56"/><line class="cls-1" x1="150.01" y1="47.59" x2="393.94" y2="252.27"/><line class="cls-1" x1="130.75" y1="252.27" x2="391.01" y2="33.89"/><circle class="cls-2" cx="262.2" cy="141.73" r="98.94"/><text class="cls-3" transform="translate(226.44 203.03)">MDignum <tspan x="4.87" y="16.8">Platform</tspan></text><text class="cls-4" transform="translate(97.39 21.53)">Device<tspan x="-23.25" y="16.8">Manufacturer</tspan></text><text class="cls-4" transform="translate(55.29 77.94)">Helthcare<tspan x="3.99" y="16.8">Provider</tspan></text><text class="cls-4" transform="translate(54.16 144.85)">Doctor</text><text class="cls-4" transform="translate(64.62 209.52)">Patient</text><text class="cls-4" transform="translate(75.75 266.28)">Token Holder</text><text class="cls-4" transform="translate(373.38 25.95)">Regulator</text><text class="cls-4" transform="translate(408.57 77.94)">MIS/EHR<tspan x="0.42" y="16.8">Provider</tspan></text><text class="cls-4" transform="translate(417.02 136.82)">Insurance<tspan x="1.03" y="16.8">Company</tspan></text><text class="cls-4" transform="translate(411.94 200.23)">Leasing<tspan x="-6.47" y="16.8">Company</tspan></text><text class="cls-4" transform="translate(363.06 266.28)">Charity Fund</text><circle class="cls-5" cx="262.2" cy="141.73" r="38.77"/><text class="cls-4" transform="translate(235.08 137.43)">Medical <tspan x="5.55" y="16.8">Device</tspan></text></svg>