<?xml version="1.0" encoding="UTF-8"?>
<svg width="44px" height="44px" viewBox="0 0 44 44" version="1.1" xmlns="http://www.w3.org/2000/svg" xmlns:xlink="http://www.w3.org/1999/xlink">
    <!-- Generator: Sketch 46.2 (44496) - http://www.bohemiancoding.com/sketch -->
    <title>Shape Copy 3</title>
    <desc>Created with Sketch.</desc>
    <defs>
        <linearGradient x1="95.7828444%" y1="4.21715561%" x2="1.53096782%" y2="98.4690322%" id="linearGradient-1">
            <stop stop-color="#9EFBD3" offset="0%"></stop>
            <stop stop-color="#57E9F2" offset="47.8728925%"></stop>
            <stop stop-color="#45D4FB" offset="100%"></stop>
        </linearGradient>
    </defs>
    <g id="Page-1" stroke="none" stroke-width="1" fill="none" fill-rule="evenodd">
        <g id="Medtech-2" transform="translate(-378.000000, -5989.000000)" fill-rule="nonzero" fill="url(#linearGradient-1)">
            <g id="Group-15" transform="translate(250.000000, 5782.000000)">
                <path d="M150,251 C149.885417,251 149.777995,250.992838 149.677734,250.978516 C149.577474,250.964193 149.470052,250.949869 149.355469,250.935547 C149.240886,250.921224 149.133464,250.89974 149.033203,250.871093 C148.932943,250.842448 148.839843,250.806641 148.753907,250.763672 C148.667969,250.720703 148.574869,250.677734 148.474609,250.634766 C148.374348,250.591797 148.28125,250.534505 148.195312,250.462891 C148.109374,250.391276 148.023438,250.326823 147.9375,250.269531 C147.851562,250.21224 147.765624,250.140624 147.679688,250.054688 L128.945312,231.277343 C128.315105,230.647136 128,229.880859 128,228.978516 C128,228.076172 128.315105,227.309895 128.945312,226.679688 L135.820312,219.804688 C136.020833,219.604167 136.271484,219.47526 136.572265,219.417969 C136.873047,219.360677 137.152343,219.403645 137.410155,219.546876 C137.667969,219.690105 137.868489,219.897786 138.011719,220.169922 C138.154948,220.442057 138.197917,220.721355 138.140624,221.007812 C138.083333,221.208333 138.047526,221.387369 138.033203,221.544922 C138.018881,221.702474 138.011719,221.852864 138.011719,221.996093 C138.011719,222.998698 138.255208,223.922526 138.742188,224.767578 C139.229167,225.612631 139.895181,226.285807 140.740234,226.787109 C141.585286,227.288412 142.494791,227.539062 143.46875,227.539062 C144.958333,227.539062 146.204427,227.001953 147.207031,225.927734 C148.209636,224.853516 148.710938,223.542969 148.710938,221.996093 C148.710938,221.251302 148.574869,220.549479 148.302734,219.890624 C148.030598,219.231771 147.665364,218.651693 147.207031,218.150391 C146.748698,217.649088 146.197265,217.255209 145.552734,216.96875 C144.908203,216.682291 144.213541,216.539062 143.46875,216.539062 C143.210938,216.539062 142.88151,216.582031 142.480469,216.667969 C141.821614,216.782552 141.334636,216.539062 141.019531,215.9375 C140.704427,215.335938 140.790364,214.80599 141.277343,214.347657 L147.679688,207.902343 C147.994791,207.615886 148.352864,207.393881 148.753907,207.236328 C149.154948,207.078776 149.570312,207 150,207 C150.429688,207 150.845052,207.078776 151.246093,207.236328 C151.647136,207.393881 152.005208,207.615886 152.320312,207.902343 L157.003907,212.628907 C157.490886,211.082031 158.393229,209.814453 159.710938,208.826172 C161.028645,207.837891 162.518229,207.34375 164.179688,207.34375 C165.210938,207.34375 166.192057,207.544271 167.123047,207.945312 C168.054036,208.346355 168.856119,208.883464 169.529297,209.556641 C170.202474,210.229817 170.739583,211.039062 171.140624,211.984376 C171.541667,212.929688 171.742188,213.903645 171.742188,214.90625 C171.742188,215.565105 171.663412,216.216797 171.505859,216.861328 C171.348307,217.505859 171.111979,218.10026 170.796874,218.644531 C170.481771,219.188802 170.109374,219.682943 169.679688,220.126953 C169.25,220.570964 168.763021,220.964843 168.21875,221.308593 C167.674479,221.652343 167.101562,221.924479 166.5,222.125 L171.054688,226.679688 C171.684895,227.309895 172,228.076172 172,228.978516 C172,229.880859 171.684895,230.647136 171.054688,231.277343 L152.320312,250.054688 C151.661458,250.684895 150.888021,251 150,251 Z M135.519531,223.972657 L130.878907,228.613281 C130.621093,228.871093 130.621093,229.114583 130.878907,229.34375 L149.613281,248.121093 C149.871093,248.35026 150.128907,248.35026 150.386719,248.121093 L169.121093,229.34375 C169.178386,229.286458 169.221355,229.214843 169.25,229.128907 C169.278645,229.042969 169.278645,228.949869 169.25,228.849609 C169.221355,228.74935 169.178386,228.670573 169.121093,228.613281 L162.503907,221.996093 C162.045573,221.53776 161.959636,221.014974 162.246093,220.427734 C162.532552,219.840495 162.990886,219.589843 163.621093,219.675781 L163.835938,219.675781 C163.864583,219.704427 163.878907,219.71875 163.878907,219.71875 C164.022136,219.71875 164.122395,219.71875 164.179688,219.71875 C165.526041,219.71875 166.664714,219.253255 167.595703,218.322266 C168.526693,217.391276 168.992188,216.259766 168.992188,214.927734 C168.992188,213.595703 168.526693,212.457031 167.595703,211.511719 C166.664714,210.566407 165.526041,210.09375 164.179688,210.09375 C163.549479,210.09375 162.933593,210.222657 162.332031,210.480469 C161.730469,210.738281 161.214843,211.082031 160.785155,211.511719 C160.355469,211.941407 160.011719,212.457031 159.753907,213.058593 C159.496093,213.660157 159.367188,214.276042 159.367188,214.90625 C159.367188,214.992188 159.38151,215.106771 159.410155,215.25 L159.453124,215.507812 C159.481771,215.679688 159.467448,215.858724 159.410155,216.044922 C159.352864,216.231119 159.259765,216.395833 159.130859,216.539062 C159.001953,216.682291 158.851562,216.796876 158.679688,216.882812 C158.106771,217.169271 157.591145,217.083333 157.132812,216.625 L150.386719,209.878907 C150.329427,209.821614 150.272136,209.778645 150.214843,209.75 C150.157552,209.721355 150.107422,209.699869 150.064453,209.685547 C150.021484,209.671224 149.978515,209.671224 149.935547,209.685547 C149.892578,209.699869 149.842448,209.721355 149.785155,209.75 C149.727864,209.778645 149.670573,209.821614 149.613281,209.878907 L145.445312,214.046876 C147.25,214.476562 148.703776,215.429036 149.806641,216.904297 C150.909505,218.379557 151.460938,220.076823 151.460938,221.996093 C151.460938,222.740886 151.367838,223.471355 151.181641,224.1875 C150.995443,224.903645 150.730469,225.5625 150.386719,226.164062 C150.042969,226.765624 149.634765,227.324219 149.162109,227.839843 C148.689453,228.355469 148.159505,228.792317 147.572265,229.150391 C146.985026,229.508464 146.340495,229.78776 145.638672,229.988281 C144.936848,230.188802 144.213541,230.289062 143.46875,230.289062 C143.096355,230.289062 142.723958,230.260417 142.351562,230.203124 C141.979167,230.145833 141.613931,230.067057 141.255859,229.966797 C140.897786,229.866536 140.554036,229.737631 140.224609,229.580078 C139.895181,229.422526 139.580078,229.25065 139.279297,229.064453 C138.978515,228.878255 138.684895,228.677734 138.398438,228.462891 C138.111979,228.248047 137.847005,228.011719 137.603515,227.753907 C137.360026,227.496093 137.130859,227.216797 136.916015,226.916016 C136.701172,226.615234 136.50065,226.307291 136.314453,225.992188 C136.128255,225.677083 135.970703,225.354817 135.841797,225.025391 C135.712891,224.695964 135.605469,224.345052 135.519531,223.972657 Z" id="Shape-Copy-3"></path>
            </g>
        </g>
    </g>
</svg>