<?xml version="1.0" encoding="UTF-8"?>
<svg width="47px" height="44px" viewBox="0 0 47 44" version="1.1" xmlns="http://www.w3.org/2000/svg" xmlns:xlink="http://www.w3.org/1999/xlink">
    <!-- Generator: Sketch 46.2 (44496) - http://www.bohemiancoding.com/sketch -->
    <title>Shape Copy 2</title>
    <desc>Created with Sketch.</desc>
    <defs>
        <linearGradient x1="95.7828444%" y1="4.21715561%" x2="1.53096782%" y2="98.4690322%" id="linearGradient-1">
            <stop stop-color="#9EFBD3" offset="0%"></stop>
            <stop stop-color="#57E9F2" offset="47.8728925%"></stop>
            <stop stop-color="#45D4FB" offset="100%"></stop>
        </linearGradient>
    </defs>
    <g id="Page-1" stroke="none" stroke-width="1" fill="none" fill-rule="evenodd">
        <g id="Medtech-2" transform="translate(-1016.000000, -5989.000000)" fill-rule="nonzero" fill="url(#linearGradient-1)">
            <g id="Group-15" transform="translate(250.000000, 5782.000000)">
                <path d="M799.822664,248.066667 L779.074583,248.066667 C778.674991,248.066667 778.329189,248.211805 778.03718,248.502083 C777.74517,248.792361 777.599164,249.136112 777.599164,249.533333 C777.599164,249.930555 777.74517,250.274306 778.03718,250.564584 C778.329189,250.854862 778.674991,251 779.074583,251 L799.822664,251 C800.222256,251 800.568058,250.854862 800.860068,250.564584 C801.152078,250.274306 801.298083,249.930555 801.298083,249.533333 C801.298083,249.136112 801.152078,248.792361 800.860068,248.502083 C800.568058,248.211805 800.222256,248.066667 799.822664,248.066667 Z M812.778687,211.125 C812.74795,210.941666 812.686473,210.78125 812.594259,210.643751 C812.502046,210.50625 812.394463,210.384028 812.271511,210.277084 C812.14856,210.170139 812.01024,210.086111 811.856549,210.025 C811.70286,209.963888 811.533802,209.933333 811.349375,209.933333 L804.1106,209.933333 L804.1106,208.466667 C804.1106,208.069445 803.97228,207.725694 803.695639,207.435416 C803.418997,207.145138 803.065512,207 802.635181,207 L776.123745,207 C775.724153,207 775.378351,207.145138 775.086342,207.435416 C774.794332,207.725694 774.648326,208.069445 774.648326,208.466667 L774.648326,209.933333 L767.640086,209.933333 C767.42492,209.933333 767.209756,209.986806 766.99459,210.09375 C766.779425,210.200694 766.602683,210.338194 766.464362,210.50625 C766.326041,210.674306 766.241511,210.880556 766.210774,211.125 C766.180036,211.277778 766.141614,211.499306 766.095507,211.789583 C766.0494,212.079861 766.018663,212.584028 766.003293,213.302083 C765.987925,214.020139 766.026347,214.722916 766.11856,215.410417 C766.210774,216.097917 766.418255,216.861806 766.741003,217.702083 C767.06375,218.542362 767.501766,219.298611 768.055048,219.970834 C769.684156,221.9875 772.173927,223.041666 775.524357,223.133333 C776.477232,225.944444 778.067918,228.281945 780.296414,230.145834 C782.524912,232.009722 785.053104,233.094445 787.88099,233.4 L787.88099,243.620833 L783.50084,243.620833 C783.070511,243.620833 782.717024,243.765973 782.440383,244.056249 C782.163742,244.346527 782.025421,244.690278 782.025421,245.0875 C782.025421,245.484722 782.163742,245.828472 782.440383,246.11875 C782.717024,246.409028 783.070511,246.554166 783.50084,246.554166 L795.396407,246.554166 C795.795999,246.554166 796.141801,246.409028 796.433811,246.11875 C796.725821,245.828472 796.871826,245.484722 796.871826,245.0875 C796.871826,244.690278 796.725821,244.346527 796.433811,244.056249 C796.141801,243.765973 795.795999,243.620833 795.396407,243.620833 L790.831828,243.620833 L790.831828,233.4 C793.690454,233.094445 796.234015,232.009722 798.462511,230.145834 C800.691009,228.281945 802.281695,225.944444 803.234571,223.133333 C804.955893,223.102778 806.462049,222.820139 807.75304,222.285417 C809.044033,221.750695 810.10449,220.979167 810.934413,219.970834 C812.655736,217.862499 813.301231,215.097222 812.870901,211.675 C812.840162,211.46111 812.809425,211.277778 812.778687,211.125 Z M770.314283,218.137501 C769.299933,216.884722 768.854234,215.127777 768.977185,212.866667 L774.648326,212.866667 L774.648326,217.816666 C774.648326,217.969445 774.648326,218.129861 774.648326,218.297917 C774.648326,218.465973 774.656011,218.626389 774.671381,218.779167 C774.686748,218.931944 774.702118,219.084722 774.717488,219.237501 C774.732856,219.390278 774.748225,219.543055 774.763593,219.695833 C774.778963,219.848612 774.802015,220.001389 774.832754,220.154166 C773.818403,220.062499 772.934689,219.848612 772.18161,219.5125 C771.428532,219.176389 770.80609,218.718055 770.314283,218.137501 Z M801.159762,217.816666 C801.159762,219.527777 800.852383,221.170139 800.237625,222.743751 C799.622868,224.317361 798.785259,225.677084 797.724802,226.822916 C796.664345,227.96875 795.411776,228.877778 793.967095,229.549999 C792.522413,230.222222 791.000887,230.558334 789.402516,230.558334 C786.1443,230.558334 783.362521,229.313194 781.057178,226.822916 C778.751836,224.33264 777.599164,221.330555 777.599164,217.816666 L777.599164,209.933333 L801.159762,209.933333 L801.159762,217.816666 Z M808.675178,218.137501 C808.152634,218.718055 807.499454,219.184028 806.715637,219.535416 C805.931821,219.886806 805.002,220.093056 803.926173,220.154166 C803.987648,219.756945 804.033755,219.36736 804.064493,218.985417 C804.095232,218.603472 804.1106,218.213889 804.1106,217.816666 L804.1106,212.866667 L810.012276,212.866667 C810.10449,215.127777 809.65879,216.884722 808.675178,218.137501 Z" id="Shape-Copy-2"></path>
            </g>
        </g>
    </g>
</svg>