<?xml version="1.0" encoding="UTF-8"?>
<svg width="43px" height="44px" viewBox="0 0 43 44" version="1.1" xmlns="http://www.w3.org/2000/svg" xmlns:xlink="http://www.w3.org/1999/xlink">
    <!-- Generator: Sketch 46.2 (44496) - http://www.bohemiancoding.com/sketch -->
    <title>Shape Copy 15</title>
    <desc>Created with Sketch.</desc>
    <defs>
        <linearGradient x1="95.7828444%" y1="4.21715561%" x2="1.53096782%" y2="98.4690322%" id="linearGradient-1">
            <stop stop-color="#9EFBD3" offset="0%"></stop>
            <stop stop-color="#57E9F2" offset="47.8728925%"></stop>
            <stop stop-color="#45D4FB" offset="100%"></stop>
        </linearGradient>
    </defs>
    <g id="Page-1" stroke="none" stroke-width="1" fill="none" fill-rule="evenodd">
        <g id="Medtech-2" transform="translate(-1019.000000, -6249.000000)" fill-rule="nonzero" fill="url(#linearGradient-1)">
            <g id="Group-15" transform="translate(250.000000, 5782.000000)">
                <path d="M780.096774,480.75 L770.387097,480.75 C770.011425,480.75 769.686324,480.886067 769.411794,481.158203 C769.137264,481.430338 769,481.752605 769,482.125 L769,509.625 C769,509.997395 769.137264,510.319662 769.411794,510.591797 C769.686324,510.863933 770.011425,511 770.387097,511 L780.096774,511 C780.472446,511 780.797547,510.863933 781.072077,510.591797 C781.346607,510.319662 781.483871,509.997395 781.483871,509.625 L781.483871,482.125 C781.483871,481.752605 781.346607,481.430338 781.072077,481.158203 C780.797547,480.886067 780.472446,480.75 780.096774,480.75 Z M778.709677,508.25 L771.774194,508.25 L771.774194,483.5 L778.709677,483.5 L778.709677,508.25 Z M795.354839,488.914062 L785.645161,488.914062 C785.240591,488.914062 784.908266,489.050131 784.648186,489.322266 C784.388105,489.5944 784.258065,489.916667 784.258065,490.289062 L784.258065,509.625 C784.258065,509.997395 784.388105,510.319662 784.648186,510.591797 C784.908266,510.863933 785.240591,511 785.645161,511 L795.354839,511 C795.73051,511 796.055612,510.863933 796.330142,510.591797 C796.604671,510.319662 796.741935,509.997395 796.741935,509.625 L796.741935,490.289062 C796.741935,489.916667 796.604671,489.5944 796.330142,489.322266 C796.055612,489.050131 795.73051,488.914062 795.354839,488.914062 Z M793.967742,508.25 L787.032258,508.25 L787.032258,491.664062 L793.967742,491.664062 L793.967742,508.25 Z M810.612903,467 L800.903226,467 C800.527554,467 800.202453,467.136067 799.927923,467.408203 C799.653393,467.680338 799.516129,468.002605 799.516129,468.375 L799.516129,509.625 C799.516129,509.997395 799.653393,510.319662 799.927923,510.591797 C800.202453,510.863933 800.527554,511 800.903226,511 L810.612903,511 C810.988575,511 811.313676,510.863933 811.588206,510.591797 C811.862736,510.319662 812,509.997395 812,509.625 L812,468.375 C812,468.002605 811.862736,467.680338 811.588206,467.408203 C811.313676,467.136067 810.988575,467 810.612903,467 Z M809.225806,508.25 L802.290323,508.25 L802.290323,469.75 L809.225806,469.75 L809.225806,508.25 Z" id="Shape-Copy-15"></path>
            </g>
        </g>
    </g>
</svg>