<?xml version="1.0" encoding="UTF-8"?>
<svg width="44px" height="44px" viewBox="0 0 44 44" version="1.1" xmlns="http://www.w3.org/2000/svg" xmlns:xlink="http://www.w3.org/1999/xlink">
    <!-- Generator: Sketch 46.2 (44496) - http://www.bohemiancoding.com/sketch -->
    <title>Shape Copy 10</title>
    <desc>Created with Sketch.</desc>
    <defs>
        <linearGradient x1="95.7828444%" y1="4.21715561%" x2="1.53096782%" y2="98.4690322%" id="linearGradient-1">
            <stop stop-color="#9EFBD3" offset="0%"></stop>
            <stop stop-color="#57E9F2" offset="47.8728925%"></stop>
            <stop stop-color="#45D4FB" offset="100%"></stop>
        </linearGradient>
    </defs>
    <g id="Page-1" stroke="none" stroke-width="1" fill="none" fill-rule="evenodd">
        <g id="Medtech-2" transform="translate(-698.000000, -5989.000000)" fill-rule="nonzero" fill="url(#linearGradient-1)">
            <g id="Group-15" transform="translate(250.000000, 5782.000000)">
                <path d="M485.125,237.25 C484.007812,237.25 482.9694,237.50065 482.009766,238.001953 C481.050131,238.503255 480.255209,239.183593 479.625,240.042969 L461.492188,230.804688 C461.664062,230.203124 461.75,229.601562 461.75,229 C461.75,228.627605 461.714193,228.248047 461.642578,227.861328 C461.570964,227.474609 461.477864,227.109376 461.363281,226.765624 L479.582031,217.914062 C480.21224,218.802083 481.014323,219.496745 481.988281,219.998047 C482.96224,220.49935 484.007812,220.75 485.125,220.75 C487.015624,220.75 488.634114,220.076823 489.980469,218.730469 C491.326823,217.384114 492,215.765624 492,213.875 C492,212.643229 491.692057,211.497395 491.076172,210.4375 C490.460286,209.377605 489.622395,208.539714 488.5625,207.923828 C487.502605,207.307943 486.356771,207 485.125,207 C483.893229,207 482.747395,207.307943 481.6875,207.923828 C480.627605,208.539714 479.789714,209.377605 479.173828,210.4375 C478.557943,211.497395 478.25,212.643229 478.25,213.875 C478.25,213.960938 478.25,214.046876 478.25,214.132812 C478.25,214.21875 478.257162,214.304688 478.271484,214.390624 C478.285807,214.476562 478.292969,214.5625 478.292969,214.648438 C478.292969,214.734376 478.300131,214.820312 478.314453,214.90625 C478.328776,214.992188 478.35026,215.078124 478.378907,215.164062 C478.407552,215.25 478.421876,215.335938 478.421876,215.421876 L459.945312,224.402343 C459.315105,223.686198 458.56315,223.127605 457.689453,222.726562 C456.815755,222.325521 455.877605,222.125 454.875,222.125 C452.984376,222.125 451.365886,222.798177 450.019531,224.144531 C448.673177,225.490886 448,227.109376 448,229 C448,230.890624 448.673177,232.509114 450.019531,233.855469 C451.365886,235.201823 452.984376,235.875 454.875,235.875 C457.080729,235.875 458.871093,235.001302 460.246093,233.253907 L478.464843,242.535157 C478.407552,242.707031 478.364583,242.878907 478.335938,243.050781 C478.307291,243.222657 478.285807,243.401693 478.271484,243.587891 C478.257162,243.774088 478.25,243.953124 478.25,244.125 C478.25,245.356771 478.557943,246.502605 479.173828,247.5625 C479.789714,248.622395 480.627605,249.460286 481.6875,250.076172 C482.747395,250.692057 483.893229,251 485.125,251 C487.015624,251 488.634114,250.326823 489.980469,248.980469 C491.326823,247.634114 492,246.015624 492,244.125 C492,242.234376 491.326823,240.615886 489.980469,239.269531 C488.634114,237.923177 487.015624,237.25 485.125,237.25 Z M482.203124,210.953124 C483.005209,210.151042 483.979167,209.75 485.125,209.75 C486.270833,209.75 487.244791,210.151042 488.046876,210.953124 C488.848958,211.755209 489.25,212.729167 489.25,213.875 C489.25,215.020833 488.848958,215.994791 488.046876,216.796876 C487.244791,217.598958 486.270833,218 485.125,218 C483.979167,218 483.005209,217.598958 482.203124,216.796876 C481.401042,215.994791 481,215.020833 481,213.875 C481,212.729167 481.401042,211.755209 482.203124,210.953124 Z M457.796876,231.921876 C456.994791,232.723958 456.020833,233.125 454.875,233.125 C453.729167,233.125 452.755209,232.723958 451.953124,231.921876 C451.151042,231.119791 450.75,230.145833 450.75,229 C450.75,227.854167 451.151042,226.880209 451.953124,226.078124 C452.755209,225.276042 453.729167,224.875 454.875,224.875 C456.020833,224.875 456.994791,225.276042 457.796876,226.078124 C458.598958,226.880209 459,227.854167 459,229 C459,230.145833 458.598958,231.119791 457.796876,231.921876 Z M488.046876,247.046876 C487.244791,247.848958 486.270833,248.25 485.125,248.25 C483.979167,248.25 483.005209,247.848958 482.203124,247.046876 C481.401042,246.244791 481,245.270833 481,244.125 C481,242.979167 481.401042,242.005209 482.203124,241.203124 C483.005209,240.401042 483.979167,240 485.125,240 C486.270833,240 487.244791,240.401042 488.046876,241.203124 C488.848958,242.005209 489.25,242.979167 489.25,244.125 C489.25,245.270833 488.848958,246.244791 488.046876,247.046876 Z" id="Shape-Copy-10"></path>
            </g>
        </g>
    </g>
</svg>