<?xml version="1.0" encoding="UTF-8"?>
<svg width="44px" height="44px" viewBox="0 0 44 44" version="1.1" xmlns="http://www.w3.org/2000/svg" xmlns:xlink="http://www.w3.org/1999/xlink">
    <!-- Generator: Sketch 46.2 (44496) - http://www.bohemiancoding.com/sketch -->
    <title>Shape Copy 14</title>
    <desc>Created with Sketch.</desc>
    <defs>
        <linearGradient x1="95.7828444%" y1="4.21715561%" x2="1.53096782%" y2="98.4690322%" id="linearGradient-1">
            <stop stop-color="#9EFBD3" offset="0%"></stop>
            <stop stop-color="#57E9F2" offset="47.8728925%"></stop>
            <stop stop-color="#45D4FB" offset="100%"></stop>
        </linearGradient>
    </defs>
    <g id="Page-1" stroke="none" stroke-width="1" fill="none" fill-rule="evenodd">
        <g id="Medtech-2" transform="translate(-378.000000, -6249.000000)" fill-rule="nonzero" fill="url(#linearGradient-1)">
            <g id="Group-15" transform="translate(250.000000, 5782.000000)">
                <path d="M152.75,470.996093 C152.348958,470.996093 152.019531,471.132162 151.761719,471.404297 C151.503907,471.676433 151.375,472.005859 151.375,472.392578 C151.375,472.779297 151.503907,473.101562 151.761719,473.359376 C152.019531,473.617188 152.348958,473.746093 152.75,473.746093 C155.127605,473.746093 157.347655,474.175781 159.410155,475.035157 C161.472655,475.894531 163.220052,477.06185 164.652343,478.537109 C166.084636,480.012369 167.208984,481.788412 168.025391,483.865234 C168.841797,485.942057 169.25,488.183593 169.25,490.589843 C169.25,492.996093 168.784505,495.28776 167.853515,497.464843 C166.922526,499.641927 165.669271,501.518229 164.09375,503.09375 C162.518229,504.669271 160.641927,505.922526 158.464843,506.853516 C156.28776,507.784505 153.996093,508.25 151.589843,508.25 C146.720052,508.25 142.695312,506.674479 139.515624,503.523438 C136.335938,500.372395 134.746093,496.361979 134.746093,491.492188 C134.746093,491.119791 134.617188,490.797526 134.359374,490.525391 C134.101562,490.253255 133.779297,490.117188 133.392578,490.117188 C133.005859,490.117188 132.676431,490.253255 132.404297,490.525391 C132.132162,490.797526 131.996093,491.119791 131.996093,491.492188 C131.996093,495.1875 132.841145,498.52474 134.53125,501.503907 C136.221355,504.483073 138.56315,506.810547 141.556641,508.486328 C144.550131,510.162109 147.894531,511 151.589843,511 C152.993489,511 154.368489,510.863933 155.714843,510.591797 C157.061198,510.319662 158.335938,509.925781 159.539062,509.410157 C160.742188,508.894531 161.895181,508.264323 162.998047,507.519531 C164.100912,506.77474 165.110677,505.94401 166.027343,505.027343 C166.94401,504.110677 167.77474,503.100912 168.519531,501.998047 C169.264322,500.895183 169.894531,499.742188 170.410155,498.539062 C170.925781,497.335938 171.319662,496.061198 171.591797,494.714843 C171.863931,493.36849 172,491.99349 172,490.589843 C172,486.894531 171.183593,483.557291 169.550781,480.578124 C167.917969,477.598958 165.626302,475.257162 162.675781,473.552734 C159.72526,471.848307 156.416667,470.996093 152.75,470.996093 Z M148.625,486.25 L148.625,468.375 C148.625,468.002605 148.496093,467.680338 148.238281,467.408203 C147.980469,467.136067 147.651041,467 147.25,467 C144.614583,467 142.108073,467.508464 139.730469,468.525391 C137.352864,469.542317 135.311848,470.902995 133.607422,472.607422 C131.902995,474.31185 130.542317,476.352864 129.525391,478.730469 C128.508464,481.108073 128,483.614583 128,486.25 C128,486.651042 128.136067,486.980469 128.408203,487.238281 C128.680338,487.496093 129.002605,487.625 129.375,487.625 L147.25,487.625 C147.9375,487.625 148.38151,487.309895 148.582031,486.679688 C148.610677,486.536458 148.625,486.393229 148.625,486.25 Z M145.875,484.875 L130.792969,484.875 C131.136719,480.835938 132.726562,477.398438 135.5625,474.5625 C138.398438,471.726562 141.835938,470.136719 145.875,469.792969 L145.875,484.875 Z" id="Shape-Copy-14"></path>
            </g>
        </g>
    </g>
</svg>