<?xml version="1.0" encoding="UTF-8"?>
<svg width="44px" height="44px" viewBox="0 0 44 44" version="1.1" xmlns="http://www.w3.org/2000/svg" xmlns:xlink="http://www.w3.org/1999/xlink">
    <!-- Generator: Sketch 46.2 (44496) - http://www.bohemiancoding.com/sketch -->
    <title>Shape Copy 13</title>
    <desc>Created with Sketch.</desc>
    <defs>
        <linearGradient x1="95.7828444%" y1="4.21715561%" x2="1.53096782%" y2="98.4690322%" id="linearGradient-1">
            <stop stop-color="#9EFBD3" offset="0%"></stop>
            <stop stop-color="#57E9F2" offset="47.8728925%"></stop>
            <stop stop-color="#45D4FB" offset="100%"></stop>
        </linearGradient>
    </defs>
    <g id="Page-1" stroke="none" stroke-width="1" fill="none" fill-rule="evenodd">
        <g id="Medtech-2" transform="translate(-698.000000, -6249.000000)" fill-rule="nonzero" fill="url(#linearGradient-1)">
            <g id="Group-15" transform="translate(250.000000, 5782.000000)">
                <path d="M489.25,484.832031 L485.726562,484.058593 C485.46875,483.227864 485.125,482.382812 484.695312,481.523438 L486.585938,478.34375 C486.84375,477.942709 487.037109,477.520183 487.166015,477.076172 C487.294922,476.632162 487.316407,476.166667 487.230469,475.679688 C487.144531,475.192709 486.929688,474.777343 486.585938,474.433593 L484.652343,472.5 C484.394531,472.242188 484.086588,472.048828 483.728515,471.919922 C483.370443,471.791016 483.012369,471.733724 482.654297,471.748047 C482.296224,471.762369 481.945312,471.826823 481.601562,471.941407 C481.257812,472.05599 480.942708,472.199219 480.65625,472.371093 L477.5625,474.347657 C477.447917,474.290364 477.333333,474.233073 477.21875,474.175781 C477.104167,474.11849 476.989583,474.061198 476.875,474.003907 C476.760417,473.946614 476.645833,473.896484 476.53125,473.853516 C476.416667,473.810547 476.294922,473.760417 476.166015,473.703124 C476.037109,473.645833 475.915364,473.595703 475.800781,473.552734 C475.686198,473.509766 475.564453,473.466797 475.435547,473.423828 C475.306641,473.380859 475.184895,473.345052 475.070312,473.316407 L474.296874,469.707031 C474.153645,469.019531 473.809895,468.396484 473.265624,467.837891 C472.721355,467.279297 472.091145,467 471.375,467 L468.625,467 C467.908855,467 467.314453,467.272136 466.841797,467.816407 C466.369141,468.360677 466.046874,469.005209 465.875,469.75 L464.972655,473.273438 C464.514322,473.416667 464.06315,473.581381 463.619141,473.767578 C463.175131,473.953776 462.738281,474.161458 462.308593,474.390624 L459.128907,472.371093 C458.75651,472.113281 458.333984,471.934245 457.861328,471.833984 C457.388672,471.733724 456.908855,471.733724 456.421874,471.833984 C455.934895,471.934245 455.519531,472.15625 455.175781,472.5 L453.199219,474.433593 C452.71224,475.063802 452.490234,475.708333 452.533203,476.367188 C452.576172,477.026042 452.798177,477.684895 453.199219,478.34375 L455.21875,481.695312 C454.817708,482.526042 454.502605,483.313802 454.273438,484.058593 L450.75,484.832031 C450.033855,484.97526 449.396484,485.31185 448.837891,485.841797 C448.279297,486.371745 448,487.009114 448,487.753907 L448,490.503907 C448,491.191407 448.272136,491.778645 448.816407,492.265624 C449.360677,492.752605 450.005208,493.082031 450.75,493.253907 L454.316407,494.113281 C454.545573,494.829427 454.846355,495.559895 455.21875,496.304688 L453.199219,499.65625 C452.798177,500.315105 452.576172,500.973958 452.533203,501.632812 C452.490234,502.291667 452.71224,502.936198 453.199219,503.566407 L455.175781,505.5 C455.748698,506.015624 456.407552,506.266276 457.152343,506.251953 C457.897136,506.237631 458.555989,506.029948 459.128907,505.628907 L462.308593,503.609376 C462.480469,503.695312 462.652343,503.78125 462.824219,503.867188 C462.996093,503.953124 463.175131,504.0319 463.361328,504.103516 C463.547526,504.175131 463.733724,504.246745 463.919922,504.318359 C464.106119,504.389974 464.292317,504.461588 464.478515,504.533203 C464.664714,504.604817 464.84375,504.669271 465.015624,504.726562 L465.875,508.25 C466.046874,508.994791 466.376302,509.639323 466.863281,510.183593 C467.35026,510.727864 467.9375,511 468.625,511 L471.375,511 C471.861979,511 472.320312,510.863933 472.75,510.591797 C473.179688,510.319662 473.523438,509.975912 473.78125,509.560547 C474.039062,509.145183 474.210938,508.708333 474.296874,508.25 L475.070312,504.683593 C475.929688,504.425781 476.760417,504.082031 477.5625,503.652343 L480.65625,505.628907 C481.257812,506.029948 481.930989,506.237631 482.675781,506.251953 C483.420573,506.266276 484.079427,506.015624 484.652343,505.5 L486.585938,503.566407 C487.072917,502.936198 487.294922,502.291667 487.251953,501.632812 C487.208984,500.973958 486.986979,500.315105 486.585938,499.65625 L484.695312,496.476562 C485.096355,495.703124 485.425781,494.915364 485.683593,494.113281 L489.25,493.253907 C489.994791,493.082031 490.639322,492.752605 491.183593,492.265624 C491.727864,491.778645 492,491.191407 492,490.503907 L492,487.753907 C492,486.636719 491.41276,485.777343 490.238281,485.175781 C489.923177,485.003907 489.59375,484.889323 489.25,484.832031 Z M489.25,490.289062 C489.221355,490.317709 489.178386,490.346355 489.121093,490.375 C489.063802,490.403645 488.992188,490.432291 488.90625,490.460938 C488.820312,490.489583 488.734374,490.518229 488.648438,490.546876 L483.535155,491.835938 L483.0625,493.253907 C482.947917,493.597657 482.826172,493.934245 482.697265,494.263672 C482.568359,494.5931 482.417969,494.915364 482.246093,495.230469 L481.558593,496.605469 L484.265624,501.074219 C484.408855,501.332031 484.494791,501.561198 484.523438,501.761719 L482.71875,503.566407 C482.604167,503.53776 482.503907,503.501953 482.417969,503.458984 C482.332031,503.416016 482.27474,503.380209 482.246093,503.351562 L477.734374,500.472657 L476.316407,501.203124 C476.08724,501.317709 475.858073,501.425131 475.628907,501.525391 C475.39974,501.62565 475.170573,501.725912 474.941407,501.826172 C474.71224,501.926433 474.483073,502.005209 474.253907,502.0625 L472.75,502.578124 L471.632812,507.691407 C471.604167,507.80599 471.561198,507.913412 471.503907,508.013672 C471.446614,508.113933 471.389322,508.192709 471.332031,508.25 L468.839843,508.25 C468.72526,508.078124 468.639322,507.877605 468.582031,507.648438 L467.292969,502.578124 L465.832031,502.105469 C465.746093,502.076823 465.667317,502.048177 465.595703,502.019531 C465.524088,501.990886 465.445312,501.96224 465.359374,501.933593 C465.273438,501.904948 465.1875,501.876302 465.101562,501.847657 C465.015624,501.81901 464.929688,501.783203 464.84375,501.740234 C464.757812,501.697266 464.671874,501.661458 464.585938,501.632812 C464.5,501.604167 464.414062,501.568359 464.328124,501.525391 C464.242188,501.482422 464.163412,501.446614 464.091797,501.417969 C464.020181,501.389323 463.941407,501.353516 463.855469,501.310547 C463.769531,501.267578 463.683593,501.217448 463.597655,501.160157 L462.179688,500.429688 L457.667969,503.308593 C457.467448,503.451823 457.28125,503.523438 457.109374,503.523438 L455.304688,501.761719 C455.333333,501.561198 455.419271,501.346355 455.5625,501.117188 L458.355469,496.433593 L457.710938,495.101562 C457.395833,494.471355 457.138021,493.869791 456.9375,493.296876 L456.464843,491.835938 L451.4375,490.546876 C451.151041,490.489583 450.921874,490.403645 450.75,490.289062 L450.75,487.753907 C450.778645,487.753907 450.814453,487.739583 450.857422,487.710938 C450.900391,487.682291 450.957681,487.646484 451.029297,487.603516 C451.100912,487.560547 451.165364,487.539062 451.222655,487.539062 L456.421874,486.378907 L456.894531,484.875 C457.066407,484.273438 457.324219,483.614583 457.667969,482.898438 L458.355469,481.566407 L455.5625,476.925781 C455.505208,476.811198 455.447917,476.689453 455.390624,476.560547 C455.333333,476.431641 455.304688,476.324219 455.304688,476.238281 L457.109374,474.433593 L457.582031,474.648438 L462.179688,477.570312 L463.597655,476.839843 C464.313802,476.467448 465.058593,476.152343 465.832031,475.894531 L467.292969,475.421876 L468.539062,470.4375 C468.596355,470.151042 468.696614,469.921876 468.839843,469.75 L471.375,469.75 C471.375,469.75 471.389322,469.792969 471.417969,469.878907 C471.446614,469.907552 471.468098,469.936198 471.482422,469.964843 C471.496745,469.99349 471.511067,470.036458 471.525391,470.09375 C471.539714,470.151042 471.561198,470.19401 471.589843,470.222657 L472.707031,475.421876 L474.210938,475.9375 C474.927083,476.166667 475.628907,476.453124 476.316407,476.796876 L477.734374,477.527343 L482.160155,474.691407 C482.360677,474.576823 482.546874,474.519531 482.71875,474.519531 L484.523438,476.28125 C484.494791,476.338542 484.466145,476.424479 484.4375,476.539062 C484.408855,476.653645 484.351562,476.768229 484.265624,476.882812 L481.558593,481.394531 L482.246093,482.769531 C482.446614,483.141927 482.618489,483.5 482.761719,483.84375 C482.904948,484.1875 483.019531,484.53125 483.105469,484.875 L483.578124,486.378907 L488.691407,487.539062 C489.00651,487.596355 489.207031,487.696614 489.292969,487.839843 L489.25,490.289062 Z M475.865234,483.15625 C474.246745,481.552083 472.298828,480.75 470.021484,480.75 C467.744141,480.75 465.796224,481.552083 464.177734,483.15625 C462.559245,484.760417 461.75,486.708333 461.75,489 C461.75,491.291667 462.559245,493.239583 464.177734,494.84375 C465.796224,496.447917 467.736979,497.25 470,497.25 C471.145833,497.25 472.227214,497.035157 473.244141,496.605469 C474.261067,496.175781 475.141927,495.588542 475.886719,494.84375 C476.63151,494.098958 477.21875,493.2181 477.648438,492.201172 C478.078124,491.184245 478.292969,490.117188 478.292969,489 C478.292969,486.708333 477.483724,484.760417 475.865234,483.15625 Z M473.888672,492.888672 C472.814453,493.962891 471.518229,494.5 470,494.5 C468.481771,494.5 467.185547,493.962891 466.111328,492.888672 C465.037109,491.814453 464.5,490.518229 464.5,489 C464.5,487.481771 465.037109,486.185547 466.111328,485.111328 C467.185547,484.037109 468.481771,483.5 470,483.5 C471.518229,483.5 472.814453,484.037109 473.888672,485.111328 C474.962891,486.185547 475.5,487.481771 475.5,489 C475.5,490.518229 474.962891,491.814453 473.888672,492.888672 Z" id="Shape-Copy-13"></path>
            </g>
        </g>
    </g>
</svg>