<svg width="167" height="64" viewBox="0 0 167 64" fill="none" xmlns="http://www.w3.org/2000/svg">
<path d="M24.9692 49.4439V26.3318L83.471 37.8878V60.9999L24.9692 49.4439Z" fill="#D6E0F1" stroke="#2F528F" stroke-linecap="round" stroke-linejoin="round"/>
<path d="M141.973 49.4439V26.3318L83.471 37.8878V60.9999L141.973 49.4439Z" fill="#D6E0F1" stroke="#2F528F" stroke-linecap="round" stroke-linejoin="round"/>
<path d="M83.471 37.8877L25.8295 26.3317L83.471 14.7756L141.113 26.3317L83.471 37.8877Z" fill="#D6E0F1" stroke="#2F528F"/>
<path fill-rule="evenodd" clip-rule="evenodd" d="M25.066 26.8223C24.7951 26.8758 24.5321 26.6996 24.4786 26.4287C24.4251 26.1578 24.6013 25.8948 24.8723 25.8413L83.3629 14.2875C83.398 14.2797 83.4342 14.2756 83.471 14.2757C83.5078 14.2756 83.544 14.2797 83.579 14.2875L142.07 25.8413C142.341 25.8948 142.517 26.1578 142.463 26.4287C142.41 26.6996 142.147 26.8758 141.876 26.8223L83.471 15.2854L25.066 26.8223Z" fill="#2F528F"/>
<path d="M47.5001 20.5435V7.8479L83.471 14.1957V26.8913L47.5001 20.5435Z" fill="#D6E0F1" stroke="#2F528F" stroke-linecap="round" stroke-linejoin="round"/>
<path d="M119.442 20.5435V7.8479L83.471 14.1957V26.8913L119.442 20.5435Z" fill="#D6E0F1" stroke="#2F528F" stroke-linecap="round" stroke-linejoin="round"/>
<path d="M83.471 14.1956L48.0291 7.84781L83.471 1.5L118.913 7.84781L83.471 14.1956Z" fill="#D6E0F1" stroke="#2F528F"/>
<path fill-rule="evenodd" clip-rule="evenodd" d="M47.587 8.34033C47.315 8.38832 47.0557 8.20677 47.0077 7.93483C46.9597 7.66289 47.1413 7.40354 47.4132 7.35555L83.3726 1.00976C83.4046 1.00334 83.4376 1 83.471 1.00004C83.5045 1 83.5374 1.00334 83.5694 1.00976L119.529 7.35555C119.801 7.40354 119.982 7.66289 119.934 7.93483C119.886 8.20677 119.627 8.38832 119.355 8.34033L83.471 2.00785L47.587 8.34033Z" fill="#2F528F"/>
<path d="M94.5001 56.5435V43.8479L130.471 50.1957V62.8913L94.5001 56.5435Z" fill="#D6E0F1" stroke="#2F528F" stroke-linecap="round" stroke-linejoin="round"/>
<path d="M166.442 56.5435V43.8479L130.471 50.1957V62.8913L166.442 56.5435Z" fill="#D6E0F1" stroke="#2F528F" stroke-linecap="round" stroke-linejoin="round"/>
<path d="M130.471 50.1956L95.0291 43.8478L130.471 37.5L165.913 43.8478L130.471 50.1956Z" fill="#D6E0F1" stroke="#2F528F"/>
<path fill-rule="evenodd" clip-rule="evenodd" d="M94.587 44.3403C94.315 44.3883 94.0557 44.2068 94.0077 43.9348C93.9597 43.6629 94.1413 43.4035 94.4132 43.3555L130.373 37.0098C130.405 37.0033 130.438 37 130.471 37C130.504 37 130.537 37.0033 130.569 37.0098L166.529 43.3555C166.801 43.4035 166.982 43.6629 166.934 43.9348C166.886 44.2068 166.627 44.3883 166.355 44.3403L130.471 38.0079L94.587 44.3403Z" fill="#2F528F"/>
<path d="M0.500092 56.5435V43.8479L36.471 50.1957V62.8913L0.500092 56.5435Z" fill="#D6E0F1" stroke="#2F528F" stroke-linecap="round" stroke-linejoin="round"/>
<path d="M72.4419 56.5435V43.8479L36.471 50.1957V62.8913L72.4419 56.5435Z" fill="#D6E0F1" stroke="#2F528F" stroke-linecap="round" stroke-linejoin="round"/>
<path d="M36.471 50.1956L1.02908 43.8478L36.471 37.5L71.913 43.8478L36.471 50.1956Z" fill="#D6E0F1" stroke="#2F528F"/>
<path fill-rule="evenodd" clip-rule="evenodd" d="M0.586976 44.3403C0.315036 44.3883 0.0556814 44.2068 0.0076919 43.9348C-0.0402976 43.6629 0.141251 43.4035 0.413191 43.3555L36.3727 37.0098C36.4047 37.0033 36.4376 37 36.471 37C36.5045 37 36.5374 37.0033 36.5694 37.0098L72.5288 43.3555C72.8008 43.4035 72.9823 43.6629 72.9343 43.9348C72.8863 44.2068 72.627 44.3883 72.355 44.3403L36.471 38.0079L0.586976 44.3403Z" fill="#2F528F"/>
</svg>
