<?xml version="1.0" encoding="utf-8"?>
<!-- Generator: Adobe Illustrator 21.0.0, SVG Export Plug-In . SVG Version: 6.00 Build 0)  -->
<svg version="1.1" id="Слой_1" xmlns="http://www.w3.org/2000/svg" xmlns:xlink="http://www.w3.org/1999/xlink" x="0px" y="0px"
	 viewBox="0 0 280 200" style="enable-background:new 0 0 280 200;" xml:space="preserve">
<style type="text/css">
	.st0{fill:#45D4FB;}
</style>
<g>
	<path class="st0" d="M110,199.5c-3.3,0.3-6.7,0.5-10,0.5C44.8,200,0,155.2,0,100S44.8,0,100,0c3.3,0,6.7,0.2,10,0.5v30
		c-3.3-0.4-6.7-0.6-10-0.5c-38.7,0-70,31.3-70,70s31.3,70,70,70c3.3,0.1,6.7-0.1,10-0.5V199.5z"/>
	<path class="st0" d="M280,199.5c-3.3,0.3-6.7,0.5-10,0.5c-55.2,0-100-44.8-100-100S214.8,0,270,0c3.3,0,6.7,0.2,10,0.5v30
		c-3.3-0.4-6.7-0.6-10-0.5c-32.9,0-61.3,22.9-68.4,55H260v30h-58.4c7,32.1,35.5,55,68.4,55c3.3,0.1,6.7-0.1,10-0.5V199.5z"/>
</g>
</svg>
