<?xml version="1.0" encoding="UTF-8"?>
<svg width="85px" height="85px" viewBox="0 0 85 85" version="1.1" xmlns="http://www.w3.org/2000/svg" xmlns:xlink="http://www.w3.org/1999/xlink">
    <!-- Generator: Sketch 46.2 (44496) - http://www.bohemiancoding.com/sketch -->
    <title>Combined Shape Copy 4</title>
    <desc>Created with Sketch.</desc>
    <defs>
        <linearGradient x1="95.7828444%" y1="4.21715561%" x2="1.53096782%" y2="98.4690322%" id="linearGradient-1">
            <stop stop-color="#9EFBD3" offset="0%"></stop>
            <stop stop-color="#57E9F2" offset="47.8728925%"></stop>
            <stop stop-color="#45D4FB" offset="100%"></stop>
        </linearGradient>
    </defs>
    <g id="Page-1" stroke="none" stroke-width="1" fill="none" fill-rule="evenodd" fill-opacity="0.7">
        <g id="Medtech-2" transform="translate(-678.000000, -1988.000000)" fill="url(#linearGradient-1)">
            <g id="Group-35" transform="translate(678.000000, 1988.000000)">
                <path d="M42.5,85 C19.0278981,85 0,65.9721019 0,42.5 C0,19.0278981 19.0278981,0 42.5,0 C65.9721019,0 85,19.0278981 85,42.5 C85,65.9721019 65.9721019,85 42.5,85 Z M42.5,82.875 C64.7984968,82.875 82.875,64.7984968 82.875,42.5 C82.875,20.2015032 64.7984968,2.125 42.5,2.125 C20.2015032,2.125 2.125,20.2015032 2.125,42.5 C2.125,64.7984968 20.2015032,82.875 42.5,82.875 Z" id="Combined-Shape-Copy-4"></path>
            </g>
        </g>
    </g>
</svg>