<?xml version="1.0" encoding="UTF-8"?>
<svg width="20px" height="20px" viewBox="0 0 20 20" version="1.1" xmlns="http://www.w3.org/2000/svg" xmlns:xlink="http://www.w3.org/1999/xlink">
    <!-- Generator: Sketch 46.2 (44496) - http://www.bohemiancoding.com/sketch -->
    <title>Shape</title>
    <desc>Created with Sketch.</desc>
    <defs></defs>
    <g id="Page-1" stroke="none" stroke-width="1" fill="none" fill-rule="evenodd">
        <g id="Medtech-1-0-1" transform="translate(-1075.000000, -223.000000)" fill-rule="nonzero" fill="#C4C7D2">
            <path d="M1090.01953,224.337891 C1088.48307,223.445963 1086.8099,223 1085,223 C1083.1901,223 1081.51693,223.445963 1079.98047,224.337891 C1078.44401,225.229818 1077.22982,226.444011 1076.33789,227.980469 C1075.44596,229.516927 1075,231.190104 1075,233 C1075,234.809896 1075.44596,236.483073 1076.33789,238.019531 C1077.22982,239.555989 1078.44401,240.770182 1079.98047,241.662109 C1081.51693,242.554037 1083.1901,243 1085,243 C1086.8099,243 1088.48307,242.554037 1090.01953,241.662109 C1091.55599,240.770182 1092.77018,239.555989 1093.66211,238.019531 C1094.55404,236.483073 1095,234.809896 1095,233 C1095,231.190104 1094.55404,229.516927 1093.66211,227.980469 C1092.77018,226.444011 1091.55599,225.229818 1090.01953,224.337891 Z M1085,241.769531 C1084.04948,241.769531 1083.12826,241.623047 1082.23633,241.330078 C1081.3444,241.037109 1080.54036,240.617187 1079.82422,240.070313 C1079.10807,239.523437 1078.47982,238.891927 1077.93945,238.175781 C1077.39909,237.459635 1076.98242,236.655599 1076.68945,235.763672 C1076.39648,234.871745 1076.25,233.950521 1076.25,233 C1076.25,231.815104 1076.48112,230.682292 1076.94336,229.601563 C1077.4056,228.520833 1078.02734,227.589844 1078.80859,226.808594 C1079.58984,226.027344 1080.52083,225.405599 1081.60156,224.943359 C1082.68229,224.48112 1083.8151,224.25 1085,224.25 C1086.1849,224.25 1087.31771,224.48112 1088.39844,224.943359 C1089.47917,225.405599 1090.41016,226.027344 1091.19141,226.808594 C1091.97266,227.589844 1092.5944,228.520833 1093.05664,229.601563 C1093.51888,230.682292 1093.75,231.815104 1093.75,233 C1093.75,234.184896 1093.51888,235.317708 1093.05664,236.398437 C1092.5944,237.479167 1091.97266,238.413411 1091.19141,239.201172 C1090.41016,239.988932 1089.47917,240.613932 1088.39844,241.076172 C1087.31771,241.538411 1086.1849,241.769531 1085,241.769531 Z M1088.71094,229.904297 C1088.71094,229.728515 1088.65234,229.582031 1088.53516,229.464844 C1088.41797,229.347656 1088.27148,229.289063 1088.0957,229.289063 C1087.91992,229.289063 1087.77344,229.347656 1087.65625,229.464844 L1085,232.121094 L1082.34375,229.464844 C1082.22656,229.347656 1082.08008,229.289063 1081.9043,229.289063 C1081.72852,229.289063 1081.58203,229.347656 1081.46484,229.464844 C1081.34766,229.582031 1081.28906,229.728515 1081.28906,229.904297 C1081.28906,230.080078 1081.34766,230.226563 1081.46484,230.34375 L1084.12109,233 L1081.46484,235.65625 C1081.38672,235.734375 1081.33138,235.825521 1081.29883,235.929687 C1081.26628,236.033854 1081.26628,236.141276 1081.29883,236.251953 C1081.33138,236.36263 1081.38672,236.457031 1081.46484,236.535156 C1081.58203,236.652344 1081.72852,236.710937 1081.9043,236.710937 C1082.08008,236.710937 1082.22656,236.652344 1082.34375,236.535156 L1085,233.878906 L1087.65625,236.535156 C1087.77344,236.652344 1087.91992,236.710937 1088.0957,236.710937 C1088.27148,236.710937 1088.41797,236.652344 1088.53516,236.535156 C1088.61328,236.457031 1088.66862,236.36263 1088.70117,236.251953 C1088.73372,236.141276 1088.73372,236.033854 1088.70117,235.929687 C1088.66862,235.825521 1088.61328,235.734375 1088.53516,235.65625 L1085.87891,233 L1088.53516,230.34375 C1088.65234,230.226563 1088.71094,230.080078 1088.71094,229.904297 Z" id="Shape"></path>
        </g>
    </g>
</svg>