<?xml version="1.0" encoding="UTF-8"?>
<svg width="643px" height="634px" viewBox="0 0 643 634" version="1.1" xmlns="http://www.w3.org/2000/svg" xmlns:xlink="http://www.w3.org/1999/xlink">
    <!-- Generator: Sketch 46.2 (44496) - http://www.bohemiancoding.com/sketch -->
    <title>Group</title>
    <desc>Created with Sketch.</desc>
    <defs>
        <linearGradient x1="95.7828444%" y1="4.21715561%" x2="1.53096782%" y2="98.4690322%" id="linearGradient-1">
            <stop stop-color="#9EFBD3" offset="0%"></stop>
            <stop stop-color="#57E9F2" offset="47.8728925%"></stop>
            <stop stop-color="#45D4FB" offset="100%"></stop>
        </linearGradient>
    </defs>
    <g id="Page-1" stroke="none" stroke-width="1" fill="none" fill-rule="evenodd">
        <g id="Medtech-2" transform="translate(-404.000000, -986.000000)">
            <g id="Group-16" transform="translate(0.000000, 90.000000)">
                <g id="Group" transform="translate(371.000000, 896.000000)">
                    <g id="Group-31" opacity="0.358016304" transform="translate(88.000000, 49.000000)" stroke-linecap="square" stroke-width="2">
                        <g id="Group-26" transform="translate(144.000000, 0.000000)" stroke="#49D5FB">
                            <path d="M117.5,0.5 L0.5,507.5" id="Line-3"></path>
                            <path d="M233.5,0.5 L116.5,507.5" id="Line-3" transform="translate(175.000000, 254.000000) scale(-1, 1) translate(-175.000000, -254.000000) "></path>
                        </g>
                        <g id="Group-28" transform="translate(1.000000, 0.000000)" stroke="#55D7FB">
                            <g id="Group-27">
                                <path d="M259.5,0.5 L52.5,98.5" id="Line-4"></path>
                                <path d="M51.5,100.5 L0.5,320.5" id="Line-5"></path>
                                <path d="M1.5,321.5 L148.5,511.5" id="Line-6"></path>
                            </g>
                            <g id="Group-27" transform="translate(390.000000, 256.000000) scale(-1, 1) translate(-390.000000, -256.000000) translate(260.000000, 0.000000)">
                                <path d="M259.5,0.5 L52.5,98.5" id="Line-4"></path>
                                <path d="M51.5,100.5 L0.5,320.5" id="Line-5"></path>
                                <path d="M1.5,321.5 L148.5,511.5" id="Line-6"></path>
                            </g>
                        </g>
                        <path d="M54.5,99 L468.804236,99" id="Line-2" stroke="#49D5FB"></path>
                        <path d="M128.907843,506 L394.804236,506" id="Line-2-Copy" stroke="#49D5FB"></path>
                        <g id="Group-30" transform="translate(0.000000, 1.000000)" stroke="#55D7FB">
                            <g id="Group-29">
                                <path d="M261.5,0.5 L0.5,318.5" id="Line-7"></path>
                                <path d="M1.5,319.5 L380.5,505.5" id="Line-8"></path>
                                <path d="M522.5,319.5 L54.5,98.5" id="Line-9"></path>
                                <path d="M52.5,98.5 L382.5,506.5" id="Line-10"></path>
                                <path d="M53.5,98.5 L147.5,508.5" id="Line-11"></path>
                            </g>
                            <g id="Group-29" transform="translate(261.500000, 254.500000) scale(-1, 1) translate(-261.500000, -254.500000) ">
                                <path d="M261.5,0.5 L0.5,318.5" id="Line-7"></path>
                                <path d="M1.5,319.5 L380.5,505.5" id="Line-8"></path>
                                <path d="M522.5,319.5 L54.5,98.5" id="Line-9"></path>
                                <path d="M52.5,98.5 L382.5,506.5" id="Line-10"></path>
                                <path d="M53.5,98.5 L147.5,508.5" id="Line-11"></path>
                            </g>
                        </g>
                        <path d="M3.5,320 L521.885957,320" id="Line-12" stroke="#55D7FB"></path>
                    </g>
                    <circle id="Oval-4-Copy-3" fill="url(#linearGradient-1)" cx="87.5" cy="368.5" r="48.5"></circle>
                    <circle id="Oval-4-Copy-4" fill="url(#linearGradient-1)" cx="610.5" cy="368.5" r="48.5"></circle>
                    <circle id="Oval-4-Copy-5" fill="url(#linearGradient-1)" cx="233.5" cy="554.5" r="48.5"></circle>
                    <circle id="Oval-4-Copy-6" fill="url(#linearGradient-1)" cx="464.5" cy="554.5" r="48.5"></circle>
                    <circle id="Oval-4-Copy" fill="url(#linearGradient-1)" cx="142.5" cy="147.5" r="48.5"></circle>
                    <circle id="Oval-4-Copy-2" fill="url(#linearGradient-1)" cx="556.5" cy="147.5" r="48.5"></circle>
                    <circle id="Oval-4" fill="url(#linearGradient-1)" cx="349.5" cy="48.5" r="48.5"></circle>
                    <circle id="Oval-4-Copy-7" fill="url(#linearGradient-1)" cx="349" cy="310" r="130"></circle>
                    <circle id="Oval-4-Copy-7" fill="#FFFFFF" cx="349" cy="310" r="126"></circle>
                    <path d="M547.087682,133.433727 C549.988724,132.245874 553.135025,131.651948 556.526583,131.651948 C559.918141,131.651948 563.064442,132.245874 565.965485,133.433727 C568.866529,134.621578 571.157932,136.230703 572.839698,138.261102 C574.521461,140.291498 575.362343,142.508362 575.362343,144.91169 C575.362343,147.315019 574.521461,149.531882 572.839698,151.562279 C571.157932,153.592677 568.866529,155.201803 565.965485,156.389654 C563.064442,157.577506 559.918141,158.171432 556.526583,158.171432 L555.391392,158.171432 C554.998981,158.171432 554.662628,158.164526 554.382333,158.150714 C554.10204,158.136902 553.779702,158.102371 553.415319,158.047121 L551.943776,157.839938 L550.97676,159.000167 C550.836614,159.138289 550.605371,159.338565 550.283033,159.600998 C549.960695,159.86343 549.575291,160.160393 549.12682,160.491887 C548.67835,160.82338 548.145791,161.175592 547.529144,161.548522 C546.912497,161.921452 546.309864,162.24604 545.721247,162.522285 C546.001542,161.831674 546.225777,161.12725 546.393953,160.409013 C546.56213,159.690778 546.646217,159.000167 546.646217,158.337179 L546.688262,158.254306 L546.688262,156.389654 L545.216719,155.643794 C542.834218,154.455942 540.984278,152.922783 539.666896,151.044321 C538.349513,149.165857 537.690823,147.121647 537.690823,144.91169 C537.690823,142.508362 538.531706,140.291498 540.213469,138.261102 C541.895234,136.230703 544.186637,134.621578 547.087682,133.433727 Z M556.526583,129 C552.630495,129 549.028718,129.71133 545.721247,131.13399 C542.413778,132.556649 539.800036,134.490362 537.880021,136.935127 C535.960007,139.379891 535,142.038746 535,144.91169 C535,147.646512 535.784823,150.153432 537.35447,152.43245 C538.924117,154.711468 541.13844,156.569214 543.997439,158.005685 C543.997439,158.03331 543.990431,158.054028 543.976417,158.067841 C543.962402,158.081652 543.955394,158.102371 543.955394,158.129995 C543.955394,159.925585 543.240646,162.038857 541.811146,164.469809 C541.755086,164.607931 541.727057,164.759866 541.727057,164.925614 C541.727057,165.257107 541.846182,165.540257 542.084432,165.775066 C542.322682,166.009873 542.609983,166.127277 542.946336,166.127277 C542.974366,166.127277 543.04444,166.127277 543.156557,166.127277 C543.212615,166.127277 543.25466,166.127277 543.282689,166.127277 C544.572042,165.906281 545.959498,165.409042 547.445056,164.635555 C548.930614,163.862072 550.142886,163.116211 551.081872,162.397974 C552.020857,161.679739 552.67254,161.099624 553.036922,160.657633 C553.765687,160.768132 554.55051,160.82338 555.391392,160.82338 C555.503509,160.82338 555.6857,160.82338 555.937966,160.82338 C556.19023,160.82338 556.386436,160.82338 556.526583,160.82338 C560.422671,160.82338 564.024449,160.11205 567.331919,158.689391 C570.639388,157.266731 573.25313,155.333018 575.173145,152.888253 C577.09316,150.443489 578.053166,147.784634 578.053166,144.91169 C578.053166,141.016641 576.343373,137.577395 572.923785,134.593953 C569.36405,131.527638 564.89336,129.718235 559.511715,129.165747 C558.502656,129.055248 557.507613,129 556.526583,129 Z" id="Shape" fill="#FFFFFF" fill-rule="nonzero"></path>
                    <path d="M367.106831,44.1547906 C367.106831,43.16031 367.02975,42.1796421 366.875588,41.2127856 C366.721426,40.2459291 366.49719,39.2997917 366.202882,38.374372 C365.908573,37.4489524 365.551198,36.5580632 365.130758,35.7017059 C364.710316,34.8453472 364.219801,34.0166141 363.659213,33.2155036 C363.098625,32.4143946 362.481979,31.6547224 361.809273,30.9364857 C361.136568,30.2182504 360.400795,29.5483569 359.601958,28.9268067 C358.803119,28.3052565 357.969244,27.7320481 357.100333,27.2071829 C356.876098,27.069061 356.644855,27 356.406605,27 C356.168354,27 355.944119,27.0621546 355.733899,27.1864652 C355.523679,27.3107758 355.362509,27.4696155 355.250392,27.6629871 C355.054186,27.9944806 355.005135,28.3328806 355.103237,28.6781855 C355.20134,29.0234918 355.404554,29.2928307 355.712877,29.4862009 C358.431729,31.0607963 360.561964,33.1464426 362.103582,35.7431428 C363.645198,38.3398415 364.416008,41.1437246 364.416008,44.1547906 C364.416008,46.6409929 363.974545,48.9614477 363.091618,51.1161551 C362.208692,53.2708638 360.989412,55.1078904 359.43378,56.6272361 C357.878149,58.1465805 356.014194,59.3413391 353.841915,60.2115091 C351.669636,61.0816806 349.322173,61.5167656 346.799526,61.5167656 C346.435144,61.5167656 346.063754,61.5029528 345.685357,61.4753287 C345.30696,61.4477046 344.928563,61.4131741 344.550166,61.3717372 C344.171769,61.3303004 343.800379,61.2750507 343.435997,61.2059898 C343.071615,61.1369288 342.71424,61.0540551 342.363873,60.95737 C342.013505,60.8606849 341.656131,60.7570934 341.291747,60.6465941 C340.927365,60.5360977 340.576999,60.4117871 340.240646,60.2736651 C339.904293,60.1355418 339.560932,60.1355418 339.210564,60.2736651 C338.860198,60.4117871 338.61494,60.6465941 338.474793,60.9780891 C338.334646,61.3095812 338.341652,61.6479812 338.495814,61.9932875 C338.649976,62.3385938 338.895234,62.5803072 339.231587,62.7184292 C341.642115,63.6852857 344.164763,64.168714 346.799526,64.168714 C346.827555,64.168714 346.84157,64.168714 346.84157,64.168714 L346.84157,66.7792254 L342.931469,66.7792254 C342.539056,66.7792254 342.202703,66.9035361 341.92241,67.1521559 C341.642115,67.4007757 341.501969,67.7115515 341.501969,68.0844819 C341.501969,68.4574109 341.642115,68.7750931 341.92241,69.0375257 C342.202703,69.2999582 342.539056,69.4311738 342.931469,69.4311738 L353.568627,69.4311738 C353.96104,69.4311738 354.290385,69.2999582 354.556665,69.0375257 C354.822943,68.7750931 354.956083,68.4574109 354.956083,68.0844819 C354.956083,67.7115515 354.822943,67.4007757 354.556665,67.1521559 C354.290385,66.9035361 353.96104,66.7792254 353.568627,66.7792254 L349.490349,66.7792254 L349.490349,64.0029665 C354.703819,63.395229 358.943266,61.2681458 362.208692,57.6217168 C365.474117,53.9752878 367.106831,49.4863129 367.106831,44.1547906 Z M361.599052,44.2791012 C361.599052,42.7045072 361.353795,41.1713487 360.86328,39.6796285 C360.372766,38.1879068 359.672031,36.8412149 358.761075,35.6395499 C357.850118,34.4378863 356.785002,33.3881575 355.565723,32.4903619 C354.346443,31.5925664 352.98001,30.8950488 351.466422,30.3978092 C349.952835,29.9005682 348.397202,29.6519484 346.799526,29.6519484 C344.781409,29.6519484 342.861394,30.0386915 341.039483,30.8121751 C339.217572,31.5856614 337.640918,32.6284839 336.309521,33.9406467 C334.978124,35.2528081 333.927022,36.8135908 333.156213,38.6229918 C332.385405,40.4323943 332,42.3177641 332,44.2791012 C332,46.9310496 332.658692,49.3758136 333.976073,51.6133961 C335.293455,53.8509772 337.087337,55.6189427 339.357719,56.9172928 C341.628102,58.2156415 344.108703,58.8648172 346.799526,58.8648172 C348.817643,58.8648172 350.737658,58.478074 352.559569,57.7045891 C354.38148,56.9311042 355.958134,55.8951881 357.28953,54.596838 C358.620928,53.2984879 359.672031,51.7515181 360.442839,49.9559284 C361.213647,48.1603387 361.599052,46.2680625 361.599052,44.2791012 Z M334.648779,44.2791012 C334.648779,42.1243925 335.195353,40.1285262 336.288499,38.2914983 C337.381646,36.4544717 338.860198,34.997282 340.724153,33.9199276 C342.588108,32.8425732 344.613233,32.3038967 346.799526,32.3038967 C350.135025,32.3038967 352.987018,33.4779362 355.355502,35.8260151 C357.723987,38.1740955 358.908229,40.9917899 358.908229,44.2791012 C358.908229,45.9089448 358.592899,47.4559147 357.962236,48.9200109 C357.331575,50.384107 356.46967,51.6479266 355.376525,52.7114682 C354.283377,53.7750098 352.994024,54.6244621 351.508466,55.2598251 C350.022908,55.8951881 348.453261,56.2128689 346.799526,56.2128689 C343.464026,56.2128689 340.605028,55.0457358 338.222529,52.7114682 C335.840028,50.3772006 334.648779,47.5664126 334.648779,44.2791012 Z" id="Shape" fill="#FFFFFF" fill-rule="nonzero"></path>
                    <path d="M464.715437,575.3483 C462.052645,575.3483 459.593063,574.706031 457.336697,573.421493 C455.08033,572.136956 453.293455,570.396615 451.976073,568.20047 C450.65869,566.004326 450,563.607904 450,561.011204 C450,556.204548 453.27944,548.870253 459.838322,539.008321 C461.239791,536.881236 462.515129,535.058022 463.664334,533.538676 C463.9166,533.179559 464.266967,533 464.715437,533 C465.163908,533 465.52829,533.179559 465.808585,533.538676 C466.004791,533.787296 466.257055,534.125696 466.565379,534.553875 C466.873701,534.982055 467.413268,535.721009 468.184076,536.770738 C468.954886,537.820468 469.704672,538.911634 470.433436,540.044237 C471.162201,541.176841 471.982061,542.475189 472.893016,543.939287 C473.803972,545.403383 474.637847,546.867479 475.39464,548.331575 C476.151435,549.795673 476.859177,551.266675 477.517869,552.744584 C478.176559,554.222492 478.688096,555.679683 479.052479,557.116155 C479.416861,558.552627 479.599052,559.850977 479.599052,561.011204 C479.599052,562.558174 479.346788,564.063707 478.842258,565.527804 C478.337729,566.9919 477.629987,568.310968 476.71903,569.485008 C475.808074,570.659047 474.742957,571.688058 473.523679,572.572041 C472.304399,573.456024 470.937966,574.13973 469.424377,574.623158 C467.91079,575.106585 466.341144,575.3483 464.715437,575.3483 Z M464.757482,536.604992 C463.664334,538.124338 462.571189,539.726556 461.478042,541.411648 C460.384894,543.09674 459.102549,545.189294 457.631006,547.689307 C456.159462,550.189321 454.968212,552.634087 454.057256,555.023602 C453.146301,557.413118 452.690823,559.408986 452.690823,561.011204 C452.690823,564.215641 453.868057,566.964275 456.222529,569.257106 C458.576997,571.549936 461.407968,572.696352 464.715437,572.696352 C468.078966,572.696352 470.95198,571.549936 473.33448,569.257106 C475.716979,566.964275 476.908229,564.215641 476.908229,561.011204 C476.908229,559.878601 476.691001,558.559533 476.256545,557.054 C475.822089,555.548466 475.219457,554.001496 474.448649,552.413091 C473.677839,550.824684 472.871995,549.277714 472.031112,547.772181 C471.19023,546.266647 470.272268,544.747302 469.277223,543.214144 C468.28218,541.680987 467.441297,540.424074 466.754577,539.443406 C466.067856,538.462736 465.402158,537.516599 464.757482,536.604992 Z" id="Shape" fill="#FFFFFF" fill-rule="nonzero"></path>
                    <path d="M87.6947603,360.712745 C86.6016132,360.712745 85.5575179,360.926834 84.5624731,361.355014 C83.5674298,361.783193 82.7125331,362.349495 81.9977831,363.053919 C81.2830331,363.758341 80.7084297,364.600888 80.2739745,365.581556 C79.8395192,366.562224 79.6222916,367.591235 79.6222916,368.66859 C79.6222916,369.745944 79.8395192,370.781862 80.2739745,371.776342 C80.7084297,372.770823 81.2830331,373.620275 81.9977831,374.324699 C82.7125331,375.029122 83.5674298,375.588517 84.5624731,376.002885 C85.5575179,376.417252 86.6016132,376.624435 87.6947603,376.624435 C89.1803184,376.624435 90.5397437,376.272224 91.7730375,375.5678 C93.0063313,374.863376 93.9803533,373.903425 94.6951033,372.687949 C95.4098533,371.472473 95.767229,370.132686 95.767229,368.66859 C95.767229,366.486257 94.9824042,364.6147 93.4127575,363.053919 C91.8431108,361.493136 89.9371127,360.712745 87.6947603,360.712745 Z M87.6947603,373.972486 C86.7417598,373.972486 85.8448189,373.730773 85.0039374,373.247345 C84.1630545,372.763917 83.4973564,372.114742 83.0068417,371.29982 C82.5163269,370.484899 82.2710702,369.594009 82.2710702,368.627153 C82.2710702,367.908918 82.4112169,367.225211 82.6915102,366.576037 C82.971805,365.926863 83.3572098,365.360561 83.8477231,364.877132 C84.3382379,364.393704 84.9128412,364.013869 85.5715317,363.737623 C86.2302236,363.461378 86.9239508,363.323256 87.652716,363.323256 C89.1382741,363.323256 90.4066046,363.841215 91.4577075,364.877132 C92.5088104,365.91305 93.0343618,367.163057 93.0343618,368.627153 C93.0343618,370.091249 92.5158166,371.348162 91.4787289,372.397892 C90.4416413,373.447621 89.1803184,373.972486 87.6947603,373.972486 Z M109.095211,368.337096 C109.095211,368.309472 109.088203,368.274942 109.074188,368.233505 C109.060174,368.192068 109.053166,368.157537 109.053166,368.129913 C109.053166,368.102288 109.046159,368.08157 109.032145,368.067757 C109.01813,368.053946 109.011122,368.04704 109.011122,368.04704 C109.011122,368.04704 109.011122,368.033227 109.011122,368.005603 C109.011122,367.977979 108.997108,367.950354 108.969078,367.922729 C107.063078,363.585689 104.176049,360.180975 100.307992,357.708585 C96.4399347,355.236195 92.221508,354 87.652716,354 C84.6535693,354 81.7665402,354.538678 78.9916288,355.616032 C76.2167187,356.693385 73.7010792,358.288698 71.4447115,360.40197 C69.1883453,362.515241 67.4154848,365.022161 66.1261329,367.922729 C66.1261329,367.922729 66.1261329,367.936542 66.1261329,367.964166 C66.1261329,367.991791 66.1261329,368.012509 66.1261329,368.026322 C66.1261329,368.040133 66.1121176,368.060852 66.0840886,368.088476 C66.0840886,368.1161 66.0840886,368.157537 66.0840886,368.212787 C66.0560581,368.268035 66.0420443,368.295659 66.0420443,368.295659 C66.0140152,368.461407 66,368.585716 66,368.66859 C66,368.723839 66.0070076,368.779088 66.0210214,368.834337 C66.0350367,368.889585 66.0420443,368.944835 66.0420443,369.000083 C66.0420443,369.027707 66.0560581,369.069144 66.0840886,369.124394 C66.0840886,369.152018 66.0840886,369.179642 66.0840886,369.207266 C66.0840886,369.234892 66.0910962,369.255609 66.10511,369.269422 C66.1191252,369.283234 66.1261329,369.29014 66.1261329,369.29014 C66.1261329,369.29014 66.1261329,369.303953 66.1261329,369.331577 C66.1261329,369.359201 66.1261329,369.386826 66.1261329,369.414451 C68.0601615,373.751491 70.968212,377.142394 74.8502844,379.587159 C78.7323568,382.031923 82.971805,383.254306 87.5686275,383.254306 C90.5677742,383.254306 93.4477956,382.722536 96.2086919,381.658993 C98.9695881,380.595451 101.471212,379.013951 103.713565,376.914491 C105.955917,374.815032 107.707755,372.315019 108.969078,369.414451 C108.997108,369.414451 109.011122,369.400638 109.011122,369.373014 C109.011122,369.34539 109.011122,369.32467 109.011122,369.310859 C109.011122,369.297046 109.01813,369.283234 109.032145,369.269422 C109.046159,369.255609 109.053166,369.248703 109.053166,369.248703 C109.053166,369.221079 109.053166,369.179642 109.053166,369.124394 C109.081195,369.069144 109.095211,369.04152 109.095211,369.04152 C109.12324,368.875774 109.137255,368.751463 109.137255,368.66859 C109.137255,368.613342 109.130247,368.558092 109.116232,368.502844 C109.102218,368.447594 109.095211,368.392346 109.095211,368.337096 Z M87.5686275,380.602357 C83.5884512,380.602357 79.902585,379.573346 76.5110273,377.515324 C73.1194696,375.457302 70.5407629,372.50839 68.7749115,368.66859 C70.5407629,364.828789 73.1334834,361.866066 76.5530716,359.780419 C79.9726583,357.694772 83.6725398,356.651948 87.652716,356.651948 C90.2314213,356.651948 92.7050151,357.09394 95.0735004,357.977923 C97.4419857,358.861905 99.621271,360.22241 101.611359,362.059438 C103.601447,363.896465 105.185109,366.099515 106.362343,368.66859 C104.596491,372.50839 102.017785,375.457302 98.6262276,377.515324 C95.2346699,379.573346 91.5488023,380.602357 87.5686275,380.602357 Z" id="Shape" fill="#FFFFFF" fill-rule="nonzero"></path>
                    <path d="M236.696468,535.651948 L236.738512,535.651948 L236.696468,535.651948 Z M236.696468,535.651948 L233.669292,551.356454 L244.684848,551.397891 L229.717145,572.696352 L232.744321,555.41725 L221.728765,555.375814 L236.696468,535.651948 Z M236.696468,533 C236.668437,533 236.640408,533 236.612379,533 C236.58435,533 236.542306,533 236.486246,533 C236.262011,533.027624 236.065806,533.075967 235.897629,533.145028 C235.729452,533.214089 235.540255,533.317681 235.330034,533.455803 C235.119814,533.593925 234.930615,533.759672 234.762438,533.953044 C234.734409,533.980668 234.713387,534.008292 234.699372,534.035916 C234.685357,534.063542 234.664335,534.091166 234.636306,534.11879 L219.542472,553.759783 C218.897795,554.643766 218.827722,555.569185 219.33225,556.536042 C219.416339,556.701788 219.521449,556.860629 219.647582,557.012564 C219.773713,557.164498 219.913861,557.30262 220.068023,557.426929 C220.222184,557.55124 220.390361,557.654832 220.572552,557.737705 C220.754743,557.820579 220.943941,557.882734 221.140148,557.92417 C221.336354,557.965607 221.532559,557.986325 221.728765,557.986325 L229.506925,558.027762 L227.026322,572.240548 C226.914204,572.848286 227.012308,573.421493 227.320632,573.960171 C227.628954,574.498848 228.063411,574.892496 228.623999,575.141116 C228.792175,575.223989 228.967358,575.279239 229.149551,575.306863 C229.331742,575.334487 229.52094,575.3483 229.717145,575.3483 C230.529999,575.3483 231.216718,574.989182 231.777306,574.270946 L246.871141,552.972485 C247.515818,552.088502 247.585891,551.163084 247.081362,550.196227 C246.576832,549.229371 245.777995,548.745943 244.684848,548.745943 L236.906688,548.745943 L239.345246,536.273499 C239.373275,536.163001 239.394297,536.059409 239.408312,535.962723 C239.422327,535.866038 239.429335,535.762446 239.429335,535.651948 C239.429335,535.403327 239.394297,535.16852 239.324224,534.947524 C239.25415,534.726529 239.163055,534.519344 239.050938,534.325974 C238.93882,534.132603 238.80568,533.953044 238.651518,533.787296 C238.497356,533.62155 238.322173,533.483428 238.125966,533.372929 C237.929762,533.262433 237.71954,533.172652 237.495305,533.103591 C237.27107,533.03453 237.046835,533 236.822599,533 C236.79457,533 236.773549,533 236.759534,533 C236.745518,533 236.724497,533 236.696468,533 Z" id="Shape" fill="#FFFFFF" fill-rule="nonzero"></path>
                    <path d="M142.84157,126 C140.122718,126 137.621094,126.662987 135.336697,127.988961 C133.052301,129.314935 131.258419,131.117432 129.955051,133.396449 C128.651684,135.675467 128,138.168576 128,140.875773 C128,141.870253 128.077081,142.809486 128.231243,143.693469 C128.385405,144.577451 128.60964,145.37856 128.903949,146.096796 C129.198257,146.815032 129.506581,147.4573 129.828919,148.023602 C130.151258,148.589904 130.550676,149.142394 131.027176,149.68107 C131.503675,150.219747 131.910101,150.654833 132.246456,150.986327 C132.582807,151.31782 133.003249,151.704562 133.507779,152.146553 C133.591867,152.229427 133.717999,152.339925 133.886176,152.478047 C134.446764,152.975288 134.85319,153.348218 135.105454,153.596838 C135.357719,153.845458 135.588962,154.135514 135.799182,154.467008 C136.009403,154.798502 136.114513,155.116184 136.114513,155.420052 L136.114513,157.657633 C136.114513,157.685258 136.128528,157.740507 136.156557,157.82338 L136.114513,157.82338 L136.114513,161.676992 C136.114513,163.002966 136.394806,164.177007 136.955396,165.199112 C137.515983,166.221217 138.307813,167.01542 139.330887,167.581722 C140.353961,168.148024 141.538203,168.431174 142.883614,168.431174 C144.873703,168.431174 146.485392,167.809624 147.718687,166.566523 C148.95198,165.323421 149.568627,163.693579 149.568627,161.676992 L149.568627,157.82338 L149.526583,157.82338 C149.526583,157.82338 149.526583,157.809568 149.526583,157.781943 C149.554612,157.726695 149.568627,157.685258 149.568627,157.657633 L149.568627,155.420052 C149.568627,154.922812 149.715782,154.432478 150.01009,153.949049 C150.304399,153.465621 150.598707,153.085786 150.893017,152.80954 C151.187326,152.533296 151.726891,152.049868 152.511715,151.359257 C153.016245,150.917266 153.429678,150.544335 153.752016,150.240466 C154.074354,149.936596 154.459758,149.529135 154.908229,149.018083 C155.356699,148.507031 155.728089,147.995978 156.022398,147.484926 C156.316706,146.973873 156.604009,146.386852 156.884302,145.723865 C157.164597,145.060878 157.367809,144.321925 157.493942,143.507003 C157.620075,142.692081 157.68314,141.815005 157.68314,140.875773 C157.68314,139.522174 157.507957,138.203107 157.157589,136.918569 C156.807221,135.634031 156.316706,134.453085 155.686045,133.375732 C155.055383,132.298377 154.284575,131.29699 153.373619,130.371571 C152.462664,129.446151 151.467619,128.665761 150.388487,128.030398 C149.309356,127.395035 148.125114,126.897796 146.83576,126.538676 C145.546408,126.179559 144.215011,126 142.84157,126 Z M142.799526,165.779225 C141.538203,165.779225 140.557174,165.413201 139.856439,164.681153 C139.155704,163.949105 138.805336,162.947718 138.805336,161.676992 L138.805336,159.895215 C139.954541,160.281957 141.299953,160.475329 142.84157,160.475329 C143.654423,160.475329 144.397202,160.420081 145.069907,160.309581 C145.742613,160.199085 146.345245,160.04715 146.877805,159.853778 L146.877805,161.676992 C146.877805,162.975342 146.52043,163.983636 145.80568,164.701871 C145.09093,165.420108 144.088879,165.779225 142.799526,165.779225 Z M150.745862,149.370296 C150.689804,149.39792 150.605715,149.466981 150.493597,149.577479 C149.90498,150.074718 149.45651,150.475274 149.148186,150.779142 C148.839864,151.083012 148.47548,151.490473 148.055039,152.001525 C147.634599,152.512577 147.333283,153.044349 147.151092,153.596838 C146.968901,154.149327 146.877805,154.757065 146.877805,155.420052 L146.877805,157.07752 C145.924805,157.602385 144.565379,157.864817 142.799526,157.864817 C142.351055,157.864817 141.937622,157.844098 141.559224,157.802663 C141.180827,157.761226 140.851482,157.719789 140.571189,157.678352 C140.290894,157.636915 140.031622,157.581667 139.793373,157.512605 C139.555123,157.443544 139.365924,157.381389 139.225777,157.326141 C139.085629,157.270891 138.945483,157.20183 138.805336,157.118956 L138.805336,155.420052 C138.805336,154.066454 138.034528,152.671418 136.49291,151.234946 C136.296704,151.069199 136.002395,150.806766 135.609984,150.447649 L135.315674,150.199029 C134.839175,149.784662 134.45377,149.425544 134.159462,149.121674 C133.865153,148.817805 133.514786,148.43797 133.108359,147.982165 C132.701932,147.526363 132.372587,147.070559 132.120323,146.614754 C131.868059,146.158952 131.622801,145.640993 131.384551,145.060878 C131.146301,144.480765 130.971118,143.838497 130.859,143.134073 C130.746882,142.429649 130.690823,141.676882 130.690823,140.875773 C130.690823,137.477963 131.868059,134.591208 134.222529,132.215504 C136.576999,129.839801 139.450013,128.651948 142.84157,128.651948 C145.083923,128.651948 147.137076,129.197531 149.001032,130.288698 C150.864987,131.379864 152.329524,132.864679 153.394642,134.743143 C154.459758,136.621606 154.992318,138.665816 154.992318,140.875773 C154.992318,141.621634 154.943266,142.319151 154.845163,142.968325 C154.747059,143.617501 154.592899,144.204521 154.382678,144.729386 C154.172458,145.25425 153.948222,145.71696 153.709972,146.117515 C153.471723,146.518069 153.170407,146.92553 152.806023,147.339898 C152.441641,147.754263 152.119304,148.09957 151.839009,148.375814 C151.558716,148.652059 151.194332,148.983552 150.745862,149.370296 Z" id="Shape" fill="#FFFFFF" fill-rule="nonzero"></path>
                    <path d="M627.190919,376.461489 C626.854566,376.047121 626.574271,375.701815 626.350036,375.425571 C626.125801,375.149326 625.852515,374.790208 625.530176,374.348217 C625.207839,373.906225 624.941559,373.498764 624.731339,373.125834 C624.521118,372.752904 624.310898,372.338538 624.100676,371.882734 C623.890456,371.426929 623.729287,370.971127 623.617169,370.515323 C623.505051,370.05952 623.448993,369.624433 623.448993,369.210068 L623.448993,360.549798 C623.448993,358.698959 623.11264,356.9379 622.439935,355.266619 C621.767229,353.59534 620.86328,352.158868 619.728089,350.957203 C618.592899,349.75554 617.226465,348.79559 615.628789,348.077353 C614.031113,347.359118 612.335334,347 610.541452,347 C608.186982,347 606.02171,347.607737 604.045637,348.823214 C602.069564,350.03869 600.520939,351.682347 599.399763,353.75418 C598.278587,355.826015 597.717999,358.091222 597.717999,360.549798 L597.717999,369.210068 C597.717999,369.707307 597.647925,370.211453 597.507779,370.722507 C597.367632,371.233559 597.115368,371.786049 596.750984,372.379975 C596.386602,372.973899 596.106308,373.415891 595.910103,373.705949 C595.713897,373.996006 595.349515,374.486339 594.816956,375.176951 C594.284397,375.867563 593.976074,376.254304 593.891986,376.337178 C593.555633,376.806794 593.303369,377.159006 593.135191,377.393813 C592.967014,377.628622 592.77081,377.932491 592.546574,378.305422 C592.322339,378.678352 592.175185,378.98222 592.105111,379.217028 C592.035037,379.451837 592,379.721174 592,380.025044 C592,380.328913 592.070073,380.61897 592.210221,380.895214 C592.686721,381.806822 593.849941,382.262625 595.699881,382.262625 L603.393954,382.262625 C603.393954,384.223962 604.094689,385.895243 605.496159,387.276465 C606.89763,388.657689 608.593408,389.3483 610.583496,389.3483 C612.573584,389.3483 614.269362,388.657689 615.670833,387.276465 C617.072304,385.895243 617.773039,384.223962 617.773039,382.262625 L625.635286,382.262625 C627.485228,382.262625 628.620418,381.806822 629.040859,380.895214 C629.152977,380.701844 629.216044,380.501566 629.230058,380.294383 C629.244073,380.087199 629.244073,379.900733 629.230058,379.734987 C629.216044,379.56924 629.152977,379.368963 629.040859,379.134155 C628.928741,378.899348 628.830639,378.69907 628.746551,378.533322 C628.662462,378.367576 628.515308,378.146581 628.305088,377.870335 C628.094868,377.594091 627.919683,377.373096 627.779536,377.207348 C627.63939,377.041602 627.443183,376.792982 627.190919,376.461489 Z M610.583496,386.572041 C609.994879,386.572041 609.434291,386.454637 608.901732,386.21983 C608.369173,385.985021 607.906688,385.681152 607.514276,385.308223 C607.121865,384.935293 606.806534,384.479488 606.568284,383.940812 C606.330034,383.402134 606.210909,382.84274 606.210909,382.262625 L614.956083,382.262625 C614.956083,383.450477 614.528636,384.465676 613.673737,385.308223 C612.818841,386.150769 611.788761,386.572041 610.583496,386.572041 Z M625.635286,379.444931 L595.699881,379.444931 C595.643823,379.444931 595.580758,379.444931 595.510683,379.444931 C595.44061,379.444931 595.377544,379.444931 595.321486,379.444931 C595.265426,379.444931 595.223382,379.444931 595.195353,379.444931 C595.363529,379.168685 595.699881,378.69907 596.204411,378.036083 C596.232441,377.980834 596.512735,377.607904 597.045293,376.917291 C597.577852,376.22668 597.92822,375.770877 598.096396,375.549882 C598.264573,375.328886 598.558882,374.879988 598.979323,374.203188 C599.399763,373.526389 599.687065,372.980806 599.841227,372.566438 C599.995388,372.152073 600.156557,371.627207 600.324734,370.991844 C600.49291,370.356481 600.576999,369.762557 600.576999,369.210068 L600.576999,360.549798 C600.576999,357.566357 601.537005,355.031812 603.45702,352.946165 C605.377034,350.860518 607.738511,349.817694 610.541452,349.817694 C611.354304,349.817694 612.139129,349.914381 612.895922,350.107751 C613.652716,350.301123 614.360458,350.570462 615.019149,350.915767 C615.677841,351.261073 616.294487,351.682347 616.86909,352.179586 C617.443694,352.676826 617.962238,353.236221 618.424722,353.857772 C618.887208,354.479323 619.279618,355.135404 619.601958,355.826015 C619.924295,356.516626 620.169553,357.262487 620.337729,358.063596 C620.505906,358.864705 620.589993,359.69344 620.589993,360.549798 L620.589993,369.210068 C620.589993,370.066425 620.716126,370.92969 620.96839,371.79986 C621.220655,372.670031 621.606059,373.519484 622.124603,374.348217 C622.643147,375.176951 623.091618,375.846843 623.470015,376.357897 C623.848412,376.86895 624.345934,377.497406 624.96258,378.243266 C625.046669,378.353763 625.109735,378.436637 625.151779,378.491887 C625.193823,378.547135 625.256889,378.623102 625.340978,378.719787 C625.425066,378.816474 625.49514,378.899348 625.551199,378.968409 C625.607257,379.03747 625.670323,379.113437 625.740398,379.196309 C625.810471,379.279183 625.873537,379.362057 625.929595,379.444931 C625.873537,379.444931 625.824485,379.444931 625.78244,379.444931 C625.740398,379.444931 625.691346,379.444931 625.635286,379.444931 Z" id="Shape" fill="#FFFFFF" fill-rule="nonzero"></path>
                    <text id="PAYERS" font-family="OpenSans, Open Sans" font-size="15" font-weight="normal" line-spacing="25" fill="#475069">
                        <tspan x="323.438477" y="125">PAYERS</tspan>
                    </text>
                    <text id="DOCTORS" font-family="OpenSans, Open Sans" font-size="15" font-weight="normal" line-spacing="25" fill="#475069">
                        <tspan x="107.367432" y="224">DOCTORS</tspan>
                    </text>
                    <text id="GOVERNMENTS" font-family="OpenSans, Open Sans" font-size="15" font-weight="normal" line-spacing="25" fill="#475069">
                        <tspan x="32.9841309" y="445">GOVERNMENTS</tspan>
                    </text>
                    <text id="MEDICAL-DEVICES" font-family="OpenSans, Open Sans" font-size="15" font-weight="normal" line-spacing="25" fill="#475069">
                        <tspan x="170.967773" y="631">MEDICAL DEVICES</tspan>
                    </text>
                    <text id="PROVIDERS" font-family="OpenSans, Open Sans" font-size="15" font-weight="normal" line-spacing="25" fill="#475069">
                        <tspan x="425.134277" y="631">PROVIDERS</tspan>
                    </text>
                    <text id="PHARMACEUTICAL-COMPA" font-family="OpenSans, Open Sans" font-size="15" font-weight="normal" line-spacing="20" fill="#475069">
                        <tspan x="546.228271" y="447">PHARMACEUTICAL </tspan>
                        <tspan x="568.885742" y="467">COMPANIES</tspan>
                    </text>
                    <text id="PHARMACIES" font-family="OpenSans, Open Sans" font-size="15" font-weight="normal" line-spacing="25" fill="#475069">
                        <tspan x="511.091797" y="224">PHARMACIES</tspan>
                    </text>
                    <text id="Better-patient-and-h" font-family="OpenSans-Light, Open Sans" font-size="28" font-weight="300" line-spacing="33" fill="#475069">
                        <tspan x="259" y="274">Better patient </tspan>
                        <tspan x="278.728516" y="307">and health </tspan>
                        <tspan x="301.642578" y="340">system </tspan>
                        <tspan x="283.274414" y="373">outcomes</tspan>
                    </text>
                </g>
            </g>
        </g>
    </g>
</svg>