<?xml version="1.0" encoding="UTF-8"?>
<svg width="40px" height="40px" viewBox="0 0 40 40" version="1.1" xmlns="http://www.w3.org/2000/svg" xmlns:xlink="http://www.w3.org/1999/xlink">
    <!-- Generator: Sketch 46.2 (44496) - http://www.bohemiancoding.com/sketch -->
    <title>Shape</title>
    <desc>Created with Sketch.</desc>
    <defs>
        <linearGradient x1="95.7828444%" y1="4.21715561%" x2="1.53096782%" y2="98.4690322%" id="linearGradient-1">
            <stop stop-color="#9EFBD3" offset="0%"></stop>
            <stop stop-color="#57E9F2" offset="47.8728925%"></stop>
            <stop stop-color="#45D4FB" offset="100%"></stop>
        </linearGradient>
    </defs>
    <g id="Page-1" stroke="none" stroke-width="1" fill="none" fill-rule="evenodd">
        <g id="Medtech-2" transform="translate(-380.000000, -412.000000)" fill-rule="nonzero" fill="url(#linearGradient-1)">
            <g id="Group-16" transform="translate(0.000000, 90.000000)">
                <path d="M380.878975,333.783097 L399.423344,343.905227 C399.605533,343.983389 399.800737,344.022471 400.008955,344.022471 C400.113064,344.022471 400.217172,344.009445 400.321281,343.983389 C400.42539,343.957335 400.516485,343.931281 400.594566,343.905227 L419.373179,333.783097 C419.815641,333.548608 420.023858,333.170819 419.997831,332.649731 C419.997831,332.415241 419.93927,332.200293 419.822148,332.004885 C419.705025,331.809477 419.542355,331.659664 419.334138,331.555446 L400.78977,322.136785 C400.399363,321.954405 400.021968,321.954405 399.657588,322.136785 L380.918016,331.555446 C380.709799,331.659664 380.540622,331.809477 380.410487,332.004885 C380.28035,332.200293 380.215282,332.415241 380.215282,332.649731 C380.215282,333.170819 380.436514,333.548608 380.878975,333.783097 Z M400.204158,324.638006 L416.054712,332.727894 L400.008955,341.364924 L384.158401,332.727894 L400.204158,324.638006 Z M419.099893,340.739619 L415.39102,338.863703 L412.736247,340.309721 L415.859509,341.912066 L399.81375,350.549095 L383.963196,341.912066 L387.281663,340.231557 L384.62689,338.785539 L380.683772,340.739619 C380.241309,340.974108 380.013572,341.345383 380.000558,341.853444 C379.987545,342.361504 380.202269,342.732779 380.644731,342.967269 L399.189098,353.089398 C399.397315,353.193616 399.605533,353.245725 399.81375,353.245725 C399.91786,353.245725 400.015462,353.232698 400.106557,353.206644 C400.197651,353.18059 400.295254,353.141508 400.399363,353.089398 L419.138934,342.967269 C419.581396,342.732779 419.802626,342.361504 419.802626,341.853444 C419.802626,341.345383 419.568382,340.974108 419.099893,340.739619 Z M419.099893,349.493893 L415.586224,347.774303 L412.93145,349.220323 L415.859509,350.666341 L399.81375,359.30337 L383.963196,350.666341 L387.047417,349.259404 L384.392645,347.813385 L380.683772,349.493893 C380.241309,349.728383 380.013572,350.099657 380.000558,350.607719 C379.987545,351.115779 380.202269,351.487053 380.644731,351.721544 L399.189098,361.843673 C399.26718,361.869727 399.338755,361.895782 399.403822,361.921837 C399.46889,361.947891 399.533959,361.967432 399.599027,361.980458 C399.664095,361.993486 399.73567,362 399.81375,362 C399.91786,362 400.015462,361.986972 400.106557,361.960918 C400.197651,361.934864 400.295254,361.895782 400.399363,361.843673 L419.138934,351.721544 C419.581396,351.487053 419.802626,351.115779 419.802626,350.607719 C419.802626,350.099657 419.568382,349.728383 419.099893,349.493893 Z" id="Shape"></path>
            </g>
        </g>
    </g>
</svg>