<?xml version="1.0" encoding="UTF-8"?>
<svg width="26px" height="22px" viewBox="0 0 26 22" version="1.1" xmlns="http://www.w3.org/2000/svg" xmlns:xlink="http://www.w3.org/1999/xlink">
    <!-- Generator: Sketch 46.2 (44496) - http://www.bohemiancoding.com/sketch -->
    <title>Shape</title>
    <desc>Created with Sketch.</desc>
    <defs></defs>
    <g id="Page-1" stroke="none" stroke-width="1" fill="none" fill-rule="evenodd">
        <g id="Medtech-2" transform="translate(-489.000000, -2008.000000)" fill-rule="nonzero" fill="#FFFFFF">
            <g id="Group-33" transform="translate(0.000000, 1726.000000)">
                <g id="Group-2" transform="translate(464.000000, 263.000000)">
                    <g id="Group-8">
                        <path d="M43.8606743,23.7707866 C43.3003743,22.2711609 42.4228462,21.1011233 41.2280894,20.2606736 C40.0333333,19.4202248 38.5625469,19 36.81573,19 C34.5580523,19 32.6917603,19.7374528 31.2168538,21.2123593 C29.7419474,22.6872657 28.9303369,24.5453186 28.7820225,26.7865171 C27.6779025,27.1490635 26.7715352,27.8370787 26.0629217,28.850562 C25.3543072,29.8640444 25,31.0052436 25,32.2741573 C25,33.8232205 25.5273408,35.1662918 26.5820225,36.3033702 C27.6367041,37.4404495 28.8891385,38.0089887 30.3393258,38.0089887 L31.031461,38.0089887 C31.1468162,38.0089887 31.2539322,37.9883895 31.352809,37.9471911 C31.451685,37.9059919 31.5340827,37.8483143 31.6000003,37.7741566 C31.6659179,37.6999999 31.7194754,37.6134831 31.7606738,37.5146062 C31.8018722,37.4157303 31.8224723,37.3168534 31.8224723,37.2179775 C31.8224723,37.0037446 31.7483146,36.8183518 31.6000003,36.6617974 C31.451685,36.505243 31.2621722,36.4269662 31.031461,36.4269662 L30.3393258,36.4269662 C29.3176034,36.4269662 28.4318353,36.0149814 27.6820225,35.191011 C26.9322097,34.3670405 26.5573033,33.3947565 26.5573033,32.2741573 C26.5573033,31.2853932 26.8621721,30.3955052 27.4719105,29.604494 C28.0816481,28.8134827 28.8232209,28.3438203 29.696629,28.1955051 L30.4134834,28.0719099 L30.364045,27.3303371 L30.3393258,27.3303371 C30.3393258,25.3692882 30.9325842,23.7543074 32.1191011,22.4853929 C33.3056179,21.2164793 34.8711612,20.5820225 36.81573,20.5820225 C39.7655429,20.5820225 41.6689134,21.9745313 42.5258422,24.7595506 L42.6988758,25.3033706 L43.2674159,25.3280898 C44.2396999,25.344569 45.1460671,25.5917602 45.9865168,26.0696626 C46.8269664,26.547565 47.5026216,27.2026219 48.0134832,28.0348315 C48.524344,28.8670412 48.7797753,29.7610484 48.7797753,30.716854 C48.7797753,31.1782772 48.7303369,31.6355805 48.63146,32.0887637 C48.532584,32.5419477 48.3966288,32.9786517 48.2235952,33.3988765 C48.0505616,33.8191005 47.8280896,34.2146061 47.5561792,34.5853934 C47.2842696,34.9561798 46.98764,35.2775278 46.666292,35.5494382 C46.344944,35.8213478 45.9782767,36.0355806 45.5662919,36.1921342 C45.1543071,36.3486886 44.7258423,36.4269662 44.2808983,36.4269662 L44.0584271,36.4269662 C43.9595503,36.4269662 43.8606743,36.4475654 43.7617975,36.4887638 C43.6629215,36.5299622 43.5764047,36.5876398 43.5022471,36.6617974 C43.4280894,36.735955 43.3704119,36.8183518 43.3292135,36.9089886 C43.2880151,36.9996255 43.2674159,37.1026214 43.2674159,37.2179775 C43.2674159,37.4322095 43.3456927,37.6176031 43.5022471,37.7741566 C43.6588015,37.9307111 43.8441943,38.0089887 44.0584271,38.0089887 C45.0142319,37.9760295 45.8958799,37.7411983 46.7033704,37.3044943 C47.5108616,36.8677902 48.1700377,36.299251 48.6808984,35.5988758 C49.1917601,34.8985014 49.5913857,34.1280893 49.8797753,33.2876405 C50.1681649,32.4471909 50.3123593,31.5902621 50.3123593,30.716854 C50.3123593,28.9205987 49.6902617,27.3632955 48.4460672,26.0449434 C47.2018728,24.7265914 45.6734079,23.9685394 43.8606743,23.7707866 Z M40.968539,36.501123 C40.869663,36.3857678 40.7419478,36.3280894 40.5853934,36.3280894 C40.428839,36.3280894 40.2928837,36.3857678 40.1775277,36.501123 L38.4471909,38.4292135 L38.4471909,30.4696628 C38.4471909,30.4202244 38.4389509,30.3666668 38.4224717,30.3089884 C38.4059925,30.2513108 38.3895133,30.2018724 38.3730333,30.160674 C38.3565541,30.1194756 38.3318349,30.0741572 38.2988765,30.0247188 C38.2659173,29.9752804 38.2329589,29.934082 38.1999997,29.9011236 C38.1670413,29.8681644 38.1299621,29.839326 38.0887637,29.8146068 C38.0475653,29.7898876 38.0022469,29.7651684 37.9528084,29.7404492 C37.9033709,29.71573 37.8539325,29.6992508 37.804494,29.6910108 C37.7550565,29.6827716 37.7056181,29.6786516 37.6561797,29.6786516 C37.4254676,29.6786516 37.2359548,29.7569284 37.0876404,29.9134828 C36.939326,30.0700372 36.8651684,30.2554308 36.8651684,30.4696628 L36.8651684,38.4292135 L35.1842691,36.5505614 C35.068914,36.4352054 34.9329588,36.3734078 34.7764043,36.3651686 C34.6198499,36.3569286 34.4838947,36.402247 34.3685396,36.501123 L34.1707867,36.624719 C34.0554307,36.7400742 33.9977523,36.8801494 33.9977523,37.0449439 C33.9977523,37.2097374 34.0554307,37.3498127 34.1707867,37.4651687 L37.038202,40.6044944 C37.038202,40.6209736 37.038202,40.6292136 37.038202,40.6292136 L37.2359548,40.8269656 C37.3513108,40.9423216 37.4872661,41 37.6438205,41 C37.800374,41 37.9363293,40.9423216 38.0516853,40.8269656 L38.2494381,40.6292136 C38.2494381,40.6292136 38.2494381,40.6209736 38.2494381,40.6044944 L41.1662918,37.4157303 C41.413483,37.168539 41.413483,36.9213478 41.1662918,36.6741575 L40.968539,36.501123 Z" id="Shape"></path>
                    </g>
                </g>
            </g>
        </g>
    </g>
</svg>