<svg width="325" height="325" viewBox="0 0 325 325" fill="none" xmlns="http://www.w3.org/2000/svg">
<path d="M195.766 197.903C183.955 202.812 171.291 205.339 158.5 205.339C145.709 205.339 133.045 202.812 121.234 197.903C125.835 174.222 139.128 153.119 158.5 138.743C177.872 153.119 191.165 174.222 195.766 197.903Z" fill="#00BAE6"/>
<path d="M195.766 197.903C183.955 202.812 171.291 205.339 158.5 205.339C145.709 205.339 133.045 202.812 121.234 197.903C125.835 174.222 139.128 153.119 158.5 138.743C177.872 153.119 191.165 174.222 195.766 197.903Z" fill="#00BAE6"/>
<path opacity="0.08" d="M158.5 205.339C211.907 205.339 255.202 162.044 255.202 108.637C255.202 55.2299 211.907 11.935 158.5 11.935C105.093 11.935 61.7982 55.2299 61.7982 108.637C61.7982 162.044 105.093 205.339 158.5 205.339Z" fill="#0B141F"/>
<path opacity="0.08" d="M100.824 313.065C154.231 313.065 197.526 269.77 197.526 216.363C197.526 162.956 154.231 119.661 100.824 119.661C47.417 119.661 4.12207 162.956 4.12207 216.363C4.12207 269.77 47.417 313.065 100.824 313.065Z" fill="#0B141F"/>
<path opacity="0.08" d="M216.159 313.065C269.566 313.065 312.861 269.77 312.861 216.363C312.861 162.956 269.566 119.661 216.159 119.661C162.752 119.661 119.457 162.956 119.457 216.363C119.457 269.77 162.752 313.065 216.159 313.065Z" fill="#0B141F"/>
<path d="M132.667 90.678H126.402V97.2712H124.433V82.3416H133.682V83.9617H126.402V89.0681H132.667V90.678ZM137.804 97.2712H135.907V86.1765H137.804V97.2712ZM135.754 83.2336C135.754 82.926 135.846 82.6663 136.031 82.4543C136.222 82.2424 136.502 82.1365 136.871 82.1365C137.24 82.1365 137.521 82.2424 137.712 82.4543C137.904 82.6663 137.999 82.926 137.999 83.2336C137.999 83.5413 137.904 83.7976 137.712 84.0027C137.521 84.2078 137.24 84.3103 136.871 84.3103C136.502 84.3103 136.222 84.2078 136.031 84.0027C135.846 83.7976 135.754 83.5413 135.754 83.2336ZM142.644 86.1765L142.706 87.571C143.553 86.5046 144.661 85.9714 146.028 85.9714C148.373 85.9714 149.555 87.2942 149.576 89.9397V97.2712H147.679V89.9294C147.672 89.1296 147.488 88.5383 147.125 88.1555C146.77 87.7727 146.213 87.5813 145.454 87.5813C144.839 87.5813 144.299 87.7454 143.834 88.0735C143.369 88.4016 143.007 88.8323 142.747 89.3655V97.2712H140.85V86.1765H142.644ZM155.01 83.49V86.1765H157.082V87.6428H155.01V94.5232C155.01 94.9675 155.103 95.3025 155.287 95.5281C155.472 95.7468 155.786 95.8562 156.231 95.8562C156.449 95.8562 156.75 95.8152 157.133 95.7332V97.2712C156.634 97.408 156.149 97.4763 155.677 97.4763C154.829 97.4763 154.19 97.22 153.76 96.7073C153.329 96.1946 153.114 95.4666 153.114 94.5232V87.6428H151.094V86.1765H153.114V83.49H155.01ZM163.911 97.4763C162.407 97.4763 161.183 96.9841 160.24 95.9998C159.297 95.0085 158.825 93.6858 158.825 92.0315V91.6829C158.825 90.5823 159.033 89.6013 159.45 88.74C159.874 87.8718 160.462 87.1951 161.214 86.7097C161.973 86.2175 162.793 85.9714 163.675 85.9714C165.117 85.9714 166.239 86.4465 167.038 87.3967C167.838 88.3469 168.238 89.7073 168.238 91.4778V92.2673H160.722C160.749 93.3611 161.067 94.2463 161.676 94.9231C162.291 95.593 163.07 95.928 164.013 95.928C164.683 95.928 165.251 95.7913 165.716 95.5178C166.18 95.2444 166.587 94.8821 166.936 94.4309L168.094 95.3333C167.165 96.762 165.77 97.4763 163.911 97.4763ZM163.675 87.53C162.909 87.53 162.267 87.8103 161.747 88.3708C161.228 88.9246 160.906 89.7039 160.783 90.7087H166.341V90.5652C166.286 89.6013 166.027 88.8562 165.562 88.3298C165.097 87.7966 164.468 87.53 163.675 87.53ZM174.893 95.928C175.57 95.928 176.161 95.7229 176.667 95.3127C177.173 94.9026 177.453 94.3899 177.508 93.7747H179.302C179.268 94.4104 179.049 95.0154 178.646 95.5896C178.242 96.1638 177.702 96.6218 177.026 96.9636C176.356 97.3054 175.645 97.4763 174.893 97.4763C173.382 97.4763 172.179 96.9739 171.283 95.969C170.395 94.9573 169.95 93.5764 169.95 91.8264V91.5085C169.95 90.4285 170.149 89.468 170.545 88.6272C170.942 87.7864 171.509 87.1335 172.247 86.6687C172.992 86.2039 173.871 85.9714 174.883 85.9714C176.127 85.9714 177.159 86.344 177.979 87.0891C178.806 87.8342 179.247 88.8015 179.302 89.991H177.508C177.453 89.2732 177.179 88.6853 176.687 88.2273C176.202 87.7625 175.6 87.53 174.883 87.53C173.919 87.53 173.17 87.8787 172.637 88.5759C172.111 89.2664 171.847 90.2678 171.847 91.5803V91.9392C171.847 93.2175 172.111 94.2019 172.637 94.8923C173.163 95.5828 173.915 95.928 174.893 95.928ZM183.332 87.5198C184.173 86.4875 185.266 85.9714 186.613 85.9714C188.958 85.9714 190.14 87.2942 190.161 89.9397V97.2712H188.264V89.9294C188.257 89.1296 188.073 88.5383 187.71 88.1555C187.355 87.7727 186.798 87.5813 186.039 87.5813C185.424 87.5813 184.884 87.7454 184.419 88.0735C183.954 88.4016 183.592 88.8323 183.332 89.3655V97.2712H181.435V81.5212H183.332V87.5198Z" fill="black"/>
<path d="M67.6792 226.805H65.7104V211.875H67.6792V226.805ZM70.4888 221.155C70.4888 220.068 70.7007 219.091 71.1245 218.223C71.5552 217.354 72.1499 216.685 72.9087 216.213C73.6743 215.741 74.5459 215.505 75.5234 215.505C77.0342 215.505 78.2544 216.028 79.1841 217.074C80.1206 218.12 80.5889 219.511 80.5889 221.248V221.381C80.5889 222.461 80.3804 223.432 79.9634 224.293C79.5532 225.147 78.9619 225.814 78.1895 226.292C77.4238 226.771 76.542 227.01 75.5439 227.01C74.04 227.01 72.8198 226.487 71.8833 225.441C70.9536 224.396 70.4888 223.011 70.4888 221.289V221.155ZM72.396 221.381C72.396 222.611 72.6797 223.599 73.2471 224.344C73.8213 225.089 74.5869 225.462 75.5439 225.462C76.5078 225.462 77.2734 225.086 77.8408 224.334C78.4082 223.575 78.6919 222.516 78.6919 221.155C78.6919 219.938 78.4014 218.954 77.8203 218.202C77.2461 217.443 76.4805 217.064 75.5234 217.064C74.5869 217.064 73.8315 217.437 73.2573 218.182C72.6831 218.927 72.396 219.993 72.396 221.381ZM93.5806 213.496H88.7817V226.805H86.8232V213.496H82.0347V211.875H93.5806V213.496Z" fill="black"/>
<path d="M190.512 226.805V211.875H195.392C197.013 211.875 198.229 212.21 199.043 212.88C199.863 213.55 200.273 214.542 200.273 215.854C200.273 216.551 200.075 217.17 199.679 217.71C199.282 218.243 198.742 218.657 198.058 218.951C198.865 219.176 199.501 219.607 199.966 220.243C200.437 220.872 200.673 221.624 200.673 222.499C200.673 223.838 200.239 224.891 199.371 225.657C198.503 226.422 197.276 226.805 195.69 226.805H190.512ZM192.48 219.822V225.195H195.731C196.647 225.195 197.368 224.959 197.894 224.488C198.428 224.009 198.694 223.353 198.694 222.519C198.694 220.721 197.717 219.822 195.762 219.822H192.48ZM192.48 218.243H195.454C196.315 218.243 197.002 218.028 197.515 217.597C198.035 217.167 198.294 216.582 198.294 215.844C198.294 215.023 198.055 214.429 197.577 214.06C197.098 213.684 196.37 213.496 195.392 213.496H192.48V218.243ZM205.359 226.805H203.462V211.055H205.359V226.805ZM207.902 221.155C207.902 220.068 208.114 219.091 208.538 218.223C208.969 217.354 209.563 216.685 210.322 216.213C211.088 215.741 211.959 215.505 212.937 215.505C214.448 215.505 215.668 216.028 216.598 217.074C217.534 218.12 218.002 219.511 218.002 221.248V221.381C218.002 222.461 217.794 223.432 217.377 224.293C216.967 225.147 216.375 225.814 215.603 226.292C214.837 226.771 213.955 227.01 212.957 227.01C211.453 227.01 210.233 226.487 209.297 225.441C208.367 224.396 207.902 223.011 207.902 221.289V221.155ZM209.809 221.381C209.809 222.611 210.093 223.599 210.661 224.344C211.235 225.089 212 225.462 212.957 225.462C213.921 225.462 214.687 225.086 215.254 224.334C215.822 223.575 216.105 222.516 216.105 221.155C216.105 219.938 215.815 218.954 215.234 218.202C214.66 217.443 213.894 217.064 212.937 217.064C212 217.064 211.245 217.437 210.671 218.182C210.097 218.927 209.809 219.993 209.809 221.381ZM224.831 225.462C225.508 225.462 226.099 225.257 226.605 224.847C227.111 224.437 227.391 223.924 227.446 223.309H229.241C229.206 223.944 228.988 224.549 228.584 225.124C228.181 225.698 227.641 226.156 226.964 226.498C226.294 226.839 225.583 227.01 224.831 227.01C223.321 227.01 222.118 226.508 221.222 225.503C220.333 224.491 219.889 223.11 219.889 221.36V221.042C219.889 219.962 220.087 219.002 220.484 218.161C220.88 217.32 221.448 216.667 222.186 216.203C222.931 215.738 223.809 215.505 224.821 215.505C226.065 215.505 227.098 215.878 227.918 216.623C228.745 217.368 229.186 218.335 229.241 219.525H227.446C227.391 218.807 227.118 218.219 226.626 217.761C226.141 217.296 225.539 217.064 224.821 217.064C223.857 217.064 223.109 217.413 222.576 218.11C222.049 218.8 221.786 219.802 221.786 221.114V221.473C221.786 222.751 222.049 223.736 222.576 224.426C223.102 225.117 223.854 225.462 224.831 225.462ZM234.47 221.668L233.281 222.909V226.805H231.384V211.055H233.281V220.581L234.296 219.361L237.751 215.71H240.058L235.742 220.345L240.561 226.805H238.336L234.47 221.668ZM246.262 225.462C246.939 225.462 247.53 225.257 248.036 224.847C248.542 224.437 248.822 223.924 248.877 223.309H250.671C250.637 223.944 250.418 224.549 250.015 225.124C249.612 225.698 249.072 226.156 248.395 226.498C247.725 226.839 247.014 227.01 246.262 227.01C244.751 227.01 243.548 226.508 242.653 225.503C241.764 224.491 241.32 223.11 241.32 221.36V221.042C241.32 219.962 241.518 219.002 241.914 218.161C242.311 217.32 242.878 216.667 243.617 216.203C244.362 215.738 245.24 215.505 246.252 215.505C247.496 215.505 248.528 215.878 249.349 216.623C250.176 217.368 250.617 218.335 250.671 219.525H248.877C248.822 218.807 248.549 218.219 248.057 217.761C247.571 217.296 246.97 217.064 246.252 217.064C245.288 217.064 244.539 217.413 244.006 218.11C243.48 218.8 243.217 219.802 243.217 221.114V221.473C243.217 222.751 243.48 223.736 244.006 224.426C244.533 225.117 245.285 225.462 246.262 225.462ZM254.701 217.054C255.542 216.021 256.636 215.505 257.982 215.505C260.327 215.505 261.51 216.828 261.53 219.474V226.805H259.633V219.463C259.626 218.664 259.442 218.072 259.079 217.689C258.724 217.307 258.167 217.115 257.408 217.115C256.793 217.115 256.253 217.279 255.788 217.607C255.323 217.936 254.961 218.366 254.701 218.899V226.805H252.804V211.055H254.701V217.054ZM271.22 226.805C271.111 226.586 271.022 226.197 270.953 225.636C270.072 226.552 269.019 227.01 267.795 227.01C266.702 227.01 265.803 226.703 265.099 226.087C264.401 225.465 264.053 224.679 264.053 223.729C264.053 222.574 264.49 221.678 265.365 221.042C266.247 220.4 267.484 220.079 269.077 220.079H270.923V219.207C270.923 218.544 270.724 218.018 270.328 217.628C269.932 217.231 269.347 217.033 268.575 217.033C267.898 217.033 267.33 217.204 266.872 217.546C266.414 217.888 266.185 218.301 266.185 218.787H264.278C264.278 218.233 264.473 217.7 264.863 217.187C265.259 216.667 265.792 216.257 266.462 215.957C267.139 215.656 267.881 215.505 268.687 215.505C269.966 215.505 270.967 215.827 271.692 216.469C272.416 217.105 272.792 217.983 272.82 219.104V224.211C272.82 225.229 272.95 226.04 273.209 226.641V226.805H271.22ZM268.072 225.359C268.667 225.359 269.231 225.206 269.764 224.898C270.297 224.59 270.683 224.19 270.923 223.698V221.422H269.436C267.112 221.422 265.95 222.102 265.95 223.462C265.95 224.057 266.148 224.522 266.544 224.857C266.941 225.192 267.45 225.359 268.072 225.359ZM277.854 226.805H275.957V215.71H277.854V226.805ZM275.804 212.768C275.804 212.46 275.896 212.2 276.08 211.988C276.272 211.776 276.552 211.67 276.921 211.67C277.29 211.67 277.571 211.776 277.762 211.988C277.953 212.2 278.049 212.46 278.049 212.768C278.049 213.075 277.953 213.332 277.762 213.537C277.571 213.742 277.29 213.844 276.921 213.844C276.552 213.844 276.272 213.742 276.08 213.537C275.896 213.332 275.804 213.075 275.804 212.768ZM282.694 215.71L282.756 217.105C283.603 216.039 284.711 215.505 286.078 215.505C288.423 215.505 289.605 216.828 289.626 219.474V226.805H287.729V219.463C287.722 218.664 287.537 218.072 287.175 217.689C286.82 217.307 286.263 217.115 285.504 217.115C284.889 217.115 284.349 217.279 283.884 217.607C283.419 217.936 283.057 218.366 282.797 218.899V226.805H280.9V215.71H282.694Z" fill="black"/>
<path d="M195.766 197.903C183.955 202.812 171.291 205.339 158.5 205.339C145.71 205.339 133.045 202.812 121.234 197.903C125.835 174.222 139.128 153.119 158.5 138.743C177.872 153.119 191.165 174.222 195.766 197.903Z" fill="#00BAE6"/>
<path d="M136.485 170.678L152.893 154.27C154.365 152.801 156.36 151.975 158.44 151.975C160.52 151.975 162.514 152.801 163.986 154.27L180.394 170.678C181.863 172.15 182.689 174.145 182.689 176.225C182.689 178.305 181.863 180.3 180.394 181.771L163.986 198.179C162.514 199.648 160.52 200.474 158.44 200.474C156.36 200.474 154.365 199.648 152.893 198.179L136.485 181.771C135.016 180.3 134.19 178.305 134.19 176.225C134.19 174.145 135.016 172.15 136.485 170.678ZM137.952 172.058C136.85 173.161 136.231 174.657 136.231 176.216C136.231 177.775 136.85 179.271 137.952 180.374L154.273 196.695C155.376 197.797 156.872 198.416 158.431 198.416C159.99 198.416 161.486 197.797 162.589 196.695L178.91 180.374C180.012 179.271 180.631 177.775 180.631 176.216C180.631 174.657 180.012 173.161 178.91 172.058L162.589 155.737C161.486 154.635 159.99 154.016 158.431 154.016C156.872 154.016 155.376 154.635 154.273 155.737L137.952 172.058ZM158.5 182.41H154.653V175.233L151.202 179.408H150.891L147.441 175.233V182.444H143.663V170.005H147.113L151.029 174.68L154.963 170.005H158.414L158.5 182.41ZM173.217 176.406C173.268 177.475 173.023 178.538 172.509 179.477C172.061 180.209 171.475 180.848 170.784 181.357C169.657 182.119 168.311 182.489 166.954 182.41H160.053V170.005H165.349C166.036 169.998 166.722 170.038 167.402 170.126C167.923 170.197 168.437 170.312 168.938 170.471C169.339 170.598 169.727 170.765 170.094 170.971C170.443 171.157 170.772 171.376 171.077 171.627C171.514 171.978 171.898 172.39 172.216 172.852C172.565 173.382 172.827 173.964 172.992 174.577C173.153 175.191 173.229 175.823 173.217 176.458V176.406ZM169.352 176.285C169.401 175.456 169.196 174.631 168.765 173.921C168.423 173.397 167.921 172.998 167.333 172.783C166.779 172.588 166.196 172.489 165.608 172.489H163.969V179.856H165.608C166.532 179.879 167.443 179.633 168.231 179.149C168.645 178.806 168.965 178.363 169.161 177.862C169.357 177.361 169.423 176.818 169.352 176.285Z" fill="white"/>
</svg>
