<?xml version="1.0" encoding="UTF-8"?>
<svg width="32px" height="40px" viewBox="0 0 32 40" version="1.1" xmlns="http://www.w3.org/2000/svg" xmlns:xlink="http://www.w3.org/1999/xlink">
    <!-- Generator: Sketch 46.2 (44496) - http://www.bohemiancoding.com/sketch -->
    <title></title>
    <desc>Created with Sketch.</desc>
    <defs>
        <linearGradient x1="95.7828444%" y1="4.21715561%" x2="1.53096782%" y2="98.4690322%" id="linearGradient-1">
            <stop stop-color="#9EFBD3" offset="0%"></stop>
            <stop stop-color="#57E9F2" offset="47.8728925%"></stop>
            <stop stop-color="#45D4FB" offset="100%"></stop>
        </linearGradient>
    </defs>
    <g id="Page-1" stroke="none" stroke-width="1" fill="none" fill-rule="evenodd">
        <path d="M9.14285714,29.2857143 L9.14285714,30.7142857 C9.14285714,30.9077391 9.07217333,31.0751481 8.93080357,31.2165179 C8.78943382,31.3578876 8.62202478,31.4285714 8.42857143,31.4285714 L7,31.4285714 C6.80654665,31.4285714 6.63913761,31.3578876 6.49776786,31.2165179 C6.3563981,31.0751481 6.28571429,30.9077391 6.28571429,30.7142857 L6.28571429,29.2857143 C6.28571429,29.0922609 6.3563981,28.9248519 6.49776786,28.7834821 C6.63913761,28.6421124 6.80654665,28.5714286 7,28.5714286 L8.42857143,28.5714286 C8.62202478,28.5714286 8.78943382,28.6421124 8.93080357,28.7834821 C9.07217333,28.9248519 9.14285714,29.0922609 9.14285714,29.2857143 Z M9.14285714,23.5714286 L9.14285714,25 C9.14285714,25.1934533 9.07217333,25.3608624 8.93080357,25.5022321 C8.78943382,25.6436019 8.62202478,25.7142857 8.42857143,25.7142857 L7,25.7142857 C6.80654665,25.7142857 6.63913761,25.6436019 6.49776786,25.5022321 C6.3563981,25.3608624 6.28571429,25.1934533 6.28571429,25 L6.28571429,23.5714286 C6.28571429,23.3779752 6.3563981,23.2105662 6.49776786,23.0691964 C6.63913761,22.9278267 6.80654665,22.8571429 7,22.8571429 L8.42857143,22.8571429 C8.62202478,22.8571429 8.78943382,22.9278267 8.93080357,23.0691964 C9.07217333,23.2105662 9.14285714,23.3779752 9.14285714,23.5714286 Z M14.8571429,23.5714286 L14.8571429,25 C14.8571429,25.1934533 14.786459,25.3608624 14.6450893,25.5022321 C14.5037195,25.6436019 14.3363105,25.7142857 14.1428571,25.7142857 L12.7142857,25.7142857 C12.5208324,25.7142857 12.3534233,25.6436019 12.2120536,25.5022321 C12.0706838,25.3608624 12,25.1934533 12,25 L12,23.5714286 C12,23.3779752 12.0706838,23.2105662 12.2120536,23.0691964 C12.3534233,22.9278267 12.5208324,22.8571429 12.7142857,22.8571429 L14.1428571,22.8571429 C14.3363105,22.8571429 14.5037195,22.9278267 14.6450893,23.0691964 C14.786459,23.2105662 14.8571429,23.3779752 14.8571429,23.5714286 Z M9.14285714,17.8571429 L9.14285714,19.2857143 C9.14285714,19.4791676 9.07217333,19.6465767 8.93080357,19.7879464 C8.78943382,19.9293162 8.62202478,20 8.42857143,20 L7,20 C6.80654665,20 6.63913761,19.9293162 6.49776786,19.7879464 C6.3563981,19.6465767 6.28571429,19.4791676 6.28571429,19.2857143 L6.28571429,17.8571429 C6.28571429,17.6636895 6.3563981,17.4962805 6.49776786,17.3549107 C6.63913761,17.213541 6.80654665,17.1428571 7,17.1428571 L8.42857143,17.1428571 C8.62202478,17.1428571 8.78943382,17.213541 8.93080357,17.3549107 C9.07217333,17.4962805 9.14285714,17.6636895 9.14285714,17.8571429 Z M26.2857143,29.2857143 L26.2857143,30.7142857 C26.2857143,30.9077391 26.2150305,31.0751481 26.0736607,31.2165179 C25.932291,31.3578876 25.7648819,31.4285714 25.5714286,31.4285714 L24.1428571,31.4285714 C23.9494038,31.4285714 23.7819948,31.3578876 23.640625,31.2165179 C23.4992552,31.0751481 23.4285714,30.9077391 23.4285714,30.7142857 L23.4285714,29.2857143 C23.4285714,29.0922609 23.4992552,28.9248519 23.640625,28.7834821 C23.7819948,28.6421124 23.9494038,28.5714286 24.1428571,28.5714286 L25.5714286,28.5714286 C25.7648819,28.5714286 25.932291,28.6421124 26.0736607,28.7834821 C26.2150305,28.9248519 26.2857143,29.0922609 26.2857143,29.2857143 Z M20.5714286,23.5714286 L20.5714286,25 C20.5714286,25.1934533 20.5007448,25.3608624 20.359375,25.5022321 C20.2180052,25.6436019 20.0505962,25.7142857 19.8571429,25.7142857 L18.4285714,25.7142857 C18.2351181,25.7142857 18.067709,25.6436019 17.9263393,25.5022321 C17.7849695,25.3608624 17.7142857,25.1934533 17.7142857,25 L17.7142857,23.5714286 C17.7142857,23.3779752 17.7849695,23.2105662 17.9263393,23.0691964 C18.067709,22.9278267 18.2351181,22.8571429 18.4285714,22.8571429 L19.8571429,22.8571429 C20.0505962,22.8571429 20.2180052,22.9278267 20.359375,23.0691964 C20.5007448,23.2105662 20.5714286,23.3779752 20.5714286,23.5714286 Z M14.8571429,17.8571429 L14.8571429,19.2857143 C14.8571429,19.4791676 14.786459,19.6465767 14.6450893,19.7879464 C14.5037195,19.9293162 14.3363105,20 14.1428571,20 L12.7142857,20 C12.5208324,20 12.3534233,19.9293162 12.2120536,19.7879464 C12.0706838,19.6465767 12,19.4791676 12,19.2857143 L12,17.8571429 C12,17.6636895 12.0706838,17.4962805 12.2120536,17.3549107 C12.3534233,17.213541 12.5208324,17.1428571 12.7142857,17.1428571 L14.1428571,17.1428571 C14.3363105,17.1428571 14.5037195,17.213541 14.6450893,17.3549107 C14.786459,17.4962805 14.8571429,17.6636895 14.8571429,17.8571429 Z M26.2857143,23.5714286 L26.2857143,25 C26.2857143,25.1934533 26.2150305,25.3608624 26.0736607,25.5022321 C25.932291,25.6436019 25.7648819,25.7142857 25.5714286,25.7142857 L24.1428571,25.7142857 C23.9494038,25.7142857 23.7819948,25.6436019 23.640625,25.5022321 C23.4992552,25.3608624 23.4285714,25.1934533 23.4285714,25 L23.4285714,23.5714286 C23.4285714,23.3779752 23.4992552,23.2105662 23.640625,23.0691964 C23.7819948,22.9278267 23.9494038,22.8571429 24.1428571,22.8571429 L25.5714286,22.8571429 C25.7648819,22.8571429 25.932291,22.9278267 26.0736607,23.0691964 C26.2150305,23.2105662 26.2857143,23.3779752 26.2857143,23.5714286 Z M20.5714286,17.8571429 L20.5714286,19.2857143 C20.5714286,19.4791676 20.5007448,19.6465767 20.359375,19.7879464 C20.2180052,19.9293162 20.0505962,20 19.8571429,20 L18.4285714,20 C18.2351181,20 18.067709,19.9293162 17.9263393,19.7879464 C17.7849695,19.6465767 17.7142857,19.4791676 17.7142857,19.2857143 L17.7142857,17.8571429 C17.7142857,17.6636895 17.7849695,17.4962805 17.9263393,17.3549107 C18.067709,17.213541 18.2351181,17.1428571 18.4285714,17.1428571 L19.8571429,17.1428571 C20.0505962,17.1428571 20.2180052,17.213541 20.359375,17.3549107 C20.5007448,17.4962805 20.5714286,17.6636895 20.5714286,17.8571429 Z M26.2857143,17.8571429 L26.2857143,19.2857143 C26.2857143,19.4791676 26.2150305,19.6465767 26.0736607,19.7879464 C25.932291,19.9293162 25.7648819,20 25.5714286,20 L24.1428571,20 C23.9494038,20 23.7819948,19.9293162 23.640625,19.7879464 C23.4992552,19.6465767 23.4285714,19.4791676 23.4285714,19.2857143 L23.4285714,17.8571429 C23.4285714,17.6636895 23.4992552,17.4962805 23.640625,17.3549107 C23.7819948,17.213541 23.9494038,17.1428571 24.1428571,17.1428571 L25.5714286,17.1428571 C25.7648819,17.1428571 25.932291,17.213541 26.0736607,17.3549107 C26.2150305,17.4962805 26.2857143,17.6636895 26.2857143,17.8571429 Z M20.5714286,37.1428571 L29.1428571,37.1428571 L29.1428571,11.4285714 L23.4285714,11.4285714 L23.4285714,12.1428571 C23.4285714,12.7380982 23.2202402,13.2440455 22.8035714,13.6607143 C22.3869027,14.077383 21.8809554,14.2857143 21.2857143,14.2857143 L11.2857143,14.2857143 C10.6904732,14.2857143 10.1845259,14.077383 9.76785714,13.6607143 C9.35118839,13.2440455 9.14285714,12.7380982 9.14285714,12.1428571 L9.14285714,11.4285714 L3.42857143,11.4285714 L3.42857143,37.1428571 L12,37.1428571 L12,32.1428571 C12,31.9494038 12.0706838,31.7819948 12.2120536,31.640625 C12.3534233,31.4992552 12.5208324,31.4285714 12.7142857,31.4285714 L19.8571429,31.4285714 C20.0505962,31.4285714 20.2180052,31.4992552 20.359375,31.640625 C20.5007448,31.7819948 20.5714286,31.9494038 20.5714286,32.1428571 L20.5714286,37.1428571 Z M20.5714286,10.7142857 L20.5714286,3.57142857 C20.5714286,3.37797522 20.5007448,3.21056618 20.359375,3.06919643 C20.2180052,2.92782667 20.0505962,2.85714286 19.8571429,2.85714286 L18.4285714,2.85714286 C18.2351181,2.85714286 18.067709,2.92782667 17.9263393,3.06919643 C17.7849695,3.21056618 17.7142857,3.37797522 17.7142857,3.57142857 L17.7142857,5.71428571 L14.8571429,5.71428571 L14.8571429,3.57142857 C14.8571429,3.37797522 14.786459,3.21056618 14.6450893,3.06919643 C14.5037195,2.92782667 14.3363105,2.85714286 14.1428571,2.85714286 L12.7142857,2.85714286 C12.5208324,2.85714286 12.3534233,2.92782667 12.2120536,3.06919643 C12.0706838,3.21056618 12,3.37797522 12,3.57142857 L12,10.7142857 C12,10.9077391 12.0706838,11.0751481 12.2120536,11.2165179 C12.3534233,11.3578876 12.5208324,11.4285714 12.7142857,11.4285714 L14.1428571,11.4285714 C14.3363105,11.4285714 14.5037195,11.3578876 14.6450893,11.2165179 C14.786459,11.0751481 14.8571429,10.9077391 14.8571429,10.7142857 L14.8571429,8.57142857 L17.7142857,8.57142857 L17.7142857,10.7142857 C17.7142857,10.9077391 17.7849695,11.0751481 17.9263393,11.2165179 C18.067709,11.3578876 18.2351181,11.4285714 18.4285714,11.4285714 L19.8571429,11.4285714 C20.0505962,11.4285714 20.2180052,11.3578876 20.359375,11.2165179 C20.5007448,11.0751481 20.5714286,10.9077391 20.5714286,10.7142857 Z M32,10 L32,38.5714286 C32,38.9583353 31.8586324,39.2931533 31.5758929,39.5758929 C31.2931533,39.8586324 30.9583353,40 30.5714286,40 L2,40 C1.6130933,40 1.27827522,39.8586324 0.995535714,39.5758929 C0.712796205,39.2931533 0.571428571,38.9583353 0.571428571,38.5714286 L0.571428571,10 C0.571428571,9.6130933 0.712796205,9.27827522 0.995535714,8.99553571 C1.27827522,8.71279621 1.6130933,8.57142857 2,8.57142857 L9.14285714,8.57142857 L9.14285714,2.14285714 C9.14285714,1.54761607 9.35118839,1.04166875 9.76785714,0.625 C10.1845259,0.20833125 10.6904732,0 11.2857143,0 L21.2857143,0 C21.8809554,0 22.3869027,0.20833125 22.8035714,0.625 C23.2202402,1.04166875 23.4285714,1.54761607 23.4285714,2.14285714 L23.4285714,8.57142857 L30.5714286,8.57142857 C30.9583353,8.57142857 31.2931533,8.71279621 31.5758929,8.99553571 C31.8586324,9.27827522 32,9.6130933 32,10 Z" id="" fill="url(#linearGradient-1)"></path>
    </g>
</svg>