<svg width="168" height="66" viewBox="0 0 168 66" fill="none" xmlns="http://www.w3.org/2000/svg">
<g clip-path="url(#clip0)">
<rect x="34.5214" y="2.41421" width="44.669" height="44.669" rx="6" transform="rotate(45 34.5214 2.41421)" stroke="url(#paint0_linear)" stroke-width="2"/>
<path d="M84.8264 34.5684C85.7064 34.1364 86.3304 33.2884 86.3304 32.0724C86.3304 30.2644 84.8904 29.1764 82.3144 29.1764H77.2904V40.3764H82.6344C85.4664 40.3764 86.9224 39.2724 86.9224 37.3524C86.9224 35.8644 86.0904 34.9204 84.8264 34.5684ZM82.1704 30.4724C83.8024 30.4724 84.7304 31.0804 84.7304 32.2644C84.7304 33.4484 83.8024 34.0564 82.1704 34.0564H78.8904V30.4724H82.1704ZM82.5704 39.0804H78.8904V35.3524H82.5704C84.3464 35.3524 85.3064 35.9284 85.3064 37.2244C85.3064 38.5204 84.3464 39.0804 82.5704 39.0804ZM89.1758 40.3764H90.7118V28.5044H89.1758V40.3764ZM97.2766 40.4724C99.8206 40.4724 101.677 38.6644 101.677 36.1364C101.677 33.6084 99.8206 31.8164 97.2766 31.8164C94.7326 31.8164 92.8606 33.6084 92.8606 36.1364C92.8606 38.6644 94.7326 40.4724 97.2766 40.4724ZM97.2766 39.1284C95.6446 39.1284 94.4126 37.9444 94.4126 36.1364C94.4126 34.3284 95.6446 33.1604 97.2766 33.1604C98.9086 33.1604 100.125 34.3284 100.125 36.1364C100.125 37.9444 98.9086 39.1284 97.2766 39.1284ZM107.497 40.4724C109.017 40.4724 110.281 39.8324 110.953 38.6484L109.785 37.9124C109.241 38.7444 108.409 39.1284 107.481 39.1284C105.817 39.1284 104.569 37.9764 104.569 36.1364C104.569 34.3284 105.817 33.1604 107.481 33.1604C108.409 33.1604 109.241 33.5444 109.785 34.3764L110.953 33.6244C110.281 32.4404 109.017 31.8164 107.497 31.8164C104.889 31.8164 103.017 33.6084 103.017 36.1364C103.017 38.6644 104.889 40.4724 107.497 40.4724ZM119.312 40.3764H121.2L117.28 35.4004L120.848 31.8964H118.992L114.368 36.1204V28.5044H112.832V40.3764H114.368V38.0564L116.128 36.4244L119.312 40.3764ZM126.028 40.4724C127.548 40.4724 128.812 39.8324 129.484 38.6484L128.316 37.9124C127.772 38.7444 126.94 39.1284 126.012 39.1284C124.348 39.1284 123.1 37.9764 123.1 36.1364C123.1 34.3284 124.348 33.1604 126.012 33.1604C126.94 33.1604 127.772 33.5444 128.316 34.3764L129.484 33.6244C128.812 32.4404 127.548 31.8164 126.028 31.8164C123.42 31.8164 121.548 33.6084 121.548 36.1364C121.548 38.6644 123.42 40.4724 126.028 40.4724ZM135.891 31.8164C134.595 31.8164 133.539 32.2804 132.899 33.0964V28.5044H131.363V40.3764H132.899V36.0084C132.899 34.1684 133.955 33.1924 135.587 33.1924C137.043 33.1924 137.875 34.0084 137.875 35.6724V40.3764H139.411V35.4964C139.411 33.0004 137.955 31.8164 135.891 31.8164ZM145.342 31.8164C143.982 31.8164 142.718 32.2004 141.838 32.9044L142.478 34.0564C143.134 33.4964 144.158 33.1444 145.166 33.1444C146.686 33.1444 147.438 33.8964 147.438 35.1924V35.4964H145.006C142.478 35.4964 141.598 36.6164 141.598 37.9764C141.598 39.4484 142.814 40.4724 144.734 40.4724C146.062 40.4724 147.006 40.0244 147.518 39.2564V40.3764H148.974V35.2564C148.974 32.9364 147.662 31.8164 145.342 31.8164ZM144.99 39.2884C143.822 39.2884 143.118 38.7604 143.118 37.9124C143.118 37.1924 143.55 36.6004 145.07 36.6004H147.438V37.7844C147.054 38.7604 146.142 39.2884 144.99 39.2884ZM152.584 30.2644C153.192 30.2644 153.624 29.8164 153.624 29.2404C153.624 28.6964 153.176 28.2644 152.584 28.2644C151.992 28.2644 151.544 28.7124 151.544 29.2724C151.544 29.8324 151.992 30.2644 152.584 30.2644ZM151.816 40.3764H153.352V31.8964H151.816V40.3764ZM160.813 31.8164C159.469 31.8164 158.381 32.3124 157.757 33.1764V31.8964H156.285V40.3764H157.821V36.0084C157.821 34.1684 158.877 33.1924 160.509 33.1924C161.965 33.1924 162.797 34.0084 162.797 35.6724V40.3764H164.333V35.4964C164.333 33.0004 162.877 31.8164 160.813 31.8164Z" fill="white"/>
<path fill-rule="evenodd" clip-rule="evenodd" d="M30.7359 41.649H33.8458L33.8049 27.3272H31.0837L25.8051 36.2272L20.4447 27.3272H17.7031V41.649H20.813V33.2401L25.0072 40.135H26.5008L30.7154 33.0559L30.7359 41.649ZM37.2421 41.649V27.3272H43.7482C48.4335 27.3272 51.6457 30.1506 51.6457 34.4881C51.6457 38.8255 48.4335 41.649 43.7482 41.649H37.2421ZM40.5565 38.9278H43.5846C46.4285 38.9278 48.2903 37.2297 48.2903 34.4881C48.2903 31.7465 46.4285 30.0483 43.5846 30.0483H40.5565V38.9278Z" fill="url(#paint1_linear)"/>
</g>
<defs>
<linearGradient id="paint0_linear" x1="13.2208" y1="72.2442" x2="99.2062" y2="67.3272" gradientUnits="userSpaceOnUse">
<stop stop-color="#8BF7D9"/>
<stop offset="1" stop-color="#4BDAF8"/>
</linearGradient>
<linearGradient id="paint1_linear" x1="16.6443" y1="26.3042" x2="52.4487" y2="42.2883" gradientUnits="userSpaceOnUse">
<stop stop-color="#78EFE3"/>
<stop offset="1" stop-color="#58E0F2"/>
</linearGradient>
<clipPath id="clip0">
<rect width="168" height="66" fill="white"/>
</clipPath>
</defs>
</svg>
