<?xml version="1.0" encoding="UTF-8"?>
<svg width="151px" height="51px" viewBox="0 0 151 51" version="1.1" xmlns="http://www.w3.org/2000/svg" xmlns:xlink="http://www.w3.org/1999/xlink">
    <!-- Generator: Sketch 46.2 (44496) - http://www.bohemiancoding.com/sketch -->
    <title>Group 15</title>
    <desc>Created with Sketch.</desc>
    <defs>
        <linearGradient x1="95.7828444%" y1="4.21715561%" x2="1.53096782%" y2="98.4690322%" id="linearGradient-1">
            <stop stop-color="#9EFBD3" offset="0%"></stop>
            <stop stop-color="#57E9F2" offset="47.8728925%"></stop>
            <stop stop-color="#45D4FB" offset="100%"></stop>
        </linearGradient>
    </defs>
    <g id="Page-1" stroke="none" stroke-width="1" fill="none" fill-rule="evenodd">
        <g id="Medtech-1-0" transform="translate(-50.000000, -30.000000)">
            <g id="Group-15" transform="translate(50.000000, 30.000000)">
                <path d="M2.41631973,19.5037077 L19.5002917,2.41973567 C22.6882451,-0.768217732 27.8569388,-0.768217732 31.0448922,2.41973567 L48.1327335,19.5075769 L48.1327335,19.5075769 C51.3206869,22.6955303 51.3206869,27.864224 48.1327335,31.0521774 L31.0487615,48.1361494 C27.8608081,51.3241028 22.6921144,51.3241028 19.504161,48.1361494 L2.41631973,31.0483082 L2.41631973,31.0483082 C-0.771633671,27.8603548 -0.771633671,22.6916611 2.41631973,19.5037077 L2.41631973,19.5037077 Z M3.95139582,20.946984 L3.95139582,20.946984 C1.56043077,23.337949 1.56043077,27.2144693 3.95139582,29.6054343 L3.95139582,29.6054343 L20.9470348,46.6010733 C23.3379998,48.9920384 27.2145201,48.9920384 29.6054852,46.6010733 L46.5976574,29.6089011 C48.9886224,27.2179361 48.9886224,23.3414158 46.5976574,20.9504507 L29.6020184,3.95481175 C27.2110533,1.5638467 23.3345331,1.5638467 20.943568,3.95481175 L3.95139582,20.946984 Z M25.3336751,31.7567245 L21.3289197,31.7567245 L21.3289197,24.2495644 L17.7169752,28.5967991 L17.4008103,28.5967991 L13.7792851,24.2495644 L13.7792851,31.7567245 L9.88949871,31.7567245 L9.88949871,18.7991605 L13.5206047,18.7991605 L17.6020062,23.6605843 L21.7025691,18.7991605 L25.3336751,18.7991605 L25.3336751,31.7567245 Z M40.6595545,25.5116648 C40.6595545,26.8392141 40.4120541,27.9049771 39.917046,28.7089858 C39.4220379,29.5129945 38.8392145,30.1642941 38.1685583,30.6629042 C37.2168652,31.3921214 35.8851537,31.7567245 34.1733836,31.7567245 L27.0069792,31.7567245 L27.0069792,18.7991605 L32.5254938,18.7991605 C33.35583,18.7991605 34.0663956,18.8412301 34.6572117,18.9253706 C35.2480279,19.009511 35.7797544,19.1279291 36.2524074,19.2806285 C36.7250603,19.4333278 37.1274479,19.6047224 37.4595824,19.7948175 C37.7917169,19.9849126 38.0887173,20.189028 38.3505926,20.4071699 C38.8040839,20.7686622 39.2016813,21.1955907 39.5433966,21.6879681 C39.8851119,22.1803455 40.1565639,22.7506222 40.3577607,23.3988153 C40.5589576,24.0470084 40.6595545,24.7512845 40.6595545,25.5116648 Z M36.5877338,25.3433848 C36.5877338,24.290071 36.3817496,23.4689349 35.9697751,22.8799518 C35.5578006,22.2909687 35.0627999,21.896761 34.4847581,21.697317 C33.9067164,21.497873 33.3175059,21.3981524 32.7171089,21.3981524 L31.0117346,21.3981524 L31.0117346,29.0735926 L32.7171089,29.0735926 C33.76461,29.0735926 34.671579,28.8305238 35.4380432,28.344379 C36.2045074,27.8582342 36.5877338,26.8579128 36.5877338,25.3433848 Z" id="Combined-Shape-Copy-3" fill="url(#linearGradient-1)"></path>
                <path d="M63.2254365,19.1358165 C64.4810259,19.1358165 65.5044467,19.4628322 66.2957296,20.1168734 C67.0870125,20.7709146 67.482648,21.5884538 67.482648,22.5695156 C67.482648,23.1973952 67.3175274,23.7500517 66.9872812,24.2275017 C66.657035,24.7049518 66.1780218,25.08429 65.5502271,25.3655277 L65.5502271,25.4832546 C66.5049982,25.6990881 67.2488584,26.1258436 67.7818299,26.7635338 C68.3148014,27.4012239 68.5812832,28.1484548 68.5812832,29.0052488 C68.5812832,29.7639365 68.3867352,30.4424941 67.9976333,31.0409418 C67.6085313,31.6393895 67.0690284,32.0890361 66.3791081,32.389895 C65.6891879,32.6907539 64.8766638,32.8411812 63.9415112,32.8411812 L58.2031041,32.8411812 L58.2031041,19.1358165 L63.2254365,19.1358165 Z M62.519171,24.8259464 C63.2189005,24.8259464 63.7714823,24.6591684 64.1769331,24.3256074 C64.5823838,23.9920464 64.7851061,23.5276841 64.7851061,22.9325067 C64.7851061,22.4027333 64.5987324,21.9825181 64.2259793,21.6718486 C63.8532262,21.361179 63.3627689,21.2058465 62.7545928,21.2058465 L60.8515997,21.2058465 L60.8515997,24.8259464 L62.519171,24.8259464 Z M63.1371533,30.7711511 C64.0330687,30.7711511 64.7098997,30.6027381 65.1676666,30.2659069 C65.6254336,29.9290756 65.8543136,29.4336469 65.8543136,28.7796057 C65.8543136,28.197509 65.6270685,27.738052 65.1725712,27.4012208 C64.718074,27.0643895 64.1082722,26.8959765 63.3431474,26.8959765 L60.8515997,26.8959765 L60.8515997,30.7711511 L63.1371533,30.7711511 Z M73.0052518,19.1358165 L73.0052518,32.8411812 L70.592178,32.8411812 L70.592178,19.1358165 L73.0052518,19.1358165 Z M80.0384791,23.5015197 C80.9932502,23.5015197 81.8597247,23.7009992 82.6379285,24.0999644 C83.4161324,24.4989295 84.0177599,25.0581263 84.4428292,25.7775716 C84.8678986,26.4970169 85.08043,27.311286 85.08043,28.2204033 C85.08043,29.168763 84.8760729,29.9993828 84.4673524,30.7122877 C84.0586319,31.4251926 83.4570043,31.9876596 82.6624516,32.3997056 C81.867899,32.8117515 80.9932502,33.0177714 80.0384791,33.0177714 C79.0771685,33.0177714 78.2041546,32.8117515 77.4194112,32.3997056 C76.6346678,31.9876596 76.0379449,31.4251926 75.6292244,30.7122877 C75.2205039,29.9993828 75.0161467,29.168763 75.0161467,28.2204033 C75.0161467,27.2982052 75.2319479,26.4790309 75.6635567,25.7628558 C76.0951656,25.0466807 76.6967931,24.490754 77.4684574,24.0950591 C78.2401217,23.6993641 79.0967871,23.5015197 80.0384791,23.5015197 Z M77.5469314,28.2204033 C77.5469314,29.1360609 77.7709069,29.866941 78.2188645,30.4130654 C78.6668222,30.9591898 79.2668149,31.2322479 80.0188606,31.2322479 C80.803604,31.2322479 81.4215801,30.9706353 81.8728076,30.4474024 C82.324035,29.9241694 82.5496453,29.1753035 82.5496453,28.2007821 C82.5496453,27.2720436 82.3224001,26.5542442 81.8679029,26.0473623 C81.4134057,25.5404803 80.7970645,25.2870432 80.0188606,25.2870432 C79.2864335,25.2870432 78.6913454,25.555196 78.2335784,26.0915098 C77.7758114,26.6278236 77.5469314,27.3374476 77.5469314,28.2204033 Z M91.4073918,23.5015197 C92.4733349,23.5015197 93.4379008,23.7075395 94.3011185,24.1195855 L94.3011185,26.1699944 C93.4444404,25.6729231 92.633551,25.4243911 91.8684262,25.4243911 C91.0444457,25.4243911 90.3708844,25.6810985 89.8477222,26.1945208 C89.3245599,26.7079431 89.0629827,27.4028515 89.0629827,28.2792667 C89.0629827,29.1360606 89.3261948,29.8260637 89.8526268,30.3492967 C90.3790588,30.8725296 91.0804127,31.1341422 91.9567094,31.1341422 C92.6106622,31.1341422 93.4477093,30.9183118 94.4678757,30.4866447 L94.4678757,32.4389478 C93.5196441,32.8248321 92.5419993,33.0177714 91.534912,33.0177714 C90.0504391,33.0177714 88.8455491,32.592651 87.9202059,31.7423975 C86.9948627,30.8921439 86.532198,29.7639398 86.532198,28.3577512 C86.532198,26.8992394 86.9850535,25.725253 87.8907782,24.835757 C88.7965028,23.946261 89.9686956,23.5015197 91.4073918,23.5015197 Z M98.6858502,19.1358165 L98.6858502,32.8411812 L96.2727764,32.8411812 L96.2727764,19.1358165 L98.6858502,19.1358165 Z M105.336517,23.6781099 L101.618814,28.2007821 L105.797551,32.8411812 L102.737068,32.8411812 L98.7250872,28.2007821 L102.501646,23.6781099 L105.336517,23.6781099 Z M111.074924,23.5015197 C112.140867,23.5015197 113.105433,23.7075395 113.968651,24.1195855 L113.968651,26.1699944 C113.111973,25.6729231 112.301083,25.4243911 111.535959,25.4243911 C110.711978,25.4243911 110.038417,25.6810985 109.515255,26.1945208 C108.992092,26.7079431 108.730515,27.4028515 108.730515,28.2792667 C108.730515,29.1360606 108.993727,29.8260637 109.520159,30.3492967 C110.046591,30.8725296 110.747945,31.1341422 111.624242,31.1341422 C112.278195,31.1341422 113.115242,30.9183118 114.135408,30.4866447 L114.135408,32.4389478 C113.187176,32.8248321 112.209532,33.0177714 111.202444,33.0177714 C109.717971,33.0177714 108.513081,32.592651 107.587738,31.7423975 C106.662395,30.8921439 106.19973,29.7639398 106.19973,28.3577512 C106.19973,26.8992394 106.652586,25.725253 107.558311,24.835757 C108.464035,23.946261 109.636228,23.5015197 111.074924,23.5015197 Z M118.353383,19.1358165 L118.353383,24.9632944 L118.412238,24.9632944 C119.190442,23.988773 120.12885,23.5015197 121.227491,23.5015197 C122.20188,23.5015197 122.986612,23.821995 123.581709,24.4629554 C124.176806,25.1039158 124.47435,25.9410759 124.47435,26.974461 L124.47435,32.8411812 L122.071086,32.8411812 L122.071086,27.4355577 C122.071086,26.820759 121.925583,26.3318706 121.634574,25.9688777 C121.343565,25.6058848 120.946295,25.4243911 120.442751,25.4243911 C120.076538,25.4243911 119.731583,25.5290362 119.407876,25.7383293 C119.08417,25.9476225 118.732675,26.2942592 118.353383,26.7782496 L118.353383,32.8411812 L115.940309,32.8411812 L115.940309,19.1358165 L118.353383,19.1358165 Z M130.104856,23.5015197 C131.281971,23.5015197 132.181142,23.7516867 132.802398,24.2520282 C133.423653,24.7523697 133.734276,25.4505482 133.734276,26.3465846 L133.734276,30.8300146 C133.734276,31.1766564 133.874873,31.3499747 134.156073,31.3499747 C134.273785,31.3499747 134.438905,31.2992873 134.65144,31.1979109 C134.863975,31.0965345 135.042174,30.9804439 135.186044,30.8496357 L135.186044,32.2427365 C134.342444,32.759429 133.570792,33.0177714 132.871062,33.0177714 C132.439453,33.0177714 132.107577,32.945828 131.875424,32.8019389 C131.643271,32.6580498 131.48142,32.4029776 131.389867,32.0367145 C130.467793,32.6907557 129.542464,33.0177714 128.613851,33.0177714 C127.953358,33.0177714 127.386063,32.7954007 126.911947,32.3506527 C126.437831,31.9059047 126.200777,31.3728691 126.200777,30.75153 C126.200777,29.9601402 126.436196,29.3355402 126.907042,28.8777114 C127.377888,28.4198825 128.201857,28.0209234 129.378972,27.680822 L131.331011,27.111809 L131.331011,26.6899545 C131.331011,25.7939181 130.788238,25.3459066 129.702677,25.3459066 C129.146817,25.3459066 128.594235,25.4734427 128.044915,25.7285188 C127.495594,25.9835948 126.995328,26.3596629 126.5441,26.8567342 L126.5441,24.6885985 C127.544648,23.8972086 128.731555,23.5015197 130.104856,23.5015197 Z M128.633469,30.388539 C128.633469,30.7221 128.739735,30.9902528 128.95227,31.1930056 C129.164804,31.3957584 129.428016,31.4971332 129.741914,31.4971332 C130.271615,31.4971332 130.801309,31.2551416 131.331011,30.7711511 L131.331011,28.3577512 C130.65744,28.5866656 130.129381,28.802496 129.746818,29.0052488 C129.364256,29.2080015 129.08306,29.4140214 128.903223,29.6233146 C128.723386,29.8326078 128.633469,30.08768 128.633469,30.388539 Z M137.795302,19.4399442 C138.168055,19.4399442 138.488487,19.5740206 138.756608,19.8421775 C139.024729,20.1103344 139.158787,20.4308097 139.158787,20.8036132 C139.158787,21.1633359 139.026364,21.4821762 138.761513,21.7601437 C138.496662,22.0381112 138.174595,22.1770929 137.795302,22.1770929 C137.429089,22.1770929 137.110291,22.0381112 136.838901,21.7601437 C136.567511,21.4821762 136.431817,21.1633359 136.431817,20.8036132 C136.431817,20.4242693 136.569146,20.1021589 136.843806,19.8372722 C137.118466,19.5723855 137.435628,19.4399442 137.795302,19.4399442 Z M139.001839,23.6781099 L139.001839,32.8411812 L136.588765,32.8411812 L136.588765,23.6781099 L139.001839,23.6781099 Z M146.800187,23.5015197 C147.781117,23.5015197 148.564213,23.8236301 149.149501,24.4678607 C149.734789,25.1120913 150.027428,25.960697 150.027428,27.0137033 L150.027428,32.8411812 L147.624164,32.8411812 L147.624164,27.2589675 C147.624164,26.66379 147.481931,26.1928874 147.197462,25.8462456 C146.912992,25.4996038 146.525531,25.3262855 146.035066,25.3262855 C145.662313,25.3262855 145.312454,25.4358357 144.985477,25.6549395 C144.658501,25.8740433 144.298832,26.2386658 143.906461,26.7488179 L143.906461,32.8411812 L141.493387,32.8411812 L141.493387,23.6781099 L143.906461,23.6781099 L143.906461,24.9632944 C144.351149,24.4400615 144.807274,24.0656285 145.27485,23.8399843 C145.742426,23.6143401 146.250867,23.5015197 146.800187,23.5015197 Z" id="Blockchain-Copy-2" fill="#FFFFFF"></path>
            </g>
        </g>
    </g>
</svg>