<?xml version="1.0" encoding="UTF-8"?>
<svg width="105px" height="86px" viewBox="0 0 105 86" version="1.1" xmlns="http://www.w3.org/2000/svg" xmlns:xlink="http://www.w3.org/1999/xlink">
    <!-- Generator: Sketch 46.2 (44496) - http://www.bohemiancoding.com/sketch -->
    <title>Group 4</title>
    <desc>Created with Sketch.</desc>
    <defs>
        <linearGradient x1="95.7828444%" y1="4.21715561%" x2="1.53096782%" y2="98.4690322%" id="linearGradient-1">
            <stop stop-color="#9EFBD3" offset="0%"></stop>
            <stop stop-color="#57E9F2" offset="47.8728925%"></stop>
            <stop stop-color="#45D4FB" offset="100%"></stop>
        </linearGradient>
    </defs>
    <g id="Page-1" stroke="none" stroke-width="1" fill="none" fill-rule="evenodd">
        <g id="Medtech-1-0-1" transform="translate(-668.000000, -248.000000)">
            <g id="Group-4" transform="translate(668.000000, 248.000000)">
                <path d="M26.6503949,22.2545034 L46.0865006,2.81839769 C49.7420205,-0.837122208 55.6687892,-0.837122208 59.3243091,2.81839769 L78.9183671,22.4124556 C82.573887,26.0679755 82.573887,31.9947443 78.9183671,35.6502642 L59.4822614,55.0863699 C55.8267415,58.7418898 49.8999727,58.7418898 46.2444528,55.0863699 L26.6503949,35.4923119 L26.6503949,35.4923119 C22.994875,31.836792 22.994875,25.9100233 26.6503949,22.2545034 L26.6503949,22.2545034 Z M28.4026311,23.9174446 L28.4026311,23.9174446 C25.6609912,26.6590845 25.6609912,31.1041611 28.4026311,33.845801 L47.8909638,53.3341337 C50.6326037,56.0757736 55.0776803,56.0757736 57.8193202,53.3341337 L77.1661309,33.987323 C79.9077708,31.2456831 79.9077708,26.8006065 77.1661309,24.0589666 L57.6777982,4.57063391 C54.9361583,1.82899399 50.4910817,1.82899399 47.7494417,4.57063391 L28.4026311,23.9174446 Z M52.8518875,36.3813871 L48.2812427,36.3813871 L48.2812427,27.7731769 L44.1589148,32.758006 L43.7980744,32.758006 L39.6648119,27.7731769 L39.6648119,36.3813871 L35.2253818,36.3813871 L35.2253818,21.5233804 L39.3695788,21.5233804 L44.0277001,27.097813 L48.7076904,21.5233804 L52.8518875,21.5233804 L52.8518875,36.3813871 Z M70.3433802,29.2203854 C70.3433802,30.7426418 70.060907,31.9647168 69.495952,32.8866467 C68.9309971,33.8085767 68.2658182,34.5554003 67.5003954,35.1271398 C66.414224,35.9633089 64.8943358,36.3813871 62.9406852,36.3813871 L54.7616366,36.3813871 L54.7616366,21.5233804 L61.0599414,21.5233804 C62.0076077,21.5233804 62.8185793,21.5716202 63.4928803,21.6681013 C64.1671814,21.7645823 64.7740432,21.9003684 65.313484,22.0754637 C65.8529249,22.2505589 66.3121717,22.4470914 66.6912382,22.6650671 C67.0703047,22.8830428 67.4092726,23.1170952 67.708152,23.3672312 C68.2257236,23.7817424 68.6795032,24.271287 69.0695043,24.8358798 C69.4595055,25.4004726 69.7693148,26.0543898 69.9989417,26.7976512 C70.2285685,27.5409126 70.3433802,28.3484826 70.3433802,29.2203854 Z M65.6961935,29.0274242 C65.6961935,27.8196245 65.4611029,26.8780551 64.9909146,26.2026877 C64.5207263,25.5273204 63.9557798,25.0752956 63.2960583,24.8465998 C62.6363367,24.617904 61.9638682,24.5035578 61.2786325,24.5035578 L59.3322814,24.5035578 L59.3322814,33.3047292 L61.2786325,33.3047292 C62.4741501,33.3047292 63.5092778,33.0260103 64.3840467,32.4685643 C65.2588156,31.9111183 65.6961935,30.764083 65.6961935,29.0274242 Z" id="Combined-Shape-Copy-3" fill="url(#linearGradient-1)"></path>
                <path d="M5.73200986,69.9466667 C7.16501949,69.9466667 8.33305409,70.3216447 9.2361487,71.0716119 C10.1392433,71.8215791 10.5907838,72.7590241 10.5907838,73.883975 C10.5907838,74.6039435 10.402331,75.2376563 10.0254196,75.7851324 C9.6485082,76.3326085 9.1018083,76.7675829 8.38530349,77.0900688 L8.38530349,77.2250623 C9.47498789,77.4725515 10.3239587,77.9618977 10.9322415,78.6931158 C11.5405242,79.4243338 11.844661,80.2811585 11.844661,81.2636156 C11.844661,82.1335776 11.6226225,82.9116569 11.1785388,83.597877 C10.734455,84.284097 10.118718,84.7996917 9.33130902,85.1446766 C8.54390008,85.4896616 7.61656271,85.6621515 6.54926908,85.6621515 L0,85.6621515 L0,69.9466667 L5.73200986,69.9466667 Z M4.92594597,76.471349 C5.7245503,76.471349 6.35521435,76.2801102 6.81795704,75.8976269 C7.28069973,75.5151436 7.51206761,74.9826749 7.51206761,74.3002047 C7.51206761,73.6927312 7.29935843,73.2108845 6.8739337,72.8546501 C6.44850897,72.4984156 5.88874798,72.3203011 5.19463394,72.3203011 L3.02273957,72.3203011 L3.02273957,76.471349 L4.92594597,76.471349 Z M5.63125187,83.288517 C6.65376395,83.288517 7.42623412,83.0954034 7.94868555,82.7091702 C8.47113698,82.3229371 8.73235877,81.7548455 8.73235877,81.0048782 C8.73235877,80.3374074 8.47300285,79.8105633 7.95428321,79.4243302 C7.43556358,79.0380971 6.73959408,78.8449834 5.86635384,78.8449834 L3.02273957,78.8449834 L3.02273957,83.288517 L5.63125187,83.288517 Z M16.8937556,69.9466667 L16.8937556,85.6621515 L14.139704,85.6621515 L14.139704,69.9466667 L16.8937556,69.9466667 Z M24.9208085,74.9526729 C26.0104929,74.9526729 26.999404,75.1814095 27.8875714,75.6388895 C28.7757388,76.0963695 29.462379,76.7375819 29.9475125,77.5625458 C30.4326459,78.3875098 30.675209,79.321205 30.675209,80.3636594 C30.675209,81.4511119 30.4419753,82.403556 29.9755008,83.2210203 C29.5090263,84.0384846 28.8223861,84.6834467 27.9155597,85.1559261 C27.0087333,85.6284055 26.0104929,85.8646416 24.9208085,85.8646416 C23.8236605,85.8646416 22.8272859,85.6284055 21.9316549,85.1559261 C21.0360239,84.6834467 20.3549814,84.0384846 19.8885069,83.2210203 C19.4220324,82.403556 19.1887986,81.4511119 19.1887986,80.3636594 C19.1887986,79.3062056 19.4350935,78.3668858 19.9276905,77.5456717 C20.4202876,76.7244575 21.1069277,76.086995 21.9876316,75.6332648 C22.8683354,75.1795346 23.8460513,74.9526729 24.9208085,74.9526729 Z M22.0771942,80.3636594 C22.0771942,81.4136136 22.3328184,82.2516894 22.8440745,82.877912 C23.3553305,83.5041347 24.0401048,83.8172413 24.8984178,83.8172413 C25.7940488,83.8172413 26.4993477,83.5172589 27.0143355,82.9172851 C27.5293234,82.3173113 27.7868134,81.4586117 27.7868134,80.3411605 C27.7868134,79.2762071 27.5274575,78.4531304 27.0087379,77.8719058 C26.4900182,77.2906812 25.7865853,77.0000732 24.8984178,77.0000732 C24.0624955,77.0000732 23.3833189,77.3075552 22.8608675,77.9225283 C22.338416,78.5375014 22.0771942,79.3512037 22.0771942,80.3636594 Z M37.896198,74.9526729 C39.1127635,74.9526729 40.2136267,75.188909 41.1988209,75.6613884 L41.1988209,78.0125239 C40.2210903,77.4425488 39.2956188,77.1575656 38.4223786,77.1575656 C37.481966,77.1575656 36.7132276,77.4519233 36.1161403,78.0406476 C35.5190529,78.6293718 35.2205137,79.4262001 35.2205137,80.4311562 C35.2205137,81.4136132 35.5209188,82.2048168 36.1217379,82.8047906 C36.7225571,83.4047644 37.5230153,83.7047468 38.5231366,83.7047468 C39.2694958,83.7047468 40.2248212,83.4572613 41.3891415,82.9622829 L41.3891415,85.2009239 C40.3069207,85.6434046 39.1911305,85.8646416 38.0417373,85.8646416 C36.347502,85.8646416 34.9723558,85.3771702 33.9162576,84.4022128 C32.8601593,83.4272554 32.3321181,82.1335813 32.3321181,80.5211518 C32.3321181,78.8487248 32.8489641,77.5025539 33.8826716,76.4825984 C34.916379,75.462643 36.2542078,74.9526729 37.896198,74.9526729 Z M46.2031342,69.9466667 L46.2031342,85.6621515 L43.4490826,85.6621515 L43.4490826,69.9466667 L46.2031342,69.9466667 Z M53.7935691,75.1551631 L49.5505384,80.3411605 L54.3197497,85.6621515 L50.8268062,85.6621515 L46.2479155,80.3411605 L50.5581182,75.1551631 L53.7935691,75.1551631 Z M60.3428382,74.9526729 C61.5594036,74.9526729 62.6602669,75.188909 63.645461,75.6613884 L63.645461,78.0125239 C62.6677305,77.4425488 61.742259,77.1575656 60.8690188,77.1575656 C59.9286062,77.1575656 59.1598678,77.4519233 58.5627804,78.0406476 C57.9656931,78.6293718 57.6671539,79.4262001 57.6671539,80.4311562 C57.6671539,81.4136132 57.967559,82.2048168 58.5683781,82.8047906 C59.1691972,83.4047644 59.9696555,83.7047468 60.9697768,83.7047468 C61.7161359,83.7047468 62.6714614,83.4572613 63.8357817,82.9622829 L63.8357817,85.2009239 C62.7535609,85.6434046 61.6377706,85.8646416 60.4883775,85.8646416 C58.7941421,85.8646416 57.418996,85.3771702 56.3628977,84.4022128 C55.3067995,83.4272554 54.7787583,82.1335813 54.7787583,80.5211518 C54.7787583,78.8487248 55.2956043,77.5025539 56.3293117,76.4825984 C57.3630192,75.462643 58.700848,74.9526729 60.3428382,74.9526729 Z M68.6497743,69.9466667 L68.6497743,76.6288413 L68.7169463,76.6288413 C69.6051138,75.5113901 70.6761231,74.9526729 71.9300065,74.9526729 C73.0420817,74.9526729 73.9376993,75.3201513 74.6168862,76.0551192 C75.296073,76.7900871 75.6356614,77.7500308 75.6356614,78.934979 L75.6356614,85.6621515 L72.8928051,85.6621515 L72.8928051,79.4637033 C72.8928051,78.7587341 72.7267426,78.198142 72.3946128,77.7819102 C72.062483,77.3656783 71.6090766,77.1575656 71.03438,77.1575656 C70.6164189,77.1575656 70.2227203,77.2775585 69.8532725,77.517548 C69.4838247,77.7575375 69.0826627,78.1550142 68.6497743,78.70999 L68.6497743,85.6621515 L65.8957227,85.6621515 L65.8957227,69.9466667 L68.6497743,69.9466667 Z M82.0617818,74.9526729 C83.4052283,74.9526729 84.4314568,75.2395311 85.140498,75.813256 C85.8495392,76.3869809 86.2040545,77.187559 86.2040545,78.2150141 L86.2040545,83.3560137 C86.2040545,83.7534964 86.3645194,83.9522347 86.6854538,83.9522347 C86.8197985,83.9522347 87.0082513,83.8941131 87.2508181,83.7778682 C87.4933848,83.6616233 87.6967646,83.5285061 87.8609636,83.3785126 L87.8609636,84.9759349 C86.8981603,85.568409 86.0174697,85.8646416 85.2188653,85.8646416 C84.7262683,85.8646416 84.3474967,85.7821464 84.0825392,85.6171536 C83.8175817,85.4521609 83.6328605,85.159678 83.5283702,84.7396964 C82.4760038,85.4896636 81.4199214,85.8646416 80.3600914,85.8646416 C79.6062686,85.8646416 78.9588117,85.6096566 78.4177013,85.0996788 C77.8765909,84.5897011 77.6060397,83.978487 77.6060397,83.2660181 C77.6060397,82.3585578 77.874725,81.6423498 78.4121036,81.1173727 C78.9494822,80.5923957 79.8898807,80.1349225 81.2333272,79.7449396 L83.4611983,79.0924713 L83.4611983,78.6087449 C83.4611983,77.5812898 82.8417294,77.0675699 81.6027732,77.0675699 C80.9683679,77.0675699 80.3377038,77.2138114 79.7107621,77.5062986 C79.0838204,77.7987858 78.5128642,78.2300105 77.9978764,78.7999856 L77.9978764,76.3138566 C79.1398059,75.4063963 80.4944275,74.9526729 82.0617818,74.9526729 Z M80.382482,82.8497884 C80.382482,83.2322717 80.5037636,83.5397536 80.7463303,83.7722435 C80.988897,84.0047333 81.2893021,84.1209765 81.6475545,84.1209765 C82.2521054,84.1209765 82.8566473,83.8434928 83.4611983,83.288517 L83.4611983,80.5211518 C82.6924483,80.7836403 82.0897723,81.0311258 81.6531522,81.2636156 C81.2165321,81.4961055 80.8956024,81.7323416 80.6903536,81.9723311 C80.4851049,82.2123206 80.382482,82.5048035 80.382482,82.8497884 Z M90.8389219,70.2953997 C91.2643466,70.2953997 91.6300571,70.4491407 91.9360644,70.7566272 C92.2420717,71.0641138 92.395073,71.4315922 92.395073,71.8590735 C92.395073,72.2715555 92.2439375,72.6371591 91.9416621,72.9558951 C91.6393866,73.2746312 91.2718102,73.4339969 90.8389219,73.4339969 C90.4209607,73.4339969 90.0571161,73.2746312 89.747377,72.9558951 C89.437638,72.6371591 89.2827708,72.2715555 89.2827708,71.8590735 C89.2827708,71.4240926 89.4395038,71.0547392 89.7529747,70.7510025 C90.0664456,70.4472658 90.4284243,70.2953997 90.8389219,70.2953997 Z M92.2159477,75.1551631 L92.2159477,85.6621515 L89.4618961,85.6621515 L89.4618961,75.1551631 L92.2159477,75.1551631 Z M101.116236,74.9526729 C102.235775,74.9526729 103.129527,75.3220262 103.797518,76.060744 C104.46551,76.7994617 104.799501,77.7725296 104.799501,78.9799768 L104.799501,85.6621515 L102.056644,85.6621515 L102.056644,79.2612131 C102.056644,78.5787429 101.894314,78.0387746 101.569647,77.641292 C101.244981,77.2438094 100.80277,77.045071 100.243001,77.045071 C99.8175758,77.045071 99.4182797,77.1706887 99.0451001,77.4219277 C98.6719205,77.6731667 98.2614291,78.0912672 97.8136136,78.6762416 L97.8136136,85.6621515 L95.059562,85.6621515 L95.059562,75.1551631 L97.8136136,75.1551631 L97.8136136,76.6288413 C98.3211378,76.0288675 98.8417155,75.5995177 99.3753624,75.340779 C99.9090092,75.0820403 100.489295,74.9526729 101.116236,74.9526729 Z" id="Blockchain-Copy-2" fill="#475069"></path>
            </g>
        </g>
    </g>
</svg>