<?xml version="1.0" encoding="UTF-8"?>
<svg width="37px" height="40px" viewBox="0 0 37 40" version="1.1" xmlns="http://www.w3.org/2000/svg" xmlns:xlink="http://www.w3.org/1999/xlink">
    <!-- Generator: Sketch 46.2 (44496) - http://www.bohemiancoding.com/sketch -->
    <title></title>
    <desc>Created with Sketch.</desc>
    <defs>
        <linearGradient x1="95.7828444%" y1="4.21715561%" x2="1.53096782%" y2="98.4690322%" id="linearGradient-1">
            <stop stop-color="#9EFBD3" offset="0%"></stop>
            <stop stop-color="#57E9F2" offset="47.8728925%"></stop>
            <stop stop-color="#45D4FB" offset="100%"></stop>
        </linearGradient>
    </defs>
    <g id="Page-1" stroke="none" stroke-width="1" fill="none" fill-rule="evenodd">
        <path d="M10,31.6666667 C10,32.1180578 9.83507109,32.5086789 9.50520833,32.8385417 C9.17534557,33.1684044 8.78472448,33.3333333 8.33333333,33.3333333 C7.88194219,33.3333333 7.49132109,33.1684044 7.16145833,32.8385417 C6.83159557,32.5086789 6.66666667,32.1180578 6.66666667,31.6666667 C6.66666667,31.2152755 6.83159557,30.8246544 7.16145833,30.4947917 C7.49132109,30.1649289 7.88194219,30 8.33333333,30 C8.78472448,30 9.17534557,30.1649289 9.50520833,30.4947917 C9.83507109,30.8246544 10,31.2152755 10,31.6666667 Z M36.6666667,33.2552083 C36.6666667,35.3559133 36.0329924,37.0052023 34.765625,38.203125 C33.4982576,39.4010477 31.8142466,40 29.7135417,40 L6.953125,40 C4.85242005,40 3.16840911,39.4010477 1.90104167,38.203125 C0.633674219,37.0052023 0,35.3559133 0,33.2552083 C0,32.0746469 0.0477425781,30.9375055 0.143229167,29.84375 C0.238715755,28.7499945 0.447047005,27.5520898 0.768229167,26.25 C1.08941133,24.9479102 1.50173359,23.797748 2.00520833,22.7994792 C2.50868307,21.8012103 3.21180104,20.907122 4.11458333,20.1171875 C5.01736563,19.327253 6.05902187,18.8020846 7.23958333,18.5416667 C6.85763698,19.444449 6.66666667,20.4861052 6.66666667,21.6666667 L6.66666667,26.953125 C5.65971719,27.300349 4.85243359,27.9079818 4.24479167,28.7760417 C3.63714974,29.6441016 3.33333333,30.6076336 3.33333333,31.6666667 C3.33333333,33.0555625 3.81943958,34.2361063 4.79166667,35.2083333 C5.76389375,36.1805604 6.9444375,36.6666667 8.33333333,36.6666667 C9.72222917,36.6666667 10.9027729,36.1805604 11.875,35.2083333 C12.8472271,34.2361063 13.3333333,33.0555625 13.3333333,31.6666667 C13.3333333,30.6076336 13.0251767,29.6441016 12.4088542,28.7760417 C11.7925316,27.9079818 10.9895883,27.300349 10,26.953125 L10,21.6666667 C10,20.5902724 10.2170117,19.7829888 10.6510417,19.2447917 C12.9427198,21.0503563 15.5034581,21.953125 18.3333333,21.953125 C21.1632086,21.953125 23.7239469,21.0503563 26.015625,19.2447917 C26.4496549,19.7829888 26.6666667,20.5902724 26.6666667,21.6666667 L26.6666667,23.3333333 C24.8263797,23.3333333 23.2552148,23.9843685 21.953125,25.2864583 C20.6510352,26.5885482 20,28.159713 20,30 L20,32.3177083 C19.4444417,32.8211831 19.1666667,33.4374964 19.1666667,34.1666667 C19.1666667,34.8611146 19.4097198,35.4513865 19.8958333,35.9375 C20.3819469,36.4236135 20.9722187,36.6666667 21.6666667,36.6666667 C22.3611146,36.6666667 22.9513865,36.4236135 23.4375,35.9375 C23.9236135,35.4513865 24.1666667,34.8611146 24.1666667,34.1666667 C24.1666667,33.4374964 23.8888917,32.8211831 23.3333333,32.3177083 L23.3333333,30 C23.3333333,29.0972177 23.6631911,28.3159755 24.3229167,27.65625 C24.9826422,26.9965245 25.7638844,26.6666667 26.6666667,26.6666667 C27.569449,26.6666667 28.3506911,26.9965245 29.0104167,27.65625 C29.6701422,28.3159755 30,29.0972177 30,30 L30,32.3177083 C29.4444417,32.8211831 29.1666667,33.4374964 29.1666667,34.1666667 C29.1666667,34.8611146 29.4097198,35.4513865 29.8958333,35.9375 C30.3819469,36.4236135 30.9722188,36.6666667 31.6666667,36.6666667 C32.3611146,36.6666667 32.9513865,36.4236135 33.4375,35.9375 C33.9236135,35.4513865 34.1666667,34.8611146 34.1666667,34.1666667 C34.1666667,33.4374964 33.8888917,32.8211831 33.3333333,32.3177083 L33.3333333,30 C33.3333333,28.8194385 33.0338572,27.7126788 32.4348958,26.6796875 C31.8359345,25.6466962 31.0243107,24.8350724 30,24.2447917 C30,24.0711797 30.0043402,23.7022598 30.0130208,23.1380208 C30.0217014,22.5737819 30.0217014,22.1571194 30.0130208,21.8880208 C30.0043402,21.6189223 29.9826391,21.2586828 29.9479167,20.8072917 C29.9131943,20.3559005 29.852431,19.9479185 29.765625,19.5833333 C29.678819,19.2187482 29.5659729,18.8715294 29.4270833,18.5416667 C30.6076448,18.8020846 31.649301,19.327253 32.5520833,20.1171875 C33.4548656,20.907122 34.1579836,21.8012103 34.6614583,22.7994792 C35.1649331,23.797748 35.5772553,24.9479102 35.8984375,26.25 C36.2196197,27.5520898 36.4279509,28.7499945 36.5234375,29.84375 C36.6189241,30.9375055 36.6666667,32.0746469 36.6666667,33.2552083 Z M28.3333333,10 C28.3333333,12.7604305 27.3567806,15.1171777 25.4036458,17.0703125 C23.4505111,19.0234473 21.0937638,20 18.3333333,20 C15.5729029,20 13.2161556,19.0234473 11.2630208,17.0703125 C9.30988607,15.1171777 8.33333333,12.7604305 8.33333333,10 C8.33333333,7.23956953 9.30988607,4.88282227 11.2630208,2.9296875 C13.2161556,0.976552734 15.5729029,0 18.3333333,0 C21.0937638,0 23.4505111,0.976552734 25.4036458,2.9296875 C27.3567806,4.88282227 28.3333333,7.23956953 28.3333333,10 Z" id="" fill="url(#linearGradient-1)"></path>
    </g>
</svg>