<?xml version="1.0" encoding="UTF-8"?>
<svg width="47px" height="40px" viewBox="0 0 47 40" version="1.1" xmlns="http://www.w3.org/2000/svg" xmlns:xlink="http://www.w3.org/1999/xlink">
    <!-- Generator: Sketch 46.2 (44496) - http://www.bohemiancoding.com/sketch -->
    <title></title>
    <desc>Created with Sketch.</desc>
    <defs>
        <linearGradient x1="95.7828444%" y1="4.21715561%" x2="1.53096782%" y2="98.4690322%" id="linearGradient-1">
            <stop stop-color="#9EFBD3" offset="0%"></stop>
            <stop stop-color="#57E9F2" offset="47.8728925%"></stop>
            <stop stop-color="#45D4FB" offset="100%"></stop>
        </linearGradient>
    </defs>
    <g id="Page-1" stroke="none" stroke-width="1" fill="none" fill-rule="evenodd">
        <path d="M33.3333333,25.8333333 L33.3333333,20.8333333 C33.3333333,20.5902766 33.2552091,20.3906258 33.0989583,20.234375 C32.9427076,20.0781242 32.7430568,20 32.5,20 L26.6666667,20 L26.6666667,14.1666667 C26.6666667,13.9236099 26.5885424,13.7239591 26.4322917,13.5677083 C26.2760409,13.4114576 26.0763901,13.3333333 25.8333333,13.3333333 L20.8333333,13.3333333 C20.5902766,13.3333333 20.3906258,13.4114576 20.234375,13.5677083 C20.0781242,13.7239591 20,13.9236099 20,14.1666667 L20,20 L14.1666667,20 C13.9236099,20 13.7239591,20.0781242 13.5677083,20.234375 C13.4114576,20.3906258 13.3333333,20.5902766 13.3333333,20.8333333 L13.3333333,25.8333333 C13.3333333,26.0763901 13.4114576,26.2760409 13.5677083,26.4322917 C13.7239591,26.5885424 13.9236099,26.6666667 14.1666667,26.6666667 L20,26.6666667 L20,32.5 C20,32.7430568 20.0781242,32.9427076 20.234375,33.0989583 C20.3906258,33.2552091 20.5902766,33.3333333 20.8333333,33.3333333 L25.8333333,33.3333333 C26.0763901,33.3333333 26.2760409,33.2552091 26.4322917,33.0989583 C26.5885424,32.9427076 26.6666667,32.7430568 26.6666667,32.5 L26.6666667,26.6666667 L32.5,26.6666667 C32.7430568,26.6666667 32.9427076,26.5885424 33.0989583,26.4322917 C33.2552091,26.2760409 33.3333333,26.0763901 33.3333333,25.8333333 Z M16.6666667,6.66666667 L30,6.66666667 L30,3.33333333 L16.6666667,3.33333333 L16.6666667,6.66666667 Z M6.66666667,6.66666667 L6.66666667,40 L5.83333333,40 C4.23610313,40 2.86458906,39.4270891 1.71875,38.28125 C0.572910938,37.1354109 0,35.7638969 0,34.1666667 L0,12.5 C0,10.9027698 0.572910938,9.53125573 1.71875,8.38541667 C2.86458906,7.2395776 4.23610313,6.66666667 5.83333333,6.66666667 L6.66666667,6.66666667 Z M37.5,6.66666667 L37.5,40 L9.16666667,40 L9.16666667,6.66666667 L13.3333333,6.66666667 L13.3333333,2.5 C13.3333333,1.80555208 13.5763865,1.21528021 14.0625,0.729166667 C14.5486135,0.243053125 15.1388854,0 15.8333333,0 L30.8333333,0 C31.5277813,0 32.1180531,0.243053125 32.6041667,0.729166667 C33.0902802,1.21528021 33.3333333,1.80555208 33.3333333,2.5 L33.3333333,6.66666667 L37.5,6.66666667 Z M46.6666667,12.5 L46.6666667,34.1666667 C46.6666667,35.7638969 46.0937557,37.1354109 44.9479167,38.28125 C43.8020776,39.4270891 42.4305635,40 40.8333333,40 L40,40 L40,6.66666667 L40.8333333,6.66666667 C42.4305635,6.66666667 43.8020776,7.2395776 44.9479167,8.38541667 C46.0937557,9.53125573 46.6666667,10.9027698 46.6666667,12.5 Z" id="" fill="url(#linearGradient-1)"></path>
    </g>
</svg>