<?xml version="1.0" encoding="UTF-8"?>
<svg width="126px" height="50px" viewBox="0 0 126 50" version="1.1" xmlns="http://www.w3.org/2000/svg" xmlns:xlink="http://www.w3.org/1999/xlink">
    <!-- Generator: Sketch 46.2 (44496) - http://www.bohemiancoding.com/sketch -->
    <title>logo</title>
    <desc>Created with Sketch.</desc>
    <defs>
        <linearGradient x1="95.7828444%" y1="4.21715561%" x2="1.53096782%" y2="98.4690322%" id="linearGradient-1">
            <stop stop-color="#9EFBD3" offset="0%"></stop>
            <stop stop-color="#57E9F2" offset="47.8728925%"></stop>
            <stop stop-color="#45D4FB" offset="100%"></stop>
        </linearGradient>
    </defs>
    <g id="Page-1" stroke="none" stroke-width="1" fill="none" fill-rule="evenodd">
        <g id="Medtech-1" transform="translate(-50.000000, -30.000000)">
            <g id="logo" transform="translate(50.000000, 30.000000)">
                <path d="M69.719888,17.2689076 L69.719888,32.7310924 L66.9187675,32.7310924 L66.9187675,25.6498599 L60.8011204,25.6498599 L60.8011204,32.7310924 L58,32.7310924 L58,17.2689076 L60.8011204,17.2689076 L60.8011204,23.3417367 L66.9187675,23.3417367 L66.9187675,17.2689076 L69.719888,17.2689076 Z M81.4621849,28.3613445 L75.7254902,28.3613445 L74.4481793,32.7310924 L71.5798319,32.7310924 L76.2184874,18.0084034 C76.3529418,17.5154037 76.6890729,17.2689076 77.2268908,17.2689076 L79.9607843,17.2689076 C80.4986021,17.2689076 80.8347332,17.5154037 80.9691877,18.0084034 L85.6078431,32.7310924 L82.7394958,32.7310924 L81.4621849,28.3613445 Z M80.789916,26.0532213 L79.2436975,20.719888 C79.0345461,19.9131612 78.9225024,19.472456 78.907563,19.3977591 L78.302521,19.3977591 L77.9439776,20.719888 L76.3977591,26.0532213 L80.789916,26.0532213 Z M95.7142857,28.3613445 L89.977591,28.3613445 L88.7002801,32.7310924 L85.8319328,32.7310924 L90.4705882,18.0084034 C90.6050427,17.5154037 90.9411738,17.2689076 91.4789916,17.2689076 L94.2128852,17.2689076 C94.750703,17.2689076 95.0868341,17.5154037 95.2212885,18.0084034 L99.859944,32.7310924 L96.9915966,32.7310924 L95.7142857,28.3613445 Z M95.0420168,26.0532213 L93.4957983,20.719888 C93.2866469,19.9131612 93.1746032,19.472456 93.1596639,19.3977591 L92.5546218,19.3977591 L92.1960784,20.719888 L90.6498599,26.0532213 L95.0420168,26.0532213 Z M107.277311,26.6134454 L104.162465,25.627451 C103.042011,25.2689058 102.242766,24.7273612 101.764706,24.0028011 C101.286646,23.278241 101.047619,22.3258696 101.047619,21.1456583 C101.047619,19.4575079 101.439772,18.3445405 102.22409,17.8067227 C103.008407,17.2689049 104.386545,17 106.358543,17 C108.255845,17 109.876744,17.1718003 111.221289,17.5154062 L111.042017,19.5098039 C109.338927,19.4500464 107.807663,19.4201681 106.448179,19.4201681 C105.417362,19.4201681 104.73016,19.5210074 104.386555,19.7226891 C104.042949,19.9243708 103.871148,20.4136282 103.871148,21.1904762 C103.871148,21.8328697 103.994397,22.2847793 104.240896,22.5462185 C104.487396,22.8076577 104.939306,23.0429495 105.596639,23.2521008 L108.577031,24.1708683 C109.757242,24.5443529 110.582631,25.0933671 111.053221,25.8179272 C111.523812,26.5424873 111.759104,27.4948587 111.759104,28.67507 C111.759104,30.3781598 111.355746,31.5247403 110.54902,32.1148459 C109.742293,32.7049516 108.315603,33 106.268908,33 C104.565818,33 102.892632,32.8356692 101.2493,32.5070028 L101.428571,30.4453782 C104.042964,30.5051357 105.678802,30.535014 106.336134,30.535014 C107.366952,30.535014 108.054153,30.4155007 108.397759,30.1764706 C108.741365,29.9374404 108.913165,29.429509 108.913165,28.6526611 C108.913165,27.9953282 108.797387,27.5396838 108.565826,27.2857143 C108.334266,27.0317448 107.904765,26.8076574 107.277311,26.6134454 Z M114.470588,32.7310924 L114.470588,17.2689076 C115.800193,17.1344531 117.667588,17.0672269 120.072829,17.0672269 C122.104585,17.0672269 123.497662,17.4145624 124.252101,18.1092437 C125.00654,18.803925 125.383754,20.1148363 125.383754,22.0420168 C125.383754,23.9691973 125.025214,25.2801086 124.308123,25.9747899 C123.591033,26.6694713 122.298796,27.0168067 120.431373,27.0168067 C119.325858,27.0168067 118.272647,26.9570501 117.271709,26.837535 L117.271709,32.7310924 L114.470588,32.7310924 Z M117.271709,24.7310924 L120.005602,24.7310924 C120.991602,24.7161531 121.663864,24.5256788 122.022409,24.1596639 C122.380954,23.793649 122.560224,23.0877737 122.560224,22.0420168 C122.560224,20.9962599 122.380954,20.2903846 122.022409,19.9243697 C121.663864,19.5583548 120.991602,19.3753501 120.005602,19.3753501 L117.271709,19.3753501 L117.271709,24.7310924 Z" id="Haasp" fill="#FFFFFF"></path>
                <path d="M32.4504305,29.0030728 C33.7162485,27.9786037 34.8591351,26.9291415 35.8602923,25.8798808 C36.1550522,26.2036143 36.4360938,26.5280946 36.7045293,26.8533218 C34.0149838,29.2258741 30.7537153,31.5808769 27.0823782,33.7152032 C26.3290358,34.1533031 25.5765759,34.5714061 24.8268705,34.9695122 C26.390822,35.5156631 27.9136295,35.9519123 29.3636234,36.2749004 C29.2277486,36.6666102 29.0853117,37.0482316 28.9363126,37.41559 C25.4155343,36.3350832 21.6125841,34.7828549 17.7941937,32.7961279 C16.7782208,32.2673545 15.7923565,31.7236223 14.8389169,31.1694538 C14.7814017,30.8083573 14.7292907,30.4430861 14.6818117,30.0746841 C15.8012347,30.7777441 16.9885951,31.4588877 18.2354007,32.1076788 C20.0700035,33.0623497 21.9076062,33.8815243 23.7019755,34.5602987 C24.6831495,34.0783755 25.6714328,33.5502218 26.6589621,32.9762543 C28.4535914,31.9326941 30.1201601,30.8112762 31.6303268,29.6499852 C31.710674,28.4760316 31.7528461,27.2670586 31.7528461,26.032237 C31.7528461,21.7904545 31.2579759,17.852843 30.4123242,14.5948173 C30.7939109,14.5006868 31.1701977,14.4150464 31.5365474,14.3441716 C31.8529412,16.1229498 32.0995329,18.0274167 32.2653305,20.0258503 C41.4565951,26.2133006 46.7154815,33.2400717 44.4202408,36.9678767 C42.7364688,39.7023546 37.3795393,40.022971 30.5745196,38.2749774 C30.6985423,37.7913357 30.8163831,37.2979124 30.9272695,36.793983 C35.3461084,37.4051468 38.7673569,36.7222519 40.0670836,34.6112553 C41.9977478,31.4761434 38.6857609,26.1177534 32.3592936,21.3016756 C32.4580224,22.8336451 32.5097259,24.4149993 32.5097259,26.032237 C32.5097259,27.0373221 32.4894927,28.028644 32.4504305,29.0030728 Z M13.4621508,21.065953 C13.3826665,22.2348358 13.3411703,23.4378905 13.3411703,24.6670271 C13.3411703,28.9138627 13.8359624,32.8561914 14.6818117,36.1181839 C14.3006165,36.2131575 13.926045,36.2955665 13.5571037,36.3668891 C13.1924924,34.3146603 12.9207085,32.0951499 12.7584453,29.7572068 C3.49876101,23.4714862 -1.77876924,16.3699061 0.547488767,12.5895842 C2.21634289,9.87741244 7.42196667,9.49135582 14.0830041,11.1072687 C15.7316626,4.39899111 18.4942622,0 21.6247289,0 C24.7392365,0 27.4899565,4.35687709 29.1414595,11.0093009 C28.6762826,11.1514098 28.2011095,11.3047971 27.7152263,11.4687111 C26.194387,7.42199219 24.0287975,4.89110112 21.6247289,4.89110112 C18.0093439,4.89110112 14.9323218,10.6126744 13.7799111,18.6094931 C13.4346877,18.8410779 13.0937484,19.0745425 12.7560221,19.3095108 C12.9680899,16.9572245 13.29658,14.7344662 13.7233557,12.692036 C9.50195919,12.2082066 6.2568838,12.9357946 4.98913006,14.995621 C3.03717085,18.167652 6.33787196,23.5688887 12.6799025,28.4509903 C12.6170168,27.2168215 12.58441,25.95323 12.58441,24.6670271 C12.58441,23.6673834 12.6043523,22.6815008 12.6428355,21.7125069 C11.3792885,22.7355014 10.2380552,23.7834078 9.2377803,24.8311799 C8.9416987,24.5088288 8.65897416,24.1853557 8.38960669,23.8615087 C11.0788291,21.4887499 14.339437,19.133193 18.0085485,16.998271 C18.9858404,16.429482 19.9620193,15.8947231 20.9322616,15.3928724 C21.2954996,15.5390897 21.6594796,15.6890466 22.0227176,15.8479784 C20.8339388,16.4100362 19.632545,17.0397802 18.4326353,17.7383324 C16.6384557,18.7823527 14.9722066,19.9042151 13.4621508,21.065953 Z M23.0714184,27.9772824 C21.3338926,27.9772824 19.9253159,26.5687057 19.9253159,24.8311799 C19.9253159,23.0940376 21.3338926,21.6850774 23.0714184,21.6850774 C24.8089442,21.6850774 26.2175209,23.0940376 26.2175209,24.8311799 C26.2175209,26.5687057 24.8089442,27.9772824 23.0714184,27.9772824 Z M27.308472,16.8707296 C28.3204383,17.3973424 29.3019027,17.9385737 30.2513208,18.4905948 C30.3100079,18.8518797 30.3640618,19.2176894 30.4123242,19.5876758 C29.295339,18.8866856 28.1111725,18.2069269 26.8671605,17.5595378 C23.0262448,15.5606367 19.1733599,14.1551757 15.7305125,13.3887505 C15.8652612,12.9909194 16.0069596,12.6097951 16.1552218,12.2467699 C19.6795361,13.3271441 23.4864751,14.8812261 27.308472,16.8707296 Z M22.3815965,45.2403255 C26.093269,45.2403255 29.2506007,39.6307222 30.4188062,31.8035475 C30.7697425,31.5792658 31.1170271,31.352423 31.4610251,31.123385 C30.4494811,41.9646421 26.7684837,50 22.3815965,50 C19.1888425,50 16.3700311,45.7430385 14.6818117,39.246553 C15.1612908,39.108252 15.6462476,38.9593407 16.1363169,38.799819 C17.6919766,42.7607872 19.9140866,45.2403255 22.3815965,45.2403255 Z M23.1632046,14.2388034 C33.2432637,9.69661787 42.2038969,8.87700573 44.443122,12.6906063 C46.0716833,15.4647346 43.7626574,20.0417894 38.9038486,24.7608908 C38.5350614,24.4118307 38.1543297,24.0635047 37.7620267,23.717014 C40.4495448,20.3860779 41.4954373,17.2203123 40.2375295,15.078236 C38.3454421,11.8555783 31.8039485,11.9143055 24.3147314,14.8014838 C23.9310136,14.6098862 23.5472957,14.4215919 23.1632046,14.2388034 Z M4.54702464,35.6870671 C6.36545914,38.9486893 12.6460825,38.8947506 19.8411331,35.9816844 C20.2219947,36.1728881 20.5999819,36.3599999 20.9740167,36.5422757 C11.2746215,41.1419518 2.65349573,41.971121 0.498753252,38.1068724 C-1.06816887,35.2968479 1.15196683,30.6603447 5.82506683,25.8798808 C6.18077719,26.2355047 6.54726666,26.5885248 6.92525384,26.9378249 C4.3415031,30.3117886 3.3368908,33.5179841 4.54702464,35.6870671 Z" id="Combined-Shape" fill="url(#linearGradient-1)"></path>
            </g>
        </g>
    </g>
</svg>