<?xml version="1.0" encoding="UTF-8"?>
<svg width="60px" height="40px" viewBox="0 0 60 40" version="1.1" xmlns="http://www.w3.org/2000/svg" xmlns:xlink="http://www.w3.org/1999/xlink">
    <!-- Generator: Sketch 46.2 (44496) - http://www.bohemiancoding.com/sketch -->
    <title></title>
    <desc>Created with Sketch.</desc>
    <defs>
        <linearGradient x1="95.7828444%" y1="4.21715561%" x2="1.53096782%" y2="98.4690322%" id="linearGradient-1">
            <stop stop-color="#9EFBD3" offset="0%"></stop>
            <stop stop-color="#57E9F2" offset="47.8728925%"></stop>
            <stop stop-color="#45D4FB" offset="100%"></stop>
        </linearGradient>
    </defs>
    <g id="Page-1" stroke="none" stroke-width="1" fill="none" fill-rule="evenodd">
        <path d="M24,28 L36,28 L36,25 L32,25 L32,11 L28.4375,11 L23.8125,15.28125 L26.21875,17.78125 C27.0937544,17.0104128 27.6666653,16.4166688 27.9375,16 L28,16 L28,25 L24,25 L24,28 Z M40,20 C40,21.4583406 39.7812522,22.9374925 39.34375,24.4375 C38.9062478,25.9375075 38.2864623,27.3333269 37.484375,28.625 C36.6822877,29.9166731 35.6250066,30.9687459 34.3125,31.78125 C32.9999934,32.5937541 31.5625078,33 30,33 C28.4374922,33 27.0000066,32.5937541 25.6875,31.78125 C24.3749934,30.9687459 23.3177123,29.9166731 22.515625,28.625 C21.7135377,27.3333269 21.0937522,25.9375075 20.65625,24.4375 C20.2187478,22.9374925 20,21.4583406 20,20 C20,18.5416594 20.2187478,17.0625075 20.65625,15.5625 C21.0937522,14.0624925 21.7135377,12.6666731 22.515625,11.375 C23.3177123,10.0833269 24.3749934,9.03125406 25.6875,8.21875 C27.0000066,7.40624594 28.4374922,7 30,7 C31.5625078,7 32.9999934,7.40624594 34.3125,8.21875 C35.6250066,9.03125406 36.6822877,10.0833269 37.484375,11.375 C38.2864623,12.6666731 38.9062478,14.0624925 39.34375,15.5625 C39.7812522,17.0625075 40,18.5416594 40,20 Z M56,28 L56,12 C53.7916556,12 51.9062578,11.2187578 50.34375,9.65625 C48.7812422,8.09374219 48,6.20834437 48,4 L12,4 C12,6.20834437 11.2187578,8.09374219 9.65625,9.65625 C8.09374219,11.2187578 6.20834437,12 4,12 L4,28 C6.20834437,28 8.09374219,28.7812422 9.65625,30.34375 C11.2187578,31.9062578 12,33.7916556 12,36 L48,36 C48,33.7916556 48.7812422,31.9062578 50.34375,30.34375 C51.9062578,28.7812422 53.7916556,28 56,28 Z M60,2 L60,38 C60,38.5416694 59.8020853,39.0104147 59.40625,39.40625 C59.0104147,39.8020853 58.5416694,40 58,40 L2,40 C1.45833063,40 0.989585312,39.8020853 0.59375,39.40625 C0.197914688,39.0104147 0,38.5416694 0,38 L0,2 C0,1.45833063 0.197914688,0.989585313 0.59375,0.59375 C0.989585312,0.197914688 1.45833063,0 2,0 L58,0 C58.5416694,0 59.0104147,0.197914688 59.40625,0.59375 C59.8020853,0.989585313 60,1.45833063 60,2 Z" id="" fill="url(#linearGradient-1)"></path>
    </g>
</svg>