<?xml version="1.0" encoding="UTF-8"?>
<svg width="42px" height="40px" viewBox="0 0 42 40" version="1.1" xmlns="http://www.w3.org/2000/svg" xmlns:xlink="http://www.w3.org/1999/xlink">
    <!-- Generator: Sketch 46.2 (44496) - http://www.bohemiancoding.com/sketch -->
    <title>icons8-Open Source</title>
    <desc>Created with Sketch.</desc>
    <defs>
        <linearGradient x1="95.7828444%" y1="4.21715561%" x2="1.53096782%" y2="98.4690322%" id="linearGradient-1">
            <stop stop-color="#9EFBD3" offset="0%"></stop>
            <stop stop-color="#57E9F2" offset="47.8728925%"></stop>
            <stop stop-color="#45D4FB" offset="100%"></stop>
        </linearGradient>
    </defs>
    <g id="Page-1" stroke="none" stroke-width="1" fill="none" fill-rule="evenodd">
        <g id="icons8-Open-Source" fill-rule="nonzero" fill="url(#linearGradient-1)">
            <path d="M20.5714286,0 C9.20982171,0 0,9.254464 0,20.6651783 C0,29.5089291 5.53125029,37.0491074 13.3035714,40 L17.7901783,28.0625006 C14.745536,26.9330354 12.5714286,24.0089291 12.5714286,20.5714286 C12.5714286,16.1517863 16.1517863,12.5714286 20.5714286,12.5714286 C24.991072,12.5714286 28.5714286,16.1517863 28.5714286,20.5714286 C28.5714286,24.0089291 26.3973211,26.9330354 23.3526789,28.0625006 L27.8392857,40 C35.6116069,37.0491074 41.1428571,29.5089291 41.1428571,20.6651783 C41.1428571,9.254464 31.9330354,0 20.5714286,0 Z" id="Shape"></path>
        </g>
    </g>
</svg>