<?xml version="1.0" encoding="UTF-8"?>
<svg width="1252px" height="856px" viewBox="0 0 1252 856" version="1.1" xmlns="http://www.w3.org/2000/svg" xmlns:xlink="http://www.w3.org/1999/xlink">
    <!-- Generator: Sketch 52.6 (67491) - http://www.bohemiancoding.com/sketch -->
    <title>PLATFORM ARCHITECTURE</title>
    <desc>Created with Sketch.</desc>
    <defs>
        <linearGradient x1="99.1577854%" y1="49.1577854%" x2="0.842214595%" y2="49.1577854%" id="linearGradient-1">
            <stop stop-color="#80E7F7" offset="0%"></stop>
            <stop stop-color="#80DFF3" offset="100%"></stop>
        </linearGradient>
        <linearGradient x1="50%" y1="0%" x2="50%" y2="100%" id="linearGradient-2">
            <stop stop-color="#05D0EF" offset="0%"></stop>
            <stop stop-color="#01BEE7" offset="100%"></stop>
        </linearGradient>
        <linearGradient x1="-1.11022302e-14%" y1="50%" x2="100%" y2="50%" id="linearGradient-3">
            <stop stop-color="#05D0EF" offset="0%"></stop>
            <stop stop-color="#01BEE7" offset="100%"></stop>
        </linearGradient>
        <linearGradient x1="50%" y1="0%" x2="50%" y2="98.3155708%" id="linearGradient-4">
            <stop stop-color="#80E7F7" offset="0%"></stop>
            <stop stop-color="#80DFF3" offset="100%"></stop>
        </linearGradient>
        <rect id="path-5" x="349" y="547" width="254" height="72" rx="20"></rect>
        <filter x="-8.3%" y="-20.8%" width="116.5%" height="158.3%" filterUnits="objectBoundingBox" id="filter-6">
            <feOffset dx="0" dy="6" in="SourceAlpha" result="shadowOffsetOuter1"></feOffset>
            <feGaussianBlur stdDeviation="6" in="shadowOffsetOuter1" result="shadowBlurOuter1"></feGaussianBlur>
            <feComposite in="shadowBlurOuter1" in2="SourceAlpha" operator="out" result="shadowBlurOuter1"></feComposite>
            <feColorMatrix values="0 0 0 0 0   0 0 0 0 0   0 0 0 0 0  0 0 0 0.1 0" type="matrix" in="shadowBlurOuter1"></feColorMatrix>
        </filter>
        <linearGradient x1="100%" y1="50%" x2="0%" y2="50%" id="linearGradient-7">
            <stop stop-color="#05D0EF" offset="0%"></stop>
            <stop stop-color="#01BEE7" offset="100%"></stop>
        </linearGradient>
        <rect id="path-8" x="349" y="709" width="254" height="72" rx="36"></rect>
        <filter x="-8.3%" y="-20.8%" width="116.5%" height="158.3%" filterUnits="objectBoundingBox" id="filter-9">
            <feOffset dx="0" dy="6" in="SourceAlpha" result="shadowOffsetOuter1"></feOffset>
            <feGaussianBlur stdDeviation="6" in="shadowOffsetOuter1" result="shadowBlurOuter1"></feGaussianBlur>
            <feComposite in="shadowBlurOuter1" in2="SourceAlpha" operator="out" result="shadowBlurOuter1"></feComposite>
            <feColorMatrix values="0 0 0 0 0   0 0 0 0 0   0 0 0 0 0  0 0 0 0.1 0" type="matrix" in="shadowBlurOuter1"></feColorMatrix>
        </filter>
        <rect id="path-10" x="180" y="75" width="592" height="72" rx="36"></rect>
        <filter x="-3.5%" y="-20.8%" width="107.1%" height="158.3%" filterUnits="objectBoundingBox" id="filter-11">
            <feOffset dx="0" dy="6" in="SourceAlpha" result="shadowOffsetOuter1"></feOffset>
            <feGaussianBlur stdDeviation="6" in="shadowOffsetOuter1" result="shadowBlurOuter1"></feGaussianBlur>
            <feComposite in="shadowBlurOuter1" in2="SourceAlpha" operator="out" result="shadowBlurOuter1"></feComposite>
            <feColorMatrix values="0 0 0 0 0   0 0 0 0 0   0 0 0 0 0  0 0 0 0.1 0" type="matrix" in="shadowBlurOuter1"></feColorMatrix>
        </filter>
        <rect id="path-12" x="943" y="356" width="228" height="161" rx="80.5"></rect>
        <filter x="-9.2%" y="-9.3%" width="118.4%" height="126.1%" filterUnits="objectBoundingBox" id="filter-13">
            <feOffset dx="0" dy="6" in="SourceAlpha" result="shadowOffsetOuter1"></feOffset>
            <feGaussianBlur stdDeviation="6" in="shadowOffsetOuter1" result="shadowBlurOuter1"></feGaussianBlur>
            <feComposite in="shadowBlurOuter1" in2="SourceAlpha" operator="out" result="shadowBlurOuter1"></feComposite>
            <feColorMatrix values="0 0 0 0 0   0 0 0 0 0   0 0 0 0 0  0 0 0 0.1 0" type="matrix" in="shadowBlurOuter1"></feColorMatrix>
        </filter>
    </defs>
    <g id="PLATFORM-ARCHITECTURE" stroke="none" stroke-width="1" fill="none" fill-rule="evenodd">
        <rect fill="#FFFFFF" x="0" y="0" width="1252" height="856"></rect>
        <path d="M1030.5,178.5 L1030.5,344.5 L1163,344.5 C1166.58985,344.5 1169.5,341.589851 1169.5,338 L1169.5,185 C1169.5,181.410149 1166.58985,178.5 1163,178.5 L1030.5,178.5 Z" id="Rectangle" stroke="url(#linearGradient-2)" stroke-width="3" fill="url(#linearGradient-1)"></path>
        <path d="M960,177 L1034,177 L1034,346 L960,346 C955.581722,346 952,342.418278 952,338 L952,185 C952,180.581722 955.581722,177 960,177 Z" id="Rectangle" fill="url(#linearGradient-3)"></path>
        <g id="Rectangle">
            <use fill="black" fill-opacity="1" filter="url(#filter-6)" xlink:href="#path-5"></use>
            <rect stroke="url(#linearGradient-4)" stroke-width="3" stroke-linejoin="square" fill="#FFFFFF" fill-rule="evenodd" x="350.5" y="548.5" width="251" height="69" rx="20"></rect>
        </g>
        <text id="Exchange" font-family="SFProText-Regular, SF Pro Text" font-size="24" font-weight="normal" line-spacing="24" fill="#212121">
            <tspan x="421" y="594">Exchange</tspan>
        </text>
        <path id="Path-2" d="M464.5,663 L487.5,663 L487.5,655 L506.5,664.5 L487.5,674 L487.5,666 L464.5,666 L464.5,674 L445.5,664.5 L464.5,655 L464.5,663 Z" fill="url(#linearGradient-7)" fill-rule="nonzero"></path>
        <text id="Medical-device" transform="translate(1101.000000, 262.500000) rotate(-90.000000) translate(-1101.000000, -262.500000) " font-family="SFProText-Regular, SF Pro Text" font-size="24" font-weight="normal" line-spacing="24" fill="#FFFFFF">
            <tspan x="1056.5" y="261.5">Medical</tspan>
            <tspan x="1063.27344" y="285.5">device</tspan>
        </text>
        <text id="Embedded-MDaasS-Comp" transform="translate(993.000000, 261.000000) rotate(-90.000000) translate(-993.000000, -261.000000) " font-family="SFProText-Regular, SF Pro Text" font-size="24" font-weight="normal" line-spacing="24" fill="#FFFFFF">
            <tspan x="924.878906" y="243.160156">Embedded </tspan>
            <tspan x="939.292969" y="267.160156">MDaasS </tspan>
            <tspan x="913.640625" y="291.160156">Components </tspan>
        </text>
        <path d="M178,167 L774,167 C778.418278,167 782,170.581722 782,175 L782,519 C782,523.418278 778.418278,527 774,527 L178,527 C173.581722,527 170,523.418278 170,519 L170,175 C170,170.581722 173.581722,167 178,167 Z" id="Rectangle" stroke="#8C96AB" stroke-width="3" stroke-linecap="round" stroke-dasharray="0,7"></path>
        <rect id="Rectangle" fill="url(#linearGradient-2)" x="180" y="323" width="514" height="63" rx="8"></rect>
        <rect id="Rectangle" fill="url(#linearGradient-2)" x="180" y="454" width="514" height="63" rx="8"></rect>
        <text id="MD-Blockchain" font-family="SFProText-Regular, SF Pro Text" font-size="24" font-weight="normal" line-spacing="14" fill="#FFFFFF">
            <tspan x="353" y="501">MD Blockchain</tspan>
        </text>
        <rect id="Rectangle" fill="url(#linearGradient-2)" x="180" y="177" width="592" height="63" rx="8"></rect>
        <rect id="Rectangle" fill="url(#linearGradient-2)" x="180" y="250" width="252" height="63" rx="8"></rect>
        <rect id="Rectangle" fill="url(#linearGradient-2)" x="442" y="250" width="252" height="63" rx="8"></rect>
        <rect id="Rectangle" fill="url(#linearGradient-7)" transform="translate(740.000000, 384.500000) rotate(-90.000000) translate(-740.000000, -384.500000) " x="607" y="353" width="266" height="63" rx="8"></rect>
        <text id="Document-&amp;-Transacti" font-family="SFProText-Regular, SF Pro Text" font-size="24" font-weight="normal" line-spacing="14" fill="#FFFFFF">
            <tspan x="220" y="371">Document &amp; Transaction Management</tspan>
        </text>
        <text id="MDignum-Platform" transform="translate(152.000000, 347.000000) rotate(-90.000000) translate(-152.000000, -347.000000) " font-family="SFProText-Bold, SF Pro Text" font-size="24" font-weight="bold" line-spacing="14" fill="#212121">
            <tspan x="39" y="363">MDignum Platform</tspan>
        </text>
        <text id="Business-Solutions" font-family="SFProText-Regular, SF Pro Text" font-size="24" font-weight="normal" line-spacing="14" fill="#FFFFFF">
            <tspan x="370" y="225">Business Solutions</tspan>
        </text>
        <text id="B2B-Marketplace" font-family="SFProText-Regular, SF Pro Text" font-size="24" font-weight="normal" line-spacing="14" fill="#FFFFFF">
            <tspan x="210" y="298">B2B Marketplace</tspan>
        </text>
        <text id="MDaaS-Framework" font-family="SFProText-Regular, SF Pro Text" font-size="24" font-weight="normal" line-spacing="14" fill="#FFFFFF">
            <tspan x="462" y="298">MDaaS Framework</tspan>
        </text>
        <text id="Integration-API" transform="translate(741.000000, 371.000000) rotate(-90.000000) translate(-741.000000, -371.000000) " font-family="SFProText-Regular, SF Pro Text" font-size="24" font-weight="normal" line-spacing="14" fill="#FFFFFF">
            <tspan x="657" y="387">Integration API</tspan>
        </text>
        <path id="Path-2" d="M825.5,425 L908.5,425 L908.5,417 L927.5,426.5 L908.5,436 L908.5,428 L825.5,428 L825.5,436 L806.5,426.5 L825.5,417 L825.5,425 Z" fill="url(#linearGradient-7)" fill-rule="nonzero"></path>
        <text id="Data-flow" font-family="SFProText-Regular, SF Pro Text" font-size="24" font-weight="normal" line-spacing="24" fill="#212121">
            <tspan x="814" y="409">Data flow</tspan>
        </text>
        <text id="Financial-transactio" font-family="SFProText-Regular, SF Pro Text" font-size="24" font-weight="normal" line-spacing="24" fill="#212121">
            <tspan x="209" y="419">Financial</tspan>
            <tspan x="209" y="443">transaction</tspan>
        </text>
        <path id="Path-2" d="M184.515524,417.955635 L211.016666,418.250093 L210.983334,421.249907 L184.482192,420.95545 L184.393309,428.954957 L165.500031,419.244445 L184.604407,409.956129 L184.515524,417.955635 Z" fill="url(#linearGradient-2)" fill-rule="nonzero"></path>
        <text id="Compliance-transacti" font-family="SFProText-Regular, SF Pro Text" font-size="24" font-weight="normal" line-spacing="24" fill="#212121">
            <tspan x="373" y="419">Compliance</tspan>
            <tspan x="373" y="443">transactions</tspan>
        </text>
        <path id="Path-2" d="M348.5,418 L375,418 L375,421 L348.5,421 L348.5,429 L329.5,419.5 L348.5,410 L348.5,418 Z" fill="url(#linearGradient-2)" fill-rule="nonzero"></path>
        <text id="IoT-transactions" font-family="SFProText-Regular, SF Pro Text" font-size="24" font-weight="normal" line-spacing="24" fill="#212121">
            <tspan x="549" y="419">IoT</tspan>
            <tspan x="549" y="443">transactions</tspan>
        </text>
        <path id="Path-2" d="M524.5,418 L551,418 L551,421 L524.5,421 L524.5,429 L505.5,419.5 L524.5,410 L524.5,418 Z" fill="url(#linearGradient-2)" fill-rule="nonzero"></path>
        <path id="Path-2" d="M826.5,290 L909.5,290 L909.5,282 L928.5,291.5 L909.5,301 L909.5,293 L826.5,293 L826.5,301 L807.5,291.5 L826.5,282 L826.5,290 Z" fill="url(#linearGradient-7)" fill-rule="nonzero"></path>
        <text id="Connectivity" font-family="SFProText-Regular, SF Pro Text" font-size="24" font-weight="normal" line-spacing="24" fill="#212121">
            <tspan x="797" y="274">Connectivity</tspan>
        </text>
        <g id="Rectangle">
            <use fill="black" fill-opacity="1" filter="url(#filter-9)" xlink:href="#path-8"></use>
            <rect stroke="url(#linearGradient-4)" stroke-width="3" stroke-linejoin="square" fill="#FFFFFF" fill-rule="evenodd" x="350.5" y="710.5" width="251" height="69" rx="34.5"></rect>
        </g>
        <g id="Rectangle">
            <use fill="black" fill-opacity="1" filter="url(#filter-11)" xlink:href="#path-10"></use>
            <rect stroke="url(#linearGradient-4)" stroke-width="3" stroke-linejoin="square" fill="#FFFFFF" fill-rule="evenodd" x="181.5" y="76.5" width="589" height="69" rx="34.5"></rect>
        </g>
        <text id="Token-Holders" font-family="SFProText-Regular, SF Pro Text" font-size="24" font-weight="normal" line-spacing="24" fill="#212121">
            <tspan x="393" y="756">Token Holders</tspan>
        </text>
        <text id="Platform-Users" font-family="SFProText-Regular, SF Pro Text" font-size="24" font-weight="normal" line-spacing="14" fill="#212121">
            <tspan x="392" y="127">Platform Users</tspan>
        </text>
        <g id="Rectangle">
            <use fill="black" fill-opacity="1" filter="url(#filter-13)" xlink:href="#path-12"></use>
            <rect stroke="url(#linearGradient-4)" stroke-width="3" stroke-linejoin="square" fill="#FFFFFF" fill-rule="evenodd" x="944.5" y="357.5" width="225" height="158" rx="79"></rect>
        </g>
        <text id="MIS/EHR-ERP,-CRM-etc" font-family="SFProText-Regular, SF Pro Text" font-size="24" font-weight="normal" line-spacing="24">
            <tspan x="1001.24219" y="424" fill="#212121">MIS/EHR</tspan>
            <tspan x="994" y="448" fill="#212121">ERP, CRM</tspan>
            <tspan x="1114.29297" y="452.839844" fill="#000000"></tspan>
            <tspan x="1028.98633" y="472" fill="#8C96AB">etc.</tspan>
        </text>
    </g>
</svg>