<?xml version="1.0" encoding="UTF-8"?>
<svg width="36px" height="36px" viewBox="0 0 36 36" version="1.1" xmlns="http://www.w3.org/2000/svg" xmlns:xlink="http://www.w3.org/1999/xlink">
    <!-- Generator: Sketch 46.2 (44496) - http://www.bohemiancoding.com/sketch -->
    <title>Shape</title>
    <desc>Created with Sketch.</desc>
    <defs></defs>
    <g id="Page-1" stroke="none" stroke-width="1" fill="none" fill-rule="evenodd" fill-opacity="0.8" opacity="0.25">
        <g id="Medtech-2" transform="translate(-184.000000, -7885.000000)" fill-rule="nonzero" fill="#8990A4">
            <g id="Group-22" transform="translate(0.000000, 7516.000000)">
                <g id="Group-21" transform="translate(184.000000, 100.000000)">
                    <path d="M27.0351564,271.408203 C24.2695308,269.802734 21.2578128,269 18,269 C14.7421872,269 11.7304692,269.802734 8.9648436,271.408203 C6.1992192,273.013672 4.0136724,275.199219 2.4082032,277.964844 C0.802734,280.730469 0,283.742187 0,287 C0,290.257813 0.802734,293.269531 2.4082032,296.035156 C4.0136724,298.800781 6.1992192,300.986328 8.9648436,302.591797 C11.7304692,304.197266 14.7421872,305 18,305 C21.2578128,305 24.2695308,304.197266 27.0351564,302.591797 C29.8007808,300.986328 31.9863276,298.800781 33.5917968,296.035156 C35.197266,293.269531 36,290.257813 36,287 C36,283.742187 35.197266,280.730469 33.5917968,277.964844 C31.9863276,275.199219 29.8007808,273.013672 27.0351564,271.408203 Z M18,302.785156 C16.2890628,302.785156 14.6308596,302.521484 13.0253904,301.99414 C11.4199224,301.466797 9.9726564,300.710937 8.6835936,299.726563 C7.3945308,298.742187 6.2636724,297.605469 5.291016,296.316406 C4.3183596,295.027344 3.5683596,293.580078 3.041016,291.97461 C2.5136724,290.36914 2.25,288.710937 2.25,287 C2.25,284.867187 2.666016,282.828126 3.4980468,280.882813 C4.3300776,278.9375 5.4492192,277.261719 6.8554692,275.855469 C8.2617192,274.449219 9.9375,273.330078 11.8828128,272.498047 C13.8281256,271.666016 15.8671872,271.25 18,271.25 C20.1328128,271.25 22.1718744,271.666016 24.1171872,272.498047 C26.0625,273.330078 27.7382808,274.449219 29.1445308,275.855469 C30.5507808,277.261719 31.6699224,278.9375 32.5019532,280.882813 C33.333984,282.828126 33.75,284.867187 33.75,287 C33.75,289.132813 33.333984,291.171874 32.5019532,293.117187 C31.6699224,295.0625 30.5507808,296.74414 29.1445308,298.16211 C27.7382808,299.580078 26.0625,300.705078 24.1171872,301.53711 C22.1718744,302.36914 20.1328128,302.785156 18,302.785156 Z M25.875,285.875 L13.21875,285.875 L17.2968744,281.796874 C17.5078128,281.585937 17.6132808,281.322266 17.6132808,281.00586 C17.6132808,280.689453 17.5019532,280.419922 17.2792968,280.197266 C17.0566404,279.97461 16.7929692,279.863281 16.4882808,279.863281 C16.1835936,279.863281 15.9140628,279.980469 15.6796872,280.214844 L9.0351564,287.035156 L15.6796872,293.855469 C15.75,293.902344 15.8144532,293.949219 15.8730468,293.996094 C15.9316404,294.042969 15.9960936,294.078126 16.0664064,294.101563 C16.1367192,294.125 16.2070308,294.142578 16.2773436,294.154297 C16.3476564,294.166016 16.4179692,294.171874 16.4882808,294.171874 C16.7929692,294.171874 17.0625,294.066406 17.2968744,293.855469 C17.3906256,293.738281 17.4667968,293.609374 17.5253904,293.46875 C17.583984,293.328126 17.6132808,293.1875 17.6132808,293.046874 C17.6132808,292.90625 17.583984,292.765626 17.5253904,292.625 C17.4667968,292.484374 17.3906256,292.355469 17.2968744,292.238281 L13.1484372,288.125 L25.875,288.125 C26.2031256,288.125 26.4726564,288.013672 26.6835936,287.791016 C26.8945308,287.56836 27,287.298828 27,286.982422 C27,286.666016 26.8945308,286.402344 26.6835936,286.191406 C26.4726564,285.980469 26.2031256,285.875 25.875,285.875 Z" id="Shape"></path>
                </g>
            </g>
        </g>
    </g>
</svg>