<?xml version="1.0" encoding="UTF-8"?>
<svg width="40px" height="40px" viewBox="0 0 40 40" version="1.1" xmlns="http://www.w3.org/2000/svg" xmlns:xlink="http://www.w3.org/1999/xlink">
    <!-- Generator: Sketch 46.2 (44496) - http://www.bohemiancoding.com/sketch -->
    <title>Shape</title>
    <desc>Created with Sketch.</desc>
    <defs>
        <linearGradient x1="95.7828444%" y1="4.21715561%" x2="1.53096782%" y2="98.4690322%" id="linearGradient-1">
            <stop stop-color="#9EFBD3" offset="0%"></stop>
            <stop stop-color="#57E9F2" offset="47.8728925%"></stop>
            <stop stop-color="#45D4FB" offset="100%"></stop>
        </linearGradient>
    </defs>
    <g id="Page-1" stroke="none" stroke-width="1" fill="none" fill-rule="evenodd">
        <g id="Medtech-2" transform="translate(-1020.000000, -412.000000)" fill-rule="nonzero" fill="url(#linearGradient-1)">
            <g id="Group-16" transform="translate(0.000000, 90.000000)">
                <path d="M1051.83594,344.517073 L1057.5,344.517073 C1058.17708,344.517073 1058.76302,344.764228 1059.25781,345.258537 C1059.7526,345.752846 1060,346.338212 1060,347.014634 L1060,359.502439 C1060,360.178862 1059.7526,360.764228 1059.25781,361.258536 C1058.76302,361.752845 1058.17708,362 1057.5,362 L1045,362 C1044.32292,362 1043.73698,361.752845 1043.24219,361.258536 C1042.7474,360.764228 1042.5,360.178862 1042.5,359.502439 L1042.5,347.014634 C1042.5,346.338212 1042.7474,345.752846 1043.24219,345.258537 C1043.73698,344.764228 1044.32292,344.517073 1045,344.517073 L1049.41406,344.517073 L1049.41406,343.034147 L1030.54687,343.034147 L1030.54687,344.517073 L1035,344.517073 C1035.67708,344.517073 1036.26302,344.764228 1036.75781,345.258537 C1037.2526,345.752846 1037.5,346.338212 1037.5,347.014634 L1037.5,359.502439 C1037.5,360.178862 1037.2526,360.764228 1036.75781,361.258536 C1036.26302,361.752845 1035.67708,362 1035,362 L1022.5,362 C1021.82292,362 1021.23698,361.752845 1020.74219,361.258536 C1020.2474,360.764228 1020,360.178862 1020,359.502439 L1020,347.014634 C1020,346.338212 1020.2474,345.752846 1020.74219,345.258537 C1021.23698,344.764228 1021.82292,344.517073 1022.5,344.517073 L1028.125,344.517073 L1028.125,342.175611 C1028.125,341.785366 1028.33333,341.473171 1028.75,341.239025 C1029.16667,341.004878 1029.64844,340.887805 1030.19531,340.887805 L1038.78906,340.887805 L1038.78906,339.482927 L1033.39844,339.482927 C1032.72135,339.482927 1032.13542,339.235772 1031.64063,338.741464 C1031.14583,338.247155 1030.89844,337.661789 1030.89844,336.985366 L1030.89844,324.497561 C1030.89844,323.821139 1031.14583,323.235773 1031.64063,322.741464 C1032.13542,322.247155 1032.72135,322 1033.39844,322 L1045.89844,322 C1046.57552,322 1047.16146,322.247155 1047.65625,322.741464 C1048.15104,323.235773 1048.39844,323.821139 1048.39844,324.497561 L1048.39844,336.985366 C1048.39844,337.661789 1048.15104,338.247155 1047.65625,338.741464 C1047.16146,339.235772 1046.57552,339.482927 1045.89844,339.482927 L1041.28906,339.482927 L1041.28906,340.92683 C1042.35677,340.92683 1043.76302,340.920326 1045.50781,340.907317 C1047.2526,340.89431 1048.67187,340.887805 1049.76563,340.887805 C1050.3125,340.887805 1050.79427,340.998375 1051.21094,341.219512 C1051.6276,341.440651 1051.83594,341.75935 1051.83594,342.175611 L1051.83594,344.517073 Z M1057.5,347.014634 L1045,347.014634 L1045,359.502439 L1057.5,359.502439 L1057.5,347.014634 Z M1045.89844,324.497561 L1033.39844,324.497561 L1033.39844,336.985366 L1045.89844,336.985366 L1045.89844,324.497561 Z M1035,347.014634 L1022.5,347.014634 L1022.5,359.502439 L1035,359.502439 L1035,347.014634 Z" id="Shape"></path>
            </g>
        </g>
    </g>
</svg>