<svg xmlns="http://www.w3.org/2000/svg" xmlns:xlink="http://www.w3.org/1999/xlink" width="1228" height="957" viewBox="0 0 1228 957">
  <defs>
    <clipPath id="clip-Artboard_1">
      <rect width="1228" height="957"/>
    </clipPath>
  </defs>
  <g id="Artboard_1" data-name="Artboard – 1" clip-path="url(#clip-Artboard_1)">
    <rect width="1228" height="957" fill="#fff"/>
    <g id="Group_1" data-name="Group 1" transform="translate(-29 -14)">
      <path id="Path_1" data-name="Path 1" d="M602.16,404H73a8,8,0,0,0-8,8V639a8,8,0,0,0,8,8H854" transform="translate(18 -49.61)" fill="none" stroke="#00bae6" stroke-width="3"/>
      <path id="Path_2" data-name="Path 2" d="M598,403.6l579.99.4a8,8,0,0,0,8.01-8V169a8,8,0,0,0-8-8H65" transform="translate(18 -49.61)" fill="none" stroke="#00bae6" stroke-linejoin="bevel" stroke-width="3"/>
      <path id="Path_3" data-name="Path 3" d="M852.5,647H1178a8,8,0,0,1,8,8V882a8,8,0,0,1-8,8H646" transform="translate(18 -49.61)" fill="none" stroke="#00bae6" stroke-width="3"/>
      <path id="Path_4" data-name="Path 4" d="M196.5,161v54.5" transform="translate(18 -49.61)" fill="none" stroke="#e2e2e2" stroke-linecap="round" stroke-width="3" stroke-dasharray="2 6"/>
      <circle id="Ellipse_1" data-name="Ellipse 1" cx="14.5" cy="14.5" r="14.5" transform="translate(200 96.39)" fill="#79efe2" opacity="0.3"/>
      <circle id="Ellipse_2" data-name="Ellipse 2" cx="7.5" cy="7.5" r="7.5" transform="translate(207 103.39)" fill="#79efe2"/>
      <path id="Path_7" data-name="Path 7" d="M605,161v54.5" transform="translate(18 -49.61)" fill="none" stroke="#e2e2e2" stroke-linecap="round" stroke-width="3" stroke-dasharray="2 6"/>
      <circle id="Ellipse_3" data-name="Ellipse 3" cx="14.5" cy="14.5" r="14.5" transform="translate(608 96.39)" fill="#79efe2" opacity="0.3"/>
      <circle id="Ellipse_4" data-name="Ellipse 4" cx="7.5" cy="7.5" r="7.5" transform="translate(615 103.39)" fill="#79efe2"/>
      <path id="Path_10" data-name="Path 10" d="M1015,161v54.5" transform="translate(18 -49.61)" fill="none" stroke="#e2e2e2" stroke-linecap="round" stroke-width="3" stroke-dasharray="2 6"/>
      <circle id="Ellipse_5" data-name="Ellipse 5" cx="14.5" cy="14.5" r="14.5" transform="translate(1018 96.39)" fill="#79efe2" opacity="0.3"/>
      <circle id="Ellipse_6" data-name="Ellipse 6" cx="7.5" cy="7.5" r="7.5" transform="translate(1025 103.39)" fill="#79efe2"/>
      <path id="Path_13" data-name="Path 13" d="M976,404v54.5" transform="translate(18 -49.61)" fill="none" stroke="#e2e2e2" stroke-linecap="round" stroke-width="3" stroke-dasharray="2 6"/>
      <circle id="Ellipse_7" data-name="Ellipse 7" cx="14.5" cy="14.5" r="14.5" transform="translate(979 339.39)" fill="#79efe2" opacity="0.3"/>
      <circle id="Ellipse_8" data-name="Ellipse 8" cx="7.5" cy="7.5" r="7.5" transform="translate(986 346.39)" fill="#79efe2"/>
      <path id="Path_16" data-name="Path 16" d="M601,404v54.5" transform="translate(18 -49.61)" fill="none" stroke="#e2e2e2" stroke-linecap="round" stroke-width="3" stroke-dasharray="2 6"/>
      <circle id="Ellipse_9" data-name="Ellipse 9" cx="14.5" cy="14.5" r="14.5" transform="translate(604 339.39)" fill="#79efe2" opacity="0.3"/>
      <circle id="Ellipse_10" data-name="Ellipse 10" cx="7.5" cy="7.5" r="7.5" transform="translate(611 346.39)" fill="#79efe2"/>
      <path id="Path_19" data-name="Path 19" d="M226,404v54.5" transform="translate(18 -49.61)" fill="none" stroke="#e2e2e2" stroke-linecap="round" stroke-width="3" stroke-dasharray="2 6"/>
      <circle id="Ellipse_11" data-name="Ellipse 11" cx="14.5" cy="14.5" r="14.5" transform="translate(229 339.39)" fill="#79efe2" opacity="0.3"/>
      <circle id="Ellipse_12" data-name="Ellipse 12" cx="7.5" cy="7.5" r="7.5" transform="translate(236 346.39)" fill="#79efe2"/>
      <path id="Path_22" data-name="Path 22" d="M238,647v54.5" transform="translate(18 -49.61)" fill="none" stroke="#e2e2e2" stroke-linecap="round" stroke-width="3" stroke-dasharray="2 6"/>
      <circle id="Ellipse_13" data-name="Ellipse 13" cx="14.5" cy="14.5" r="14.5" transform="translate(241 582.39)" fill="#79efe2" opacity="0.3"/>
      <circle id="Ellipse_14" data-name="Ellipse 14" cx="7.5" cy="7.5" r="7.5" transform="translate(248 589.39)" fill="#79efe2"/>
      <path id="Path_25" data-name="Path 25" d="M632,647v54.5" transform="translate(18 -49.61)" fill="none" stroke="#e2e2e2" stroke-linecap="round" stroke-width="3" stroke-dasharray="2 6"/>
      <circle id="Ellipse_15" data-name="Ellipse 15" cx="14.5" cy="14.5" r="14.5" transform="translate(635 582.39)" fill="#79efe2" opacity="0.3"/>
      <circle id="Ellipse_16" data-name="Ellipse 16" cx="7.5" cy="7.5" r="7.5" transform="translate(642 589.39)" fill="#79efe2"/>
      <path id="Path_28" data-name="Path 28" d="M1026,647v54.5" transform="translate(18 -49.61)" fill="none" stroke="#e2e2e2" stroke-linecap="round" stroke-width="3" stroke-dasharray="2 6"/>
      <circle id="Ellipse_17" data-name="Ellipse 17" cx="14.5" cy="14.5" r="14.5" transform="translate(1029 582.39)" fill="#79efe2" opacity="0.3"/>
      <circle id="Ellipse_18" data-name="Ellipse 18" cx="7.5" cy="7.5" r="7.5" transform="translate(1036 589.39)" fill="#79efe2"/>
      <path id="Path_31" data-name="Path 31" d="M976,890v54.5" transform="translate(18 -49.61)" fill="none" stroke="#e2e2e2" stroke-linecap="round" stroke-width="3" stroke-dasharray="2 6"/>
      <circle id="Ellipse_19" data-name="Ellipse 19" cx="14.5" cy="14.5" r="14.5" transform="translate(979 825.39)" fill="#79efe2" opacity="0.3"/>
      <circle id="Ellipse_20" data-name="Ellipse 20" cx="7.5" cy="7.5" r="7.5" transform="translate(986 832.39)" fill="#79efe2"/>
      <text id="_2019年第4季度" data-name="2019年第4季度" transform="translate(562 80)" fill="#252831" font-size="18" font-family="HelveticaNeue-Bold, Helvetica Neue" font-weight="700"><tspan x="0" y="0">2019</tspan><tspan y="0" font-family="PingFangSC-Semibold, PingFang SC" font-weight="600">年第</tspan><tspan y="0">4</tspan><tspan y="0" font-family="PingFangSC-Semibold, PingFang SC" font-weight="600">季度</tspan></text>
      <text id="_2019年第3季度" data-name="2019年第3季度" transform="translate(154 80)" fill="#252831" font-size="18" font-family="HelveticaNeue-Bold, Helvetica Neue" font-weight="700"><tspan x="0" y="0">2019</tspan><tspan y="0" font-family="PingFangSC-Semibold, PingFang SC" font-weight="600">年第</tspan><tspan y="0">3</tspan><tspan y="0" font-family="PingFangSC-Semibold, PingFang SC" font-weight="600">季度</tspan></text>
      <text id="_2020年第1季度" data-name="2020年第1季度" transform="translate(972 80)" fill="#252831" font-size="18" font-family="HelveticaNeue-Bold, Helvetica Neue" font-weight="700"><tspan x="0" y="0">2020</tspan><tspan y="0" font-family="PingFangSC-Semibold, PingFang SC" font-weight="600">年第</tspan><tspan y="0">1</tspan><tspan y="0" font-family="PingFangSC-Semibold, PingFang SC" font-weight="600">季度</tspan></text>
      <text id="_2020年第2季度" data-name="2020年第2季度" transform="translate(933 323)" fill="#252831" font-size="18" font-family="HelveticaNeue-Bold, Helvetica Neue" font-weight="700"><tspan x="0" y="0">2020</tspan><tspan y="0" font-family="PingFangSC-Semibold, PingFang SC" font-weight="600">年第</tspan><tspan y="0">2</tspan><tspan y="0" font-family="PingFangSC-Semibold, PingFang SC" font-weight="600">季度</tspan></text>
      <text id="_2020年第3季度" data-name="2020年第3季度" transform="translate(558 323)" fill="#252831" font-size="18" font-family="HelveticaNeue-Bold, Helvetica Neue" font-weight="700"><tspan x="0" y="0">2020</tspan><tspan y="0" font-family="PingFangSC-Semibold, PingFang SC" font-weight="600">年第</tspan><tspan y="0">3</tspan><tspan y="0" font-family="PingFangSC-Semibold, PingFang SC" font-weight="600">季度</tspan></text>
      <text id="_2020年第4季度" data-name="2020年第4季度" transform="translate(183 323)" fill="#252831" font-size="18" font-family="HelveticaNeue-Bold, Helvetica Neue" font-weight="700"><tspan x="0" y="0">2020</tspan><tspan y="0" font-family="PingFangSC-Semibold, PingFang SC" font-weight="600">年第</tspan><tspan y="0">4</tspan><tspan y="0" font-family="PingFangSC-Semibold, PingFang SC" font-weight="600">季度</tspan></text>
      <text id="_2021年第1季度" data-name="2021年第1季度" transform="translate(195 566)" fill="#252831" font-size="18" font-family="HelveticaNeue-Bold, Helvetica Neue" font-weight="700"><tspan x="0" y="0">2021</tspan><tspan y="0" font-family="PingFangSC-Semibold, PingFang SC" font-weight="600">年第</tspan><tspan y="0">1</tspan><tspan y="0" font-family="PingFangSC-Semibold, PingFang SC" font-weight="600">季度</tspan></text>
      <text id="_2021年第2季度" data-name="2021年第2季度" transform="translate(589 566)" fill="#252831" font-size="18" font-family="HelveticaNeue-Bold, Helvetica Neue" font-weight="700"><tspan x="0" y="0">2021</tspan><tspan y="0" font-family="PingFangSC-Semibold, PingFang SC" font-weight="600">年第</tspan><tspan y="0">2</tspan><tspan y="0" font-family="PingFangSC-Semibold, PingFang SC" font-weight="600">季度</tspan></text>
      <text id="_2021年第3季度" data-name="2021年第3季度" transform="translate(983 566)" fill="#252831" font-size="18" font-family="HelveticaNeue-Bold, Helvetica Neue" font-weight="700"><tspan x="0" y="0">2021</tspan><tspan y="0" font-family="PingFangSC-Semibold, PingFang SC" font-weight="600">年第</tspan><tspan y="0">3</tspan><tspan y="0" font-family="PingFangSC-Semibold, PingFang SC" font-weight="600">季度</tspan></text>
      <text id="_2021年第4季度" data-name="2021年第4季度" transform="translate(933 809)" fill="#252831" font-size="18" font-family="HelveticaNeue-Bold, Helvetica Neue" font-weight="700"><tspan x="0" y="0">2021</tspan><tspan y="0" font-family="PingFangSC-Semibold, PingFang SC" font-weight="600">年第</tspan><tspan y="0">4</tspan><tspan y="0" font-family="PingFangSC-Semibold, PingFang SC" font-weight="600">季度</tspan></text>
      <text id="技术架构开发_后端_前端原型_医疗设备研究用的物联网" data-name="技术架构开发；
后端/前端原型
医疗设备研究用的物联网" transform="translate(215 191)" fill="#252831" font-size="14" font-family="PingFangSC-Regular, PingFang SC"><tspan x="-49" y="0">技术架构开发；</tspan><tspan y="0" font-family="HelveticaNeue, Helvetica Neue"></tspan><tspan x="-44.331" y="20">后端</tspan><tspan y="20" font-family="HelveticaNeue, Helvetica Neue">/</tspan><tspan y="20">前端原型</tspan><tspan y="20" font-family="HelveticaNeue, Helvetica Neue"></tspan><tspan x="-77" y="40">医疗设备研究用的物联网</tspan></text>
      <text id="面向设备制造商与诊所的合作伙伴计划_智能合约开发_后端_前端开发" data-name="面向设备制造商与诊所的合作伙伴计划
智能合约开发
后端/前端开发" transform="translate(623 191)" fill="#252831" font-size="14" font-family="PingFangSC-Regular, PingFang SC"><tspan x="-119" y="0">面向设备制造商与诊所的合作伙伴计划</tspan><tspan y="0" font-family="HelveticaNeue, Helvetica Neue"></tspan><tspan x="-42" y="20">智能合约开发</tspan><tspan y="20" font-family="HelveticaNeue, Helvetica Neue"></tspan><tspan x="-44.331" y="40">后端</tspan><tspan y="40" font-family="HelveticaNeue, Helvetica Neue">/</tspan><tspan y="40">前端开发</tspan></text>
      <text id="进入亚洲市场_医疗设备B2B平台_测试版" data-name="进入亚洲市场
医疗设备B2B平台（测试版" transform="translate(1033 191)" fill="#252831" font-size="14" font-family="PingFangSC-Regular, PingFang SC"><tspan x="-42" y="0">进入亚洲市场</tspan><tspan y="0" font-family="HelveticaNeue, Helvetica Neue"></tspan><tspan x="-83.482" y="20">医疗设备</tspan><tspan y="20" font-family="HelveticaNeue, Helvetica Neue">B2B</tspan><tspan y="20">平台（测试版</tspan></text>
      <text id="移动应用开发_MDaaS框架_测试版_MDaaS业务模型试运行" data-name="移动应用开发
MDaaS框架（测试版）
MDaaS业务模型试运行" transform="translate(994 434)" fill="#252831" font-size="14" font-family="PingFangSC-Regular, PingFang SC"><tspan x="-42" y="0">移动应用开发</tspan><tspan y="0" font-family="HelveticaNeue, Helvetica Neue"></tspan><tspan font-family="HelveticaNeue, Helvetica Neue"><tspan x="-72.079" y="20">MDaaS</tspan><tspan y="20" font-family="PingFangSC-Regular, PingFang SC">框架（测试版）</tspan><tspan y="20"></tspan><tspan x="-72.079" y="40">MDaaS</tspan><tspan y="40" font-family="PingFangSC-Regular, PingFang SC">业务模型试运行</tspan></tspan></text>
      <text id="MDignum交易平台" transform="translate(619 434)" fill="#252831" font-size="14" font-family="HelveticaNeue-Bold, Helvetica Neue" font-weight="700"><tspan x="-60.263" y="0">MDignum</tspan><tspan y="0" font-family="PingFangSC-Semibold, PingFang SC" font-weight="600">交易平台</tspan></text>
      <text id="维护_维修_运行_MRO_的研发预测分析" data-name="维护、维修、运行（MRO）的研发预测分析" transform="translate(244 434)" fill="#252831" font-size="14" font-family="PingFangSC-Regular, PingFang SC"><tspan x="-135.212" y="0">维护、维修、运行（</tspan><tspan y="0" font-family="HelveticaNeue, Helvetica Neue">MRO</tspan><tspan y="0">）的研发预测分析</tspan></text>
      <text id="MdaaS框架1.0_开发标准SLA_以便在MDaaS基础上提供医疗设备" data-name="MdaaS框架1.0
开发标准SLA，以便在MDaaS基础上提供医疗设备" transform="translate(256 677)" fill="#252831" font-size="14" font-family="HelveticaNeue, Helvetica Neue"><tspan x="-46.032" y="0">MdaaS</tspan><tspan y="0" font-family="PingFangSC-Regular, PingFang SC">框架</tspan><tspan y="0">1.0</tspan><tspan font-family="PingFangSC-Regular, PingFang SC"><tspan x="-155.043" y="20">开发标准</tspan><tspan y="20" font-family="HelveticaNeue, Helvetica Neue">SLA</tspan><tspan y="20">，以便在</tspan><tspan y="20" font-family="HelveticaNeue, Helvetica Neue">MDaaS</tspan><tspan y="20">基础上提供医疗设备</tspan></tspan></text>
      <text id="MRO预测分析_Beta_" data-name="MRO预测分析（Beta）" transform="translate(650 677)" fill="#252831" font-size="14" font-family="HelveticaNeue, Helvetica Neue"><tspan x="-72.73" y="0">MRO</tspan><tspan y="0" font-family="PingFangSC-Regular, PingFang SC">预测分析（</tspan><tspan y="0">Beta</tspan><tspan y="0" font-family="PingFangSC-Regular, PingFang SC">）</tspan></text>
      <text id="MDignum平台2.0_交易平台与MDaaS_" data-name="MDignum平台2.0
（交易平台与MDaaS)" transform="translate(1044 677)" fill="#252831" font-size="14" font-family="HelveticaNeue-Bold, Helvetica Neue" font-weight="700"><tspan x="-55.993" y="0">MDignum</tspan><tspan y="0" font-family="PingFangSC-Semibold, PingFang SC" font-weight="600">平台</tspan><tspan y="0">2.0</tspan><tspan font-family="PingFangSC-Semibold, PingFang SC" font-weight="600"><tspan x="-68.187" y="20">（交易平台与</tspan><tspan y="20" font-family="HelveticaNeue-Bold, Helvetica Neue" font-weight="700">MDaaS)</tspan></tspan></text>
      <text id="数字健康B2C解决方案研发" transform="translate(994 920)" fill="#252831" font-size="14" font-family="PingFangSC-Regular, PingFang SC"><tspan x="-83.741" y="0">数字健康</tspan><tspan y="0" font-family="HelveticaNeue, Helvetica Neue">B2C</tspan><tspan y="0">解决方案研发</tspan></text>
    </g>
  </g>
</svg>
