<?xml version="1.0" encoding="UTF-8"?>
<svg width="18px" height="32px" viewBox="0 0 18 32" version="1.1" xmlns="http://www.w3.org/2000/svg" xmlns:xlink="http://www.w3.org/1999/xlink">
    <!-- Generator: Sketch 46.2 (44496) - http://www.bohemiancoding.com/sketch -->
    <title>Group 10</title>
    <desc>Created with Sketch.</desc>
    <defs></defs>
    <g id="Page-1" stroke="none" stroke-width="1" fill="none" fill-rule="evenodd">
        <g id="Medtech-1" transform="translate(-712.000000, -907.000000)">
            <g id="Group-10" transform="translate(712.000000, 907.000000)">
                <path d="M9.06250027,0 C6.58333333,0 4.45312533,0.874999467 2.6718752,2.62500053 C0.890625067,4.37499947 0,6.47916693 0,8.93749973 L0,23.0625003 C0,25.5208331 0.890625067,27.6250005 2.6718752,29.3749995 C4.45312533,31.1250005 6.58333333,32 9.06250027,32 C11.5208331,32 13.6250005,31.1250005 15.3749995,29.3749995 C17.1250005,27.6250005 18,25.5208331 18,23.0625003 L18,8.93749973 C18,6.47916693 17.1250005,4.37499947 15.3749995,2.62500053 C13.6250005,0.874999467 11.5208331,0 9.06250027,0 Z M16,23.0625003 C16,24.9791669 15.3229163,26.6145835 13.9687499,27.9687499 C12.6145835,29.3229163 10.9791669,30 9.06250027,30 C7.12500053,30 5.46354133,29.3177088 4.0781248,27.9531253 C2.69270827,26.5885419 2,24.9583339 2,23.0625003 L2,8.93749973 C2,7.04166613 2.69270827,5.41145813 4.0781248,4.04687467 C5.46354133,2.6822912 7.12500053,2 9.06250027,2 C10.9791669,2 12.6145835,2.67708373 13.9687499,4.03125013 C15.3229163,5.38541653 16,7.02083307 16,8.93749973 L16,23.0625003 Z M9.71874987,6.29687467 C9.53125013,6.09895787 9.29687467,6 9.01562453,6 C8.73437547,6 8.49479147,6.09895787 8.29687467,6.29687467 C8.09895787,6.49479147 8,6.72916693 8,7 L8,12 C8,12.2708331 8.09895787,12.5052085 8.29687467,12.7031253 C8.49479147,12.9010421 8.73437547,13 9.01562453,13 C9.29687467,13 9.53125013,12.9010421 9.71874987,12.7031253 C9.9062496,12.5052085 10,12.2708331 10,12 L10,7 C10,6.72916693 9.9062496,6.49479147 9.71874987,6.29687467 Z" id="Shape" fill="#FFFFFF" fill-rule="nonzero"></path>
                <rect id="Rectangle-2" fill="#45D4FB" x="8" y="6" width="2" height="7" rx="1"></rect>
            </g>
        </g>
    </g>
</svg>