<?xml version="1.0" encoding="UTF-8"?>
<svg width="40px" height="36px" viewBox="0 0 40 36" version="1.1" xmlns="http://www.w3.org/2000/svg" xmlns:xlink="http://www.w3.org/1999/xlink">
    <!-- Generator: Sketch 46.2 (44496) - http://www.bohemiancoding.com/sketch -->
    <title>Shape</title>
    <desc>Created with Sketch.</desc>
    <defs>
        <linearGradient x1="95.7828444%" y1="4.21715561%" x2="1.53096782%" y2="98.4690322%" id="linearGradient-1">
            <stop stop-color="#9EFBD3" offset="0%"></stop>
            <stop stop-color="#57E9F2" offset="47.8728925%"></stop>
            <stop stop-color="#45D4FB" offset="100%"></stop>
        </linearGradient>
    </defs>
    <g id="Page-1" stroke="none" stroke-width="1" fill="none" fill-rule="evenodd">
        <g id="Medtech-2" transform="translate(-700.000000, -418.000000)" fill-rule="nonzero" fill="url(#linearGradient-1)">
            <g id="Group-16" transform="translate(0.000000, 90.000000)">
                <path d="M711.22807,330.493506 C713.125406,330.493506 715.464588,331.870131 718.245613,334.623377 L720.038987,336.376623 L721.793372,334.584416 C722.183236,334.168831 722.592592,333.779221 723.021443,333.415585 C723.450292,333.051948 723.872644,332.714286 724.288499,332.402597 C724.704353,332.090909 725.11371,331.818182 725.516569,331.584416 C725.919428,331.350649 726.302794,331.149351 726.666666,330.98052 C727.030539,330.811689 727.387914,330.688312 727.73879,330.61039 C728.089668,330.532468 728.408057,330.493506 728.693957,330.493506 C731.007147,330.493506 733.047433,331.376624 734.814814,333.142858 C736.608186,334.935065 737.504873,337.09091 737.504873,339.61039 C737.504873,342.12987 736.608186,344.298702 734.814814,346.116883 C734.68486,346.220779 730.019493,351.246753 720.818713,361.194805 C720.688759,361.324675 720.545809,361.409091 720.389863,361.448051 C720.233918,361.487012 720.103964,361.506494 720,361.506494 C719.688109,361.506494 719.415205,361.402597 719.181286,361.194805 C710.760233,351.844156 706.094867,346.714286 705.185185,345.805195 C704.977257,345.597402 704.775828,345.37013 704.580897,345.123377 C704.385964,344.876623 704.204029,344.62987 704.035087,344.383117 C703.866146,344.136363 703.710201,343.883117 703.567251,343.623377 C703.424301,343.363637 703.294347,343.097402 703.177387,342.824675 C703.060429,342.551948 702.962962,342.272727 702.884991,341.987013 C702.807018,341.701299 702.735542,341.415585 702.670565,341.12987 C702.605588,340.844155 702.560104,340.545455 702.534113,340.233766 C702.508121,339.922078 702.495127,339.623377 702.495127,339.337663 C702.495127,336.792207 703.391813,334.623377 705.185185,332.831169 C706.016894,332.025974 706.926575,331.435065 707.914229,331.058442 C708.901884,330.681819 710.006497,330.493506 711.22807,330.493506 Z M711.22807,328 C709.694606,328 708.278102,328.246753 706.978558,328.74026 C705.679012,329.233767 704.496426,330.012987 703.430799,331.077922 C702.31319,332.194805 701.461989,333.48052 700.877193,334.935065 C700.292397,336.389611 700,337.85065 700,339.318181 C700,340.785714 700.292397,342.246753 700.877193,343.701299 C701.461989,345.155844 702.31319,346.441559 703.430799,347.558441 C703.664717,347.792208 704.307993,348.487013 705.360623,349.642857 C706.413255,350.798701 707.595842,352.103896 708.908382,353.558441 C710.220923,355.012987 711.520467,356.454546 712.807017,357.883116 C714.093567,359.311688 715.178687,360.506494 716.062377,361.467532 C716.946069,362.428571 717.387914,362.90909 717.387914,362.90909 C718.089668,363.636363 718.953866,364 719.980506,364 C721.007148,364 721.88434,363.636363 722.612085,362.90909 C731.812865,352.961038 736.465237,347.948052 736.569201,347.870131 C738.8564,345.584416 740,342.831169 740,339.61039 C740,336.389611 738.8564,333.649351 736.569201,331.38961 C735.425601,330.246753 734.210526,329.396104 732.923976,328.837663 C731.637427,328.279221 730.22742,328 728.693957,328 C727.316439,328 725.867445,328.454546 724.346978,329.363637 C722.82651,330.272728 721.377518,331.428571 720,332.831169 C716.725146,329.61039 713.80117,328 711.22807,328 Z" id="Shape"></path>
            </g>
        </g>
    </g>
</svg>