<?xml version="1.0" encoding="UTF-8"?>
<svg width="22px" height="22px" viewBox="0 0 22 22" version="1.1" xmlns="http://www.w3.org/2000/svg" xmlns:xlink="http://www.w3.org/1999/xlink">
    <!-- Generator: Sketch 46.2 (44496) - http://www.bohemiancoding.com/sketch -->
    <title>Shape</title>
    <desc>Created with Sketch.</desc>
    <defs></defs>
    <g id="Page-1" stroke="none" stroke-width="1" fill="none" fill-rule="evenodd">
        <g id="Medtech-2" transform="translate(-709.000000, -2088.000000)" fill-rule="nonzero" fill="#FFFFFF">
            <g id="Group-33" transform="translate(0.000000, 1726.000000)">
                <path d="M730.616268,362 C730.48711,362 730.329249,362.035877 730.142687,362.107632 L709.584957,370.825831 C709.340991,370.940639 709.172367,371.073386 709.079086,371.224071 C708.985805,371.374755 708.975042,371.536203 709.046797,371.708414 C709.118551,371.880626 709.26206,372.038486 709.477325,372.181996 L715.289458,375.798435 C715.519073,375.941944 715.76304,376.128506 716.021356,376.358121 C716.279674,376.587736 716.52364,376.831703 716.753255,377.090019 C716.98287,377.348337 717.162256,377.592303 717.291415,377.821918 L720.778695,383.526419 C720.879151,383.684279 720.986784,383.802674 721.101591,383.881605 C721.216399,383.960535 721.331207,384 721.446014,384 C721.733033,384 721.955472,383.806262 722.113333,383.418786 L730.917639,362.882583 C731.132902,362.365949 731.068323,362.071755 730.723901,362 C730.680848,362 730.64497,362 730.616268,362 Z M716.021356,374.571429 L711.30707,371.643836 L727.107462,364.927593 L716.925466,375.281801 C716.595394,374.98043 716.294024,374.74364 716.021356,374.571429 Z M721.338382,381.696673 L718.518421,377.111546 C718.475368,377.02544 718.417964,376.932159 718.34621,376.831703 C718.274455,376.731246 718.2027,376.634377 718.130945,376.541096 C718.059191,376.447815 717.980261,376.350946 717.894155,376.250489 L728.097677,365.874755 L721.338382,381.696673 Z" id="Shape"></path>
            </g>
        </g>
    </g>
</svg>