<?xml version="1.0" encoding="UTF-8"?>
<svg width="22px" height="22px" viewBox="0 0 22 22" version="1.1" xmlns="http://www.w3.org/2000/svg" xmlns:xlink="http://www.w3.org/1999/xlink">
    <!-- Generator: Sketch 46.2 (44496) - http://www.bohemiancoding.com/sketch -->
    <title>Shape</title>
    <desc>Created with Sketch.</desc>
    <defs></defs>
    <g id="Page-1" stroke="none" stroke-width="1" fill="none" fill-rule="evenodd">
        <g id="Medtech-1" transform="translate(-1229.000000, -940.000000)" fill-rule="nonzero" fill="#FFFFFF">
            <g id="Group-6" transform="translate(1214.000000, 928.000000)">
                <path d="M31.5214845,13.4716797 C29.8313799,12.4905597 27.9908856,12 26,12 C24.0091144,12 22.1686201,12.4905597 20.4785155,13.4716797 C18.7884117,14.4527998 17.4527998,15.7884117 16.4716797,17.4785155 C15.4905597,19.1686201 15,21.0091144 15,23 C15,24.9908856 15.4905597,26.8313799 16.4716797,28.5214845 C17.4527998,30.2115883 18.7884117,31.5472002 20.4785155,32.5283203 C22.1686201,33.5094403 24.0091144,34 26,34 C27.9908856,34 29.8313799,33.5094403 31.5214845,32.5283203 C33.2115883,31.5472002 34.5472002,30.2115883 35.5283203,28.5214845 C36.5094403,26.8313799 37,24.9908856 37,23 C37,21.0091144 36.5094403,19.1686201 35.5283203,17.4785155 C34.5472002,15.7884117 33.2115883,14.4527998 31.5214845,13.4716797 Z M28.75,13.7832034 C29.5234379,14.0123701 30.2539061,14.3346356 30.9414061,14.75 C31.6289061,15.1653644 32.2483725,15.6487631 32.7998047,16.2001953 C33.3512369,16.7516275 33.8346356,17.3710939 34.25,18.0585939 C34.6653644,18.7460939 34.9876299,19.4765621 35.2167966,20.25 L30.7480466,20.25 C30.2610678,19.4049477 29.5950523,18.7389322 28.75,18.2519534 L28.75,13.7832034 Z M30.125,23 C30.125,24.1458333 29.7203775,25.1197917 28.9111331,25.921875 C28.1018881,26.7239583 27.1315106,27.125 26,27.125 C25.2552083,27.125 24.5677083,26.9423831 23.9375,26.5771487 C23.3072917,26.2119142 22.8059894,25.7106119 22.4335939,25.0732419 C22.0611977,24.4358725 21.875,23.7447917 21.875,23 C21.875,21.8684894 22.2796225,20.8981119 23.0888669,20.0888669 C23.8981119,19.2796225 24.8684894,18.875 26,18.875 C26.7447917,18.875 27.4322917,19.0611977 28.0625,19.4335939 C28.6927083,19.8059894 29.1940106,20.3072917 29.5664061,20.9375 C29.9388023,21.5677083 30.125,22.2552083 30.125,23 Z M24.625,13.4824216 C25.0833333,13.4108072 25.5416667,13.375 26,13.375 C26.4583333,13.375 26.9166667,13.4108072 27.375,13.4824216 L27.375,17.6933595 C26.9166667,17.5644534 26.4619142,17.5 26.0107419,17.5 C25.5595703,17.5 25.0976561,17.5644534 24.625,17.6933595 L24.625,13.4824216 Z M23.25,13.7832034 L23.25,18.2519534 C22.8346356,18.4954428 22.4586585,18.785482 22.1220703,19.1220703 C21.785482,19.4586585 21.4954428,19.8346356 21.2519534,20.25 L16.7832034,20.25 C17.4277345,18.0872394 18.6809894,16.3684894 20.5429689,15.09375 C21.3880212,14.5065106 22.2903644,14.0696617 23.25,13.7832034 Z M16.375,23 C16.375,22.8854167 16.3785809,22.7708333 16.3857419,22.65625 C16.3929036,22.5416667 16.4000653,22.4270833 16.4072263,22.3125 C16.4143881,22.1979167 16.4251299,22.0833333 16.4394534,21.96875 C16.4537761,21.8541667 16.4680989,21.7395833 16.4824216,21.625 L20.6933595,21.625 C20.5644534,22.0833333 20.5,22.5416667 20.5,23 C20.5,23.4583333 20.5572917,23.9166667 20.671875,24.375 L16.4824216,24.375 C16.4108072,23.8880212 16.375,23.4296879 16.375,23 Z M23.25,32.2167966 C21.703125,31.7584633 20.3531903,30.9527998 19.2001953,29.7998047 C18.0472002,28.6468097 17.2415367,27.296875 16.7832034,25.75 L21.2519534,25.75 C21.7389322,26.5950523 22.4049477,27.2610678 23.25,27.7480466 L23.25,32.2167966 Z M27.375,32.5175784 C26.9166667,32.5891928 26.4583333,32.625 26,32.625 C25.5416667,32.625 25.0833333,32.5891928 24.625,32.5175784 L24.625,28.328125 C25.0976561,28.4427083 25.5595703,28.5 26.0107419,28.5 C26.4619142,28.5 26.9166667,28.4427083 27.375,28.328125 L27.375,32.5175784 Z M28.75,32.2167966 L28.75,27.7480466 C29.5950523,27.2610678 30.2610678,26.5950523 30.7480466,25.75 L35.2167966,25.75 C34.9016928,26.78125 34.4361977,27.730143 33.8203121,28.5966797 C33.2044273,29.4632165 32.4632165,30.2080081 31.5966797,30.8310547 C30.730143,31.4541013 29.78125,31.9160155 28.75,32.2167966 Z M31.328125,24.375 C31.3854167,24.1458333 31.4283856,23.9166667 31.4570311,23.6875 C31.4856773,23.4583333 31.5,23.2291667 31.5,23 C31.5,22.5416667 31.4355466,22.0833333 31.3066405,21.625 L35.5175784,21.625 C35.5891928,22.1119788 35.625,22.5703121 35.625,23 C35.625,23.4296879 35.5891928,23.8880212 35.5175784,24.375 L31.328125,24.375 Z" id="Shape"></path>
            </g>
        </g>
    </g>
</svg>