<?xml version="1.0" encoding="UTF-8"?>
<svg width="33px" height="41px" viewBox="0 0 33 41" version="1.1" xmlns="http://www.w3.org/2000/svg" xmlns:xlink="http://www.w3.org/1999/xlink">
    <!-- Generator: Sketch 46.2 (44496) - http://www.bohemiancoding.com/sketch -->
    <title></title>
    <desc>Created with Sketch.</desc>
    <defs>
        <linearGradient x1="95.7828444%" y1="4.21715561%" x2="1.53096782%" y2="98.4690322%" id="linearGradient-1">
            <stop stop-color="#9EFBD3" offset="0%"></stop>
            <stop stop-color="#57E9F2" offset="47.8728925%"></stop>
            <stop stop-color="#45D4FB" offset="100%"></stop>
        </linearGradient>
    </defs>
    <g id="Page-1" stroke="none" stroke-width="1" fill="none" fill-rule="evenodd">
        <path d="M18.1818182,36.7922078 C18.1818182,36.2997811 18.0018957,35.873649 17.6420455,35.5137987 C17.2821952,35.1539484 16.8560631,34.974026 16.3636364,34.974026 C15.8712097,34.974026 15.4450776,35.1539484 15.0852273,35.5137987 C14.725377,35.873649 14.5454545,36.2997811 14.5454545,36.7922078 C14.5454545,37.2846345 14.725377,37.7107666 15.0852273,38.0706169 C15.4450776,38.4304672 15.8712097,38.6103896 16.3636364,38.6103896 C16.8560631,38.6103896 17.2821952,38.4304672 17.6420455,38.0706169 C18.0018957,37.7107666 18.1818182,37.2846345 18.1818182,36.7922078 Z M29.0909091,32.2467532 L29.0909091,4.97402597 C29.0909091,4.72781262 29.0009479,4.51474657 28.8210227,4.33482143 C28.6410976,4.15489629 28.4280315,4.06493506 28.1818182,4.06493506 L4.54545455,4.06493506 C4.29924119,4.06493506 4.08617514,4.15489629 3.90625,4.33482143 C3.72632486,4.51474657 3.63636364,4.72781262 3.63636364,4.97402597 L3.63636364,32.2467532 C3.63636364,32.4929666 3.72632486,32.7060327 3.90625,32.8859578 C4.08617514,33.0658829 4.29924119,33.1558442 4.54545455,33.1558442 L28.1818182,33.1558442 C28.4280315,33.1558442 28.6410976,33.0658829 28.8210227,32.8859578 C29.0009479,32.7060327 29.0909091,32.4929666 29.0909091,32.2467532 Z M32.7272727,4.97402597 L32.7272727,35.8831169 C32.7272727,37.1331231 32.2822014,38.2031882 31.3920455,39.0933442 C30.5018895,39.9835001 29.4318244,40.4285714 28.1818182,40.4285714 L4.54545455,40.4285714 C3.2954483,40.4285714 2.22538324,39.9835001 1.33522727,39.0933442 C0.445071307,38.2031882 0,37.1331231 0,35.8831169 L0,4.97402597 C0,3.72401972 0.445071307,2.65395467 1.33522727,1.7637987 C2.22538324,0.873642735 3.2954483,0.428571429 4.54545455,0.428571429 L28.1818182,0.428571429 C29.4318244,0.428571429 30.5018895,0.873642735 31.3920455,1.7637987 C32.2822014,2.65395467 32.7272727,3.72401972 32.7272727,4.97402597 Z" id="" fill="url(#linearGradient-1)"></path>
    </g>
</svg>