<?xml version="1.0" encoding="UTF-8"?>
<svg width="9px" height="7px" viewBox="0 0 9 7" version="1.1" xmlns="http://www.w3.org/2000/svg" xmlns:xlink="http://www.w3.org/1999/xlink">
    <!-- Generator: Sketch 46.2 (44496) - http://www.bohemiancoding.com/sketch -->
    <title>Shape</title>
    <desc>Created with Sketch.</desc>
    <defs></defs>
    <g id="Page-1" stroke="none" stroke-width="1" fill="none" fill-rule="evenodd">
        <g id="Medtech-1-0-1" transform="translate(-425.000000, -656.000000)" fill-rule="nonzero" fill="#45D4FB">
            <path d="M433.091326,656.187376 L428.134924,661.601619 L425.904543,659.181345 C425.794401,659.061825 425.667737,659.002066 425.524553,659.002066 C425.381368,659.002066 425.254704,659.061825 425.144562,659.181345 C425.122533,659.205249 425.100505,659.238117 425.078476,659.279949 C425.056448,659.321781 425.039927,659.360624 425.028912,659.39648 C425.017898,659.432336 425.009637,659.47118 425.00413,659.513012 C424.998623,659.554844 424.998623,659.596676 425.00413,659.638508 C425.009637,659.68034 425.017898,659.722172 425.028912,659.764004 C425.039927,659.805835 425.056448,659.844679 425.078476,659.880536 C425.100505,659.916391 425.122533,659.952247 425.144562,659.988103 L427.771455,662.82072 C427.870583,662.94024 427.994493,663 428.143185,663 C428.291877,663 428.415787,662.94024 428.514915,662.82072 C428.536944,662.796817 428.558972,662.772912 428.581,662.749009 L433.851308,656.994134 C433.950436,656.886566 434,656.752107 434,656.590755 C434,656.429403 433.950436,656.294944 433.851308,656.187376 C433.653052,655.972241 433.438274,655.942361 433.206976,656.097736 C433.162919,656.12164 433.124369,656.15152 433.091326,656.187376 Z" id="Shape"></path>
        </g>
    </g>
</svg>