<?xml version="1.0" encoding="UTF-8"?>
<svg width="34px" height="40px" viewBox="0 0 34 40" version="1.1" xmlns="http://www.w3.org/2000/svg" xmlns:xlink="http://www.w3.org/1999/xlink">
    <!-- Generator: Sketch 46.2 (44496) - http://www.bohemiancoding.com/sketch -->
    <title></title>
    <desc>Created with Sketch.</desc>
    <defs>
        <linearGradient x1="95.7828444%" y1="4.21715561%" x2="1.53096782%" y2="98.4690322%" id="linearGradient-1">
            <stop stop-color="#9EFBD3" offset="0%"></stop>
            <stop stop-color="#57E9F2" offset="47.8728925%"></stop>
            <stop stop-color="#45D4FB" offset="100%"></stop>
        </linearGradient>
    </defs>
    <g id="Page-1" stroke="none" stroke-width="1" fill="none" fill-rule="evenodd">
        <path d="M33.3333333,33.0989583 C33.3333333,34.9913289 32.790804,36.6145766 31.7057292,37.96875 C30.6206543,39.3229234 29.3142437,40 27.7864583,40 L5.546875,40 C4.01908958,40 2.71267904,39.3229234 1.62760417,37.96875 C0.542529297,36.6145766 0,34.9913289 0,33.0989583 C0,31.6232565 0.0737839844,30.2300413 0.221354167,28.9192708 C0.368924349,27.6085004 0.642359115,26.2890691 1.04166667,24.9609375 C1.44097422,23.6328059 1.94878164,22.4956645 2.56510417,21.5494792 C3.18142669,20.6032939 3.99739076,19.8307322 5.01302083,19.2317708 C6.02865091,18.6328095 7.19617396,18.3333333 8.515625,18.3333333 C10.7899419,20.5555667 13.5069286,21.6666667 16.6666667,21.6666667 C19.8264047,21.6666667 22.5433914,20.5555667 24.8177083,18.3333333 C26.1371594,18.3333333 27.3046824,18.6328095 28.3203125,19.2317708 C29.3359426,19.8307322 30.1519066,20.6032939 30.7682292,21.5494792 C31.3845517,22.4956645 31.8923591,23.6328059 32.2916667,24.9609375 C32.6909742,26.2890691 32.964409,27.6085004 33.1119792,28.9192708 C33.2595493,30.2300413 33.3333333,31.6232565 33.3333333,33.0989583 Z M26.6666667,10 C26.6666667,12.7604305 25.6901139,15.1171777 23.7369792,17.0703125 C21.7838444,19.0234473 19.4270971,20 16.6666667,20 C13.9062362,20 11.5494889,19.0234473 9.59635417,17.0703125 C7.6432194,15.1171777 6.66666667,12.7604305 6.66666667,10 C6.66666667,7.23956953 7.6432194,4.88282227 9.59635417,2.9296875 C11.5494889,0.976552734 13.9062362,0 16.6666667,0 C19.4270971,0 21.7838444,0.976552734 23.7369792,2.9296875 C25.6901139,4.88282227 26.6666667,7.23956953 26.6666667,10 Z" id="" fill="url(#linearGradient-1)"></path>
    </g>
</svg>