<?xml version="1.0" encoding="UTF-8"?>
<svg width="43px" height="40px" viewBox="0 0 43 40" version="1.1" xmlns="http://www.w3.org/2000/svg" xmlns:xlink="http://www.w3.org/1999/xlink">
    <!-- Generator: Sketch 46.2 (44496) - http://www.bohemiancoding.com/sketch -->
    <title></title>
    <desc>Created with Sketch.</desc>
    <defs>
        <linearGradient x1="95.7828444%" y1="4.21715561%" x2="1.53096782%" y2="98.4690322%" id="linearGradient-1">
            <stop stop-color="#9EFBD3" offset="0%"></stop>
            <stop stop-color="#57E9F2" offset="47.8728925%"></stop>
            <stop stop-color="#45D4FB" offset="100%"></stop>
        </linearGradient>
    </defs>
    <g id="Page-1" stroke="none" stroke-width="1" fill="none" fill-rule="evenodd">
        <path d="M13.2366071,20 C10.8258808,20.0744051 8.85417433,21.0267766 7.32142857,22.8571429 L4.33035714,22.8571429 C3.11011295,22.8571429 2.0833375,22.5558066 1.25,21.953125 C0.4166625,21.3504434 0,20.4687558 0,19.3080357 C0,14.0550333 0.922609821,11.4285714 2.76785714,11.4285714 C2.8571433,11.4285714 3.18080078,11.5848199 3.73883929,11.8973214 C4.29687779,12.209823 5.02231696,12.5260401 5.91517857,12.8459821 C6.80804018,13.1659242 7.69344799,13.3258929 8.57142857,13.3258929 C9.56845737,13.3258929 10.5580308,13.1547636 11.5401786,12.8125 C11.4657734,13.363098 11.4285714,13.8541645 11.4285714,14.2857143 C11.4285714,16.354177 12.031244,18.2589199 13.2366071,20 Z M37.1428571,34.21875 C37.1428571,36.0044732 36.5997078,37.4144294 35.5133929,38.4486607 C34.4270779,39.4828921 32.98364,40 31.1830357,40 L11.6741071,40 C9.8735029,40 8.43006496,39.4828921 7.34375,38.4486607 C6.25743504,37.4144294 5.71428571,36.0044732 5.71428571,34.21875 C5.71428571,33.4300556 5.74032712,32.659974 5.79241071,31.9084821 C5.84449431,31.1569903 5.94865993,30.3459865 6.10491071,29.4754464 C6.2611615,28.6049064 6.45833214,27.7976228 6.69642857,27.0535714 C6.934525,26.3095201 7.25446228,25.5840809 7.65625,24.8772321 C8.05803772,24.1703834 8.51934263,23.5677108 9.04017857,23.0691964 C9.56101451,22.570682 10.1971689,22.1726205 10.9486607,21.875 C11.7001526,21.5773795 12.5297574,21.4285714 13.4375,21.4285714 C13.5863103,21.4285714 13.9062475,21.5885401 14.3973214,21.9084821 C14.8883953,22.2284242 15.4315446,22.5855635 16.0267857,22.9799107 C16.6220268,23.3742579 17.4181498,23.7313972 18.4151786,24.0513393 C19.4122074,24.3712814 20.4166616,24.53125 21.4285714,24.53125 C22.4404812,24.53125 23.4449355,24.3712814 24.4419643,24.0513393 C25.4389931,23.7313972 26.2351161,23.3742579 26.8303571,22.9799107 C27.4255982,22.5855635 27.9687475,22.2284242 28.4598214,21.9084821 C28.9508953,21.5885401 29.2708326,21.4285714 29.4196429,21.4285714 C30.3273855,21.4285714 31.1569903,21.5773795 31.9084821,21.875 C32.659974,22.1726205 33.2961283,22.570682 33.8169643,23.0691964 C34.3378002,23.5677108 34.7991051,24.1703834 35.2008929,24.8772321 C35.6026806,25.5840809 35.9226179,26.3095201 36.1607143,27.0535714 C36.3988107,27.7976228 36.5959814,28.6049064 36.7522321,29.4754464 C36.9084829,30.3459865 37.0126485,31.1569903 37.0647321,31.9084821 C37.1168157,32.659974 37.1428571,33.4300556 37.1428571,34.21875 Z M14.2857143,5.71428571 C14.2857143,7.29167455 13.7276842,8.63838728 12.6116071,9.75446429 C11.4955301,10.8705413 10.1488174,11.4285714 8.57142857,11.4285714 C6.99403973,11.4285714 5.64732701,10.8705413 4.53125,9.75446429 C3.41517299,8.63838728 2.85714286,7.29167455 2.85714286,5.71428571 C2.85714286,4.13689688 3.41517299,2.79018415 4.53125,1.67410714 C5.64732701,0.558030134 6.99403973,0 8.57142857,0 C10.1488174,0 11.4955301,0.558030134 12.6116071,1.67410714 C13.7276842,2.79018415 14.2857143,4.13689688 14.2857143,5.71428571 Z M30,14.2857143 C30,16.6517975 29.1629548,18.6718666 27.4888393,20.3459821 C25.8147238,22.0200977 23.7946547,22.8571429 21.4285714,22.8571429 C19.0624882,22.8571429 17.0424191,22.0200977 15.3683036,20.3459821 C13.6941881,18.6718666 12.8571429,16.6517975 12.8571429,14.2857143 C12.8571429,11.919631 13.6941881,9.89956194 15.3683036,8.22544643 C17.0424191,6.55133092 19.0624882,5.71428571 21.4285714,5.71428571 C23.7946547,5.71428571 25.8147238,6.55133092 27.4888393,8.22544643 C29.1629548,9.89956194 30,11.919631 30,14.2857143 Z M42.8571429,19.3080357 C42.8571429,20.4687558 42.4404804,21.3504434 41.6071429,21.953125 C40.7738054,22.5558066 39.7470299,22.8571429 38.5267857,22.8571429 L35.5357143,22.8571429 C34.0029685,21.0267766 32.0312621,20.0744051 29.6205357,20 C30.8258989,18.2589199 31.4285714,16.354177 31.4285714,14.2857143 C31.4285714,13.8541645 31.3913694,13.363098 31.3169643,12.8125 C32.2991121,13.1547636 33.2886855,13.3258929 34.2857143,13.3258929 C35.1636949,13.3258929 36.0491027,13.1659242 36.9419643,12.8459821 C37.8348259,12.5260401 38.5602651,12.209823 39.1183036,11.8973214 C39.6763421,11.5848199 39.9999996,11.4285714 40.0892857,11.4285714 C41.934533,11.4285714 42.8571429,14.0550333 42.8571429,19.3080357 Z M40,5.71428571 C40,7.29167455 39.4419699,8.63838728 38.3258929,9.75446429 C37.2098158,10.8705413 35.8631031,11.4285714 34.2857143,11.4285714 C32.7083254,11.4285714 31.3616127,10.8705413 30.2455357,9.75446429 C29.1294587,8.63838728 28.5714286,7.29167455 28.5714286,5.71428571 C28.5714286,4.13689688 29.1294587,2.79018415 30.2455357,1.67410714 C31.3616127,0.558030134 32.7083254,0 34.2857143,0 C35.8631031,0 37.2098158,0.558030134 38.3258929,1.67410714 C39.4419699,2.79018415 40,4.13689688 40,5.71428571 Z" id="" fill="url(#linearGradient-1)"></path>
    </g>
</svg>