<svg id="Layer_1" data-name="Layer 1" xmlns="http://www.w3.org/2000/svg" xmlns:xlink="http://www.w3.org/1999/xlink" viewBox="0 0 276.73 524.41"><defs><style>.cls-1{fill:#ebf2f2;}.cls-2{font-size:10px;}.cls-2,.cls-3{font-family:OpenSans-Regular, Open Sans;}.cls-3{font-size:14px;}.cls-10,.cls-11,.cls-12,.cls-13,.cls-4,.cls-5,.cls-7,.cls-9{fill:none;}.cls-4,.cls-5{stroke:#000;stroke-miterlimit:10;stroke-width:0.5px;}.cls-5{stroke-dasharray:11.94 11.94;}.cls-6{fill:#00bae6;}.cls-10,.cls-11,.cls-12,.cls-13,.cls-7,.cls-9{stroke-width:2px;}.cls-7{stroke:url(#linear-gradient);}.cls-8{fill:url(#linear-gradient-2);}.cls-9{stroke:url(#linear-gradient-3);}.cls-10{stroke:url(#linear-gradient-4);}.cls-11{stroke:url(#linear-gradient-5);}.cls-12{stroke:url(#linear-gradient-6);}.cls-13{stroke:url(#linear-gradient-7);}</style><linearGradient id="linear-gradient" x1="238.22" y1="501.89" x2="240.22" y2="501.89" gradientUnits="userSpaceOnUse"><stop offset="0" stop-color="#8bf7d9"/><stop offset="1" stop-color="#4bdaf8"/></linearGradient><linearGradient id="linear-gradient-2" x1="238.22" y1="519.19" x2="240.22" y2="519.19" xlink:href="#linear-gradient"/><linearGradient id="linear-gradient-3" x1="238.22" y1="420.51" x2="240.22" y2="420.51" xlink:href="#linear-gradient"/><linearGradient id="linear-gradient-4" x1="238.22" y1="312.32" x2="240.22" y2="312.32" xlink:href="#linear-gradient"/><linearGradient id="linear-gradient-5" x1="238.22" y1="208.17" x2="240.22" y2="208.17" xlink:href="#linear-gradient"/><linearGradient id="linear-gradient-6" x1="238.22" y1="98.76" x2="240.22" y2="98.76" xlink:href="#linear-gradient"/><linearGradient id="linear-gradient-7" x1="238.22" y1="20.74" x2="240.22" y2="20.74" xlink:href="#linear-gradient"/></defs><title>Artboard 12</title><path class="cls-1" d="M123.77,524.41C123.77,212.94,206.9,0,206.9,0H12.12S94.3,212.94,94.3,524.41Z"/><text class="cls-2" transform="translate(-0.01 468.16)">Digital-enabled<tspan x="-1.53" y="12">medical devices</tspan></text><text class="cls-2" transform="translate(209.71 55.35)">Qualification</text><text class="cls-2" transform="translate(204.15 151.95)">Creating digital<tspan x="12.26" y="12">extension</tspan></text><text class="cls-2" transform="translate(213.5 256.94)">Integration<tspan x="-5.85" y="12">with platform</tspan></text><text class="cls-2" transform="translate(207.19 361.94)">Lauching new<tspan x="-4.5" y="12">business model</tspan></text><text class="cls-2" transform="translate(208.51 475.33)">Go to market</text><text class="cls-3" transform="translate(29.22 11.85)">Existing medical devices</text><line class="cls-4" y1="104.85" x2="6" y2="104.85"/><line class="cls-5" x1="17.94" y1="104.85" x2="203.02" y2="104.85"/><line class="cls-4" x1="208.99" y1="104.85" x2="214.99" y2="104.85"/><line class="cls-4" y1="209.71" x2="6" y2="209.71"/><line class="cls-5" x1="17.94" y1="209.71" x2="203.02" y2="209.71"/><line class="cls-4" x1="208.99" y1="209.71" x2="214.99" y2="209.71"/><line class="cls-4" y1="314.56" x2="6" y2="314.56"/><line class="cls-5" x1="17.94" y1="314.56" x2="203.02" y2="314.56"/><line class="cls-4" x1="208.99" y1="314.56" x2="214.99" y2="314.56"/><line class="cls-4" y1="419.42" x2="6" y2="419.42"/><line class="cls-5" x1="17.94" y1="419.42" x2="203.02" y2="419.42"/><line class="cls-4" x1="208.99" y1="419.42" x2="214.99" y2="419.42"/><circle class="cls-6" cx="109.02" cy="438.03" r="12.76"/><circle class="cls-6" cx="168.19" cy="67.23" r="12.76"/><circle class="cls-6" cx="71.96" cy="129.9" r="12.76"/><circle class="cls-6" cx="148.87" cy="136.86" r="12.76"/><circle class="cls-6" cx="109.02" cy="165.63" r="12.76"/><circle class="cls-6" cx="122.55" cy="45.49" r="12.76"/><circle class="cls-6" cx="59.21" cy="84.46" r="12.76"/><circle class="cls-6" cx="92.19" cy="84.46" r="7.09"/><circle class="cls-6" cx="46.45" cy="52.43" r="7.09"/><circle class="cls-6" cx="84.72" cy="61.06" r="7.09"/><circle class="cls-6" cx="127.45" cy="74.32" r="7.09"/><circle class="cls-6" cx="162.52" cy="41.98" r="7.09"/><circle class="cls-6" cx="115.79" cy="123.68" r="7.09"/><circle class="cls-6" cx="142.39" cy="168.91" r="7.09"/><circle class="cls-6" cx="129.97" cy="188.13" r="7.09"/><circle class="cls-6" cx="96.27" cy="188.13" r="7.09"/><circle class="cls-6" cx="71.96" cy="157.28" r="7.09"/><circle class="cls-6" cx="79.43" cy="223.06" r="7.09"/><circle class="cls-6" cx="122.88" cy="262.18" r="7.09"/><circle class="cls-6" cx="89.18" cy="278.31" r="7.09"/><circle class="cls-6" cx="99.27" cy="299.98" r="7.09"/><circle class="cls-6" cx="124.5" cy="329.07" r="7.09"/><circle class="cls-6" cx="109.02" cy="225.15" r="2.83"/><circle class="cls-6" cx="101.82" cy="265.88" r="2.83"/><circle class="cls-6" cx="112.95" cy="197.13" r="2.83"/><circle class="cls-6" cx="130.54" cy="156.24" r="2.83"/><circle class="cls-6" cx="96.98" cy="138.66" r="2.83"/><circle class="cls-6" cx="104.66" cy="65.32" r="2.83"/><circle class="cls-6" cx="116.34" cy="88" r="2.83"/><circle class="cls-6" cx="62.71" cy="61.06" r="2.83"/><circle class="cls-6" cx="83.32" cy="39.75" r="2.83"/><circle class="cls-6" cx="83.32" cy="39.75" r="2.83"/><circle class="cls-6" cx="144.85" cy="58.25" r="2.83" transform="translate(21.99 154.57) rotate(-60)"/><circle class="cls-6" cx="162.95" cy="88.14" r="2.83" transform="translate(5.15 185.18) rotate(-60)"/><circle class="cls-6" cx="146.64" cy="82.82" r="2.83" transform="translate(1.6 168.41) rotate(-60)"/><circle class="cls-6" cx="142.88" cy="115.24" r="2.83" transform="translate(-28.36 181.35) rotate(-60)"/><circle class="cls-6" cx="92.19" cy="244.74" r="12.76"/><circle class="cls-6" cx="100.38" cy="334.74" r="12.76"/><circle class="cls-6" cx="113.13" cy="371.03" r="12.76"/><circle class="cls-6" cx="104.94" cy="401.6" r="12.76"/><circle class="cls-6" cx="121.78" cy="293.04" r="12.76"/><circle class="cls-6" cx="131.59" cy="232.09" r="12.76"/><circle class="cls-6" cx="109.02" cy="472.52" r="12.76"/><circle class="cls-6" cx="109.02" cy="507.01" r="12.76"/><line class="cls-7" x1="239.22" y1="481.67" x2="239.22" y2="522.1"/><polygon class="cls-8" points="231.04 515.48 232.5 514.11 239.21 521.34 245.93 514.11 247.39 515.48 239.21 524.27 231.04 515.48"/><line class="cls-9" x1="239.22" y1="378.11" x2="239.22" y2="462.91"/><line class="cls-10" x1="239.22" y1="274.31" x2="239.22" y2="350.33"/><line class="cls-11" x1="239.22" y1="171" x2="239.22" y2="245.34"/><line class="cls-12" x1="239.22" y1="60.66" x2="239.22" y2="136.86"/><line class="cls-13" x1="239.22" y1="41.49" x2="239.22"/></svg>