<svg width="789" height="707" viewBox="0 0 789 707" fill="none" xmlns="http://www.w3.org/2000/svg">
<g filter="url(#filter0_d)">
<circle r="135.036" transform="matrix(-1 0 0 1 603.839 346.839)" fill="url(#paint0_linear)"/>
</g>
<circle r="145.839" transform="matrix(-1 0 0 1 603.839 346.839)" stroke="white" stroke-width="3" stroke-linecap="round" stroke-linejoin="bevel" stroke-dasharray="1 6"/>
<rect x="603.473" y="275.121" width="100.907" height="100.907" rx="5.5" transform="rotate(45 603.473 275.121)" stroke="white" stroke-width="3"/>
<path fill-rule="evenodd" clip-rule="evenodd" d="M609.53 363.503V331.616H624.016C634.448 331.616 641.599 337.903 641.599 347.56C641.599 357.217 634.448 363.503 624.016 363.503H609.53ZM616.91 357.445H623.652C629.984 357.445 634.129 353.664 634.129 347.56C634.129 341.456 629.984 337.675 623.652 337.675H616.91V357.445ZM595.045 363.503H601.969L601.878 331.616H595.819L584.067 351.432L572.132 331.616H566.028V363.503H572.952V344.781L582.29 360.132H585.615L594.999 344.371L595.045 363.503Z" fill="white"/>
<g filter="url(#filter1_d)">
<circle r="89.7532" transform="matrix(-1 0 0 1 119.753 582.753)" fill="white"/>
<circle r="83.0858" transform="matrix(-1 0 0 1 119.754 582.753)" stroke="#00BAE6" stroke-linecap="round" stroke-linejoin="bevel" stroke-dasharray="1 3"/>
<path d="M66.7969 576.723H71.2402C73.265 576.723 74.7331 577.012 75.6445 577.592C76.5625 578.165 77.0215 579.079 77.0215 580.336C77.0215 581.189 76.8197 581.889 76.416 582.436C76.0189 582.982 75.4883 583.311 74.8242 583.422V583.52C75.7292 583.721 76.3802 584.099 76.7773 584.652C77.181 585.206 77.3828 585.941 77.3828 586.859C77.3828 588.161 76.9108 589.177 75.9668 589.906C75.0293 590.635 73.7533 591 72.1387 591H66.7969V576.723ZM69.8242 582.377H71.582C72.4023 582.377 72.9948 582.25 73.3594 581.996C73.7305 581.742 73.916 581.322 73.916 580.736C73.916 580.189 73.7142 579.799 73.3105 579.564C72.9134 579.324 72.2819 579.203 71.416 579.203H69.8242V582.377ZM69.8242 584.779V588.5H71.7969C72.6302 588.5 73.2454 588.34 73.6426 588.021C74.0397 587.702 74.2383 587.214 74.2383 586.557C74.2383 585.372 73.3919 584.779 71.6992 584.779H69.8242ZM82.9785 591H80V575.805H82.9785V591ZM88.4863 585.521C88.4863 586.602 88.6621 587.419 89.0137 587.973C89.3717 588.526 89.9512 588.803 90.752 588.803C91.5462 588.803 92.1159 588.529 92.4609 587.982C92.8125 587.429 92.9883 586.609 92.9883 585.521C92.9883 584.441 92.8125 583.63 92.4609 583.09C92.1094 582.549 91.5332 582.279 90.7324 582.279C89.9382 582.279 89.3652 582.549 89.0137 583.09C88.6621 583.624 88.4863 584.434 88.4863 585.521ZM96.0352 585.521C96.0352 587.299 95.5664 588.689 94.6289 589.691C93.6914 590.694 92.3861 591.195 90.7129 591.195C89.6647 591.195 88.7402 590.967 87.9395 590.512C87.1387 590.049 86.5234 589.389 86.0938 588.529C85.6641 587.67 85.4492 586.667 85.4492 585.521C85.4492 583.738 85.9147 582.351 86.8457 581.361C87.7767 580.372 89.0853 579.877 90.7715 579.877C91.8197 579.877 92.7441 580.105 93.5449 580.561C94.3457 581.016 94.9609 581.671 95.3906 582.523C95.8203 583.376 96.0352 584.376 96.0352 585.521ZM102.93 591.195C99.5312 591.195 97.832 589.33 97.832 585.6C97.832 583.744 98.2943 582.328 99.2188 581.352C100.143 580.368 101.468 579.877 103.193 579.877C104.456 579.877 105.589 580.124 106.592 580.619L105.713 582.924C105.244 582.735 104.808 582.582 104.404 582.465C104.001 582.341 103.597 582.279 103.193 582.279C101.644 582.279 100.869 583.38 100.869 585.58C100.869 587.715 101.644 588.783 103.193 588.783C103.766 588.783 104.297 588.708 104.785 588.559C105.273 588.402 105.762 588.161 106.25 587.836V590.385C105.768 590.691 105.28 590.902 104.785 591.02C104.297 591.137 103.678 591.195 102.93 591.195ZM111.65 585.062L112.949 583.402L116.006 580.082H119.365L115.029 584.818L119.629 591H116.191L113.047 586.576L111.768 587.602V591H108.789V575.805H111.768V582.582L111.611 585.062H111.65ZM125.625 591.195C122.227 591.195 120.527 589.33 120.527 585.6C120.527 583.744 120.99 582.328 121.914 581.352C122.839 580.368 124.163 579.877 125.889 579.877C127.152 579.877 128.285 580.124 129.287 580.619L128.408 582.924C127.939 582.735 127.503 582.582 127.1 582.465C126.696 582.341 126.292 582.279 125.889 582.279C124.339 582.279 123.564 583.38 123.564 585.58C123.564 587.715 124.339 588.783 125.889 588.783C126.462 588.783 126.992 588.708 127.48 588.559C127.969 588.402 128.457 588.161 128.945 587.836V590.385C128.464 590.691 127.975 590.902 127.48 591.02C126.992 591.137 126.374 591.195 125.625 591.195ZM141.562 591H138.584V584.623C138.584 583.048 137.998 582.26 136.826 582.26C135.993 582.26 135.391 582.543 135.02 583.109C134.648 583.676 134.463 584.594 134.463 585.863V591H131.484V575.805H134.463V578.9C134.463 579.141 134.44 579.708 134.395 580.6L134.326 581.479H134.482C135.146 580.411 136.201 579.877 137.646 579.877C138.929 579.877 139.902 580.222 140.566 580.912C141.23 581.602 141.562 582.592 141.562 583.881V591ZM151.562 591L150.986 589.516H150.908C150.407 590.147 149.889 590.587 149.355 590.834C148.828 591.075 148.138 591.195 147.285 591.195C146.237 591.195 145.41 590.896 144.805 590.297C144.206 589.698 143.906 588.845 143.906 587.738C143.906 586.579 144.31 585.727 145.117 585.18C145.931 584.626 147.155 584.32 148.789 584.262L150.684 584.203V583.725C150.684 582.618 150.117 582.064 148.984 582.064C148.112 582.064 147.087 582.328 145.908 582.855L144.922 580.844C146.178 580.186 147.572 579.857 149.102 579.857C150.566 579.857 151.689 580.176 152.471 580.814C153.252 581.452 153.643 582.423 153.643 583.725V591H151.562ZM150.684 585.941L149.531 585.98C148.665 586.007 148.021 586.163 147.598 586.449C147.174 586.736 146.963 587.172 146.963 587.758C146.963 588.598 147.445 589.018 148.408 589.018C149.098 589.018 149.648 588.819 150.059 588.422C150.475 588.025 150.684 587.497 150.684 586.84V585.941ZM156.592 577.26C156.592 576.29 157.132 575.805 158.213 575.805C159.294 575.805 159.834 576.29 159.834 577.26C159.834 577.722 159.697 578.083 159.424 578.344C159.157 578.598 158.753 578.725 158.213 578.725C157.132 578.725 156.592 578.236 156.592 577.26ZM159.697 591H156.719V580.082H159.697V591ZM172.91 591H169.932V584.623C169.932 583.835 169.792 583.246 169.512 582.855C169.232 582.458 168.786 582.26 168.174 582.26C167.34 582.26 166.738 582.54 166.367 583.1C165.996 583.653 165.811 584.574 165.811 585.863V591H162.832V580.082H165.107L165.508 581.479H165.674C166.006 580.951 166.462 580.554 167.041 580.287C167.627 580.014 168.291 579.877 169.033 579.877C170.303 579.877 171.266 580.222 171.924 580.912C172.581 581.596 172.91 582.585 172.91 583.881V591Z" fill="#252831"/>
</g>
<g filter="url(#filter2_d)">
<circle r="89.7532" transform="matrix(-1 0 0 1 119.753 350.753)" fill="white"/>
<circle r="83.0858" transform="matrix(-1 0 0 1 119.754 350.753)" stroke="#00BAE6" stroke-linecap="round" stroke-linejoin="bevel" stroke-dasharray="1 3"/>
<path d="M105.797 357V342.723H108.824V357H105.797ZM114.557 351.521C114.557 352.602 114.732 353.419 115.084 353.973C115.442 354.526 116.021 354.803 116.822 354.803C117.617 354.803 118.186 354.529 118.531 353.982C118.883 353.429 119.059 352.609 119.059 351.521C119.059 350.441 118.883 349.63 118.531 349.09C118.18 348.549 117.604 348.279 116.803 348.279C116.008 348.279 115.436 348.549 115.084 349.09C114.732 349.624 114.557 350.434 114.557 351.521ZM122.105 351.521C122.105 353.299 121.637 354.689 120.699 355.691C119.762 356.694 118.456 357.195 116.783 357.195C115.735 357.195 114.811 356.967 114.01 356.512C113.209 356.049 112.594 355.389 112.164 354.529C111.734 353.67 111.52 352.667 111.52 351.521C111.52 349.738 111.985 348.351 112.916 347.361C113.847 346.372 115.156 345.877 116.842 345.877C117.89 345.877 118.814 346.105 119.615 346.561C120.416 347.016 121.031 347.671 121.461 348.523C121.891 349.376 122.105 350.376 122.105 351.521ZM130.309 357H127.281V345.242H123.404V342.723H134.186V345.242H130.309V357Z" fill="#252831"/>
</g>
<g filter="url(#filter3_d)">
<circle r="89.7532" transform="matrix(-1 0 0 1 119.753 115.753)" fill="white"/>
<circle r="83.0858" transform="matrix(-1 0 0 1 119.754 115.753)" stroke="#00BAE6" stroke-linecap="round" stroke-linejoin="bevel" stroke-dasharray="1 3"/>
<path d="M86.7754 124H83.7969V109.723H91.9805V112.203H86.7754V115.885H91.6191V118.355H86.7754V124ZM94.4121 110.26C94.4121 109.29 94.9525 108.805 96.0332 108.805C97.1139 108.805 97.6543 109.29 97.6543 110.26C97.6543 110.722 97.5176 111.083 97.2441 111.344C96.9772 111.598 96.5736 111.725 96.0332 111.725C94.9525 111.725 94.4121 111.236 94.4121 110.26ZM97.5176 124H94.5391V113.082H97.5176V124ZM110.73 124H107.752V117.623C107.752 116.835 107.612 116.246 107.332 115.855C107.052 115.458 106.606 115.26 105.994 115.26C105.161 115.26 104.559 115.54 104.188 116.1C103.816 116.653 103.631 117.574 103.631 118.863V124H100.652V113.082H102.928L103.328 114.479H103.494C103.826 113.951 104.282 113.554 104.861 113.287C105.447 113.014 106.111 112.877 106.854 112.877C108.123 112.877 109.087 113.222 109.744 113.912C110.402 114.596 110.73 115.585 110.73 116.881V124ZM118.396 121.822C118.917 121.822 119.542 121.708 120.271 121.48V123.697C119.529 124.029 118.618 124.195 117.537 124.195C116.346 124.195 115.477 123.896 114.93 123.297C114.389 122.691 114.119 121.786 114.119 120.582V115.318H112.693V114.059L114.334 113.062L115.193 110.758H117.098V113.082H120.154V115.318H117.098V120.582C117.098 121.005 117.215 121.318 117.449 121.52C117.69 121.721 118.006 121.822 118.396 121.822ZM127.01 114.996C126.378 114.996 125.883 115.198 125.525 115.602C125.167 115.999 124.962 116.565 124.91 117.301H129.09C129.077 116.565 128.885 115.999 128.514 115.602C128.143 115.198 127.641 114.996 127.01 114.996ZM127.43 124.195C125.672 124.195 124.298 123.71 123.309 122.74C122.319 121.77 121.824 120.396 121.824 118.619C121.824 116.79 122.28 115.377 123.191 114.381C124.109 113.378 125.376 112.877 126.99 112.877C128.533 112.877 129.734 113.316 130.594 114.195C131.453 115.074 131.883 116.288 131.883 117.838V119.283H124.842C124.874 120.13 125.125 120.79 125.594 121.266C126.062 121.741 126.72 121.979 127.566 121.979C128.224 121.979 128.846 121.91 129.432 121.773C130.018 121.637 130.63 121.419 131.268 121.119V123.424C130.747 123.684 130.19 123.876 129.598 124C129.005 124.13 128.283 124.195 127.43 124.195ZM138.738 124.195C135.34 124.195 133.641 122.33 133.641 118.6C133.641 116.744 134.103 115.328 135.027 114.352C135.952 113.368 137.277 112.877 139.002 112.877C140.265 112.877 141.398 113.124 142.4 113.619L141.521 115.924C141.053 115.735 140.617 115.582 140.213 115.465C139.809 115.341 139.406 115.279 139.002 115.279C137.452 115.279 136.678 116.38 136.678 118.58C136.678 120.715 137.452 121.783 139.002 121.783C139.575 121.783 140.105 121.708 140.594 121.559C141.082 121.402 141.57 121.161 142.059 120.836V123.385C141.577 123.691 141.089 123.902 140.594 124.02C140.105 124.137 139.487 124.195 138.738 124.195ZM154.676 124H151.697V117.623C151.697 116.048 151.111 115.26 149.939 115.26C149.106 115.26 148.504 115.543 148.133 116.109C147.762 116.676 147.576 117.594 147.576 118.863V124H144.598V108.805H147.576V111.9C147.576 112.141 147.553 112.708 147.508 113.6L147.439 114.479H147.596C148.26 113.411 149.314 112.877 150.76 112.877C152.042 112.877 153.016 113.222 153.68 113.912C154.344 114.602 154.676 115.592 154.676 116.881V124Z" fill="#252831"/>
</g>
<path d="M418.477 351H280" stroke="#FDFFFF" stroke-width="3" stroke-linecap="round" stroke-dasharray="1 6"/>
<circle r="8.65477" transform="matrix(-1 0 0 1 424.402 350.655)" fill="#57E9F2"/>
<circle r="12.9822" transform="matrix(-1 0 0 1 252.172 351.175)" fill="#79EFE2"/>
<circle r="17.675" transform="matrix(-1 0 0 1 252.172 351.175)" stroke="#00BAE6"/>
<path d="M418.347 254.582H343.05V118.5H282.467" stroke="#FDFFFF" stroke-width="3" stroke-linecap="round" stroke-dasharray="1 6"/>
<circle cx="424.405" cy="254.582" r="8.65477" transform="rotate(-180 424.405 254.582)" fill="#57E9F2"/>
<circle cx="252.175" cy="118.175" r="12.9822" transform="rotate(-180 252.175 118.175)" fill="#79EFE2"/>
<circle cx="252.175" cy="118.175" r="17.675" transform="rotate(-180 252.175 118.175)" stroke="#00BAE6"/>
<path d="M418.347 447.655H343.05V583.737H282.467" stroke="#FDFFFF" stroke-width="3" stroke-linecap="round" stroke-dasharray="1 6"/>
<circle r="8.65477" transform="matrix(-1 0 0 1 424.405 447.655)" fill="#57E9F2"/>
<circle r="12.9822" transform="matrix(-1 0 0 1 252.175 584.062)" fill="#79EFE2"/>
<circle r="17.675" transform="matrix(-1 0 0 1 252.175 584.062)" stroke="#00BAE6"/>
<defs>
<filter id="filter0_d" x="418.803" y="161.803" width="370.073" height="370.073" filterUnits="userSpaceOnUse" color-interpolation-filters="sRGB">
<feFlood flood-opacity="0" result="BackgroundImageFix"/>
<feColorMatrix in="SourceAlpha" type="matrix" values="0 0 0 0 0 0 0 0 0 0 0 0 0 0 0 0 0 0 127 0"/>
<feOffset/>
<feGaussianBlur stdDeviation="25"/>
<feColorMatrix type="matrix" values="0 0 0 0 0 0 0 0 0 0 0 0 0 0 0 0 0 0 0.25 0"/>
<feBlend mode="normal" in2="BackgroundImageFix" result="effect1_dropShadow"/>
<feBlend mode="normal" in="SourceGraphic" in2="effect1_dropShadow" result="shape"/>
</filter>
<filter id="filter1_d" x="0" y="467" width="239.506" height="239.506" filterUnits="userSpaceOnUse" color-interpolation-filters="sRGB">
<feFlood flood-opacity="0" result="BackgroundImageFix"/>
<feColorMatrix in="SourceAlpha" type="matrix" values="0 0 0 0 0 0 0 0 0 0 0 0 0 0 0 0 0 0 127 0"/>
<feOffset dy="4"/>
<feGaussianBlur stdDeviation="15"/>
<feColorMatrix type="matrix" values="0 0 0 0 0 0 0 0 0 0 0 0 0 0 0 0 0 0 0.3 0"/>
<feBlend mode="normal" in2="BackgroundImageFix" result="effect1_dropShadow"/>
<feBlend mode="normal" in="SourceGraphic" in2="effect1_dropShadow" result="shape"/>
</filter>
<filter id="filter2_d" x="0" y="235" width="239.506" height="239.506" filterUnits="userSpaceOnUse" color-interpolation-filters="sRGB">
<feFlood flood-opacity="0" result="BackgroundImageFix"/>
<feColorMatrix in="SourceAlpha" type="matrix" values="0 0 0 0 0 0 0 0 0 0 0 0 0 0 0 0 0 0 127 0"/>
<feOffset dy="4"/>
<feGaussianBlur stdDeviation="15"/>
<feColorMatrix type="matrix" values="0 0 0 0 0 0 0 0 0 0 0 0 0 0 0 0 0 0 0.3 0"/>
<feBlend mode="normal" in2="BackgroundImageFix" result="effect1_dropShadow"/>
<feBlend mode="normal" in="SourceGraphic" in2="effect1_dropShadow" result="shape"/>
</filter>
<filter id="filter3_d" x="0" y="0" width="239.506" height="239.506" filterUnits="userSpaceOnUse" color-interpolation-filters="sRGB">
<feFlood flood-opacity="0" result="BackgroundImageFix"/>
<feColorMatrix in="SourceAlpha" type="matrix" values="0 0 0 0 0 0 0 0 0 0 0 0 0 0 0 0 0 0 127 0"/>
<feOffset dy="4"/>
<feGaussianBlur stdDeviation="15"/>
<feColorMatrix type="matrix" values="0 0 0 0 0 0 0 0 0 0 0 0 0 0 0 0 0 0 0.3 0"/>
<feBlend mode="normal" in2="BackgroundImageFix" result="effect1_dropShadow"/>
<feBlend mode="normal" in="SourceGraphic" in2="effect1_dropShadow" result="shape"/>
</filter>
<linearGradient id="paint0_linear" x1="-64.4401" y1="135.037" x2="511.825" y2="135.036" gradientUnits="userSpaceOnUse">
<stop stop-color="#53E4F4"/>
<stop offset="1" stop-color="#8CF7DB"/>
</linearGradient>
</defs>
</svg>
